<svg width="549" height="231" viewBox="0 0 549 231" fill="none" xmlns="http://www.w3.org/2000/svg">
<path d="M72.7917 88V100.817C72.7917 102.894 72.7917 103.932 73.1958 104.725C73.5513 105.423 74.1186 105.99 74.8163 106.346C75.6095 106.75 76.6478 106.75 78.7245 106.75H94.0417M92.0341 101.854L78.0154 89.4842C77.3931 88.9351 77.0819 88.6605 76.7288 88.4648C76.4156 88.2912 76.0789 88.1639 75.7293 88.0869C75.335 88 74.9201 88 74.0901 88H53.9328C51.8561 88 50.8178 88 50.0246 88.4041C49.3269 88.7596 48.7596 89.3269 48.4041 90.0246C48 90.8178 48 91.8561 48 93.9328V135.192C48 137.269 48 138.307 48.4041 139.1C48.7596 139.798 49.3269 140.365 50.0246 140.721C50.8178 141.125 51.8561 141.125 53.9328 141.125H88.1089C90.1855 141.125 91.2239 141.125 92.0171 140.721C92.7148 140.365 93.282 139.798 93.6375 139.1C94.0417 138.307 94.0417 137.269 94.0417 135.192V106.302C94.0417 105.317 94.0417 104.824 93.9224 104.365C93.8167 103.959 93.6426 103.573 93.4076 103.225C93.1425 102.832 92.773 102.506 92.0341 101.854Z" stroke="white" style="stroke:white;stroke-opacity:1;" stroke-width="2.472"/>
<path d="M148.61 120.699C148.997 120.305 148.99 119.672 148.595 119.285L142.163 112.99C141.768 112.604 141.135 112.611 140.749 113.005C140.363 113.4 140.369 114.033 140.764 114.419L146.481 120.015L140.886 125.733C140.499 126.127 140.506 126.76 140.901 127.147C141.296 127.533 141.929 127.526 142.315 127.131L148.61 120.699ZM110 120.407L110.011 121.407L147.906 121L147.896 120L147.885 119L109.989 119.408L110 120.407Z" fill="white" style="fill:white;fill-opacity:1;"/>
<path d="M413.712 123.968C414.099 123.574 414.092 122.94 413.697 122.554L407.265 116.259C406.87 115.873 406.237 115.879 405.851 116.274C405.465 116.669 405.472 117.302 405.866 117.688L411.584 123.284L405.988 129.001C405.602 129.396 405.608 130.029 406.003 130.415C406.398 130.802 407.031 130.795 407.417 130.4L413.712 123.968ZM373 123.699L373.011 124.699L413.008 124.269L412.998 123.269L412.987 122.269L372.989 122.699L373 123.699Z" fill="white" style="fill:white;fill-opacity:1;"/>
<g opacity="0.3">
<path d="M467.137 123.25H448.85C444.042 123.25 441.637 123.25 440.144 121.932C438.65 120.614 438.65 118.493 438.65 114.25V91.75C438.65 87.5074 438.65 85.386 440.144 84.068C441.637 82.75 444.042 82.75 448.85 82.75H474.35C479.158 82.75 481.562 82.75 483.056 84.068C484.55 85.386 484.55 87.5074 484.55 91.75V107.886C484.55 108.806 484.55 109.266 484.356 109.679C484.162 110.093 483.793 110.418 483.056 111.068L470.744 121.932C470.007 122.582 469.638 122.908 469.169 123.079C468.701 123.25 468.18 123.25 467.137 123.25Z" stroke="white" style="stroke:white;stroke-opacity:1;" stroke-width="2.04817"/>
<path d="M466.7 123.25V112.75C466.7 110.275 466.7 109.038 467.571 108.269C468.443 107.5 469.845 107.5 472.65 107.5H484.55" stroke="white" style="stroke:white;stroke-opacity:1;" stroke-width="2.04817"/>
</g>
<g opacity="0.6">
<path d="M477.338 132.25H459.05C454.242 132.25 451.838 132.25 450.344 130.932C448.85 129.614 448.85 127.493 448.85 123.25V100.75C448.85 96.5072 448.85 94.3859 450.344 93.0679C451.838 91.7498 454.242 91.7498 459.05 91.7498H484.55C489.358 91.7498 491.763 91.7498 493.256 93.0679C494.75 94.3859 494.75 96.5072 494.75 100.75V116.886C494.75 117.806 494.75 118.265 494.556 118.679C494.362 119.092 493.993 119.418 493.256 120.068L480.944 130.932C480.207 131.582 479.838 131.907 479.37 132.079C478.901 132.25 478.38 132.25 477.338 132.25Z" stroke="white" style="stroke:white;stroke-opacity:1;" stroke-width="2.04817"/>
<path d="M476.9 132.25V121.75C476.9 119.275 476.9 118.038 477.772 117.269C478.643 116.5 480.045 116.5 482.85 116.5H494.75" stroke="white" style="stroke:white;stroke-opacity:1;" stroke-width="2.04817"/>
</g>
<path d="M490.937 144.25H472.65C467.842 144.25 465.437 144.25 463.944 142.932C462.45 141.614 462.45 139.493 462.45 135.25V112.75C462.45 108.507 462.45 106.386 463.944 105.068C465.437 103.75 467.842 103.75 472.65 103.75H498.15C502.958 103.75 505.362 103.75 506.856 105.068C508.35 106.386 508.35 108.507 508.35 112.75V128.886C508.35 129.806 508.35 130.266 508.156 130.679C507.962 131.092 507.593 131.418 506.856 132.068L494.544 142.932C493.807 143.582 493.438 143.907 492.969 144.079C492.501 144.25 491.98 144.25 490.937 144.25Z" stroke="white" style="stroke:white;stroke-opacity:1;" stroke-width="2.04817"/>
<path d="M490.5 144.25V133.75C490.5 131.275 490.5 130.038 491.371 129.269C492.243 128.5 493.645 128.5 496.45 128.5H508.35" stroke="white" style="stroke:white;stroke-opacity:1;" stroke-width="2.04817"/>
<rect x="164" y="49" width="193" height="142" rx="15" stroke="white" style="stroke:white;stroke-opacity:1;" stroke-width="2"/>
<path d="M203 63H317C319.209 63 321 64.7909 321 67V103C321 105.209 319.209 107 317 107H203C200.791 107 199 105.209 199 103V67C199 64.7909 200.791 63 203 63Z" stroke="white" style="stroke:white;stroke-opacity:1;" stroke-width="2"/>
<path d="M203 131H317C319.209 131 321 132.791 321 135V171C321 173.209 319.209 175 317 175H203C200.791 175 199 173.209 199 171V135C199 132.791 200.791 131 203 131Z" stroke="white" style="stroke:white;stroke-opacity:1;" stroke-width="2"/>
<path d="M246.236 91V80.2131H248.517V89.1197H253.141V91H246.236ZM254.652 91V80.2131H256.932V89.1197H261.557V91H254.652ZM263.067 80.2131H265.88L268.85 87.4605H268.977L271.947 80.2131H274.76V91H272.548V83.979H272.458L269.667 90.9473H268.16L265.369 83.9527H265.279V91H263.067V80.2131Z" fill="white" style="fill:white;fill-opacity:1;"/>
<path d="M234.402 158V147.213H238.658C239.476 147.213 240.173 147.369 240.749 147.682C241.325 147.991 241.764 148.421 242.066 148.972C242.371 149.52 242.524 150.152 242.524 150.868C242.524 151.585 242.369 152.217 242.06 152.765C241.751 153.312 241.304 153.739 240.717 154.044C240.134 154.35 239.429 154.503 238.6 154.503H235.887V152.675H238.231C238.67 152.675 239.032 152.6 239.316 152.449C239.604 152.294 239.818 152.082 239.959 151.811C240.103 151.537 240.175 151.223 240.175 150.868C240.175 150.51 240.103 150.198 239.959 149.931C239.818 149.661 239.604 149.452 239.316 149.304C239.028 149.153 238.663 149.078 238.221 149.078H236.683V158H234.402ZM243.963 158V149.91H246.138V151.321H246.223C246.37 150.819 246.618 150.44 246.965 150.184C247.313 149.924 247.713 149.794 248.166 149.794C248.279 149.794 248.4 149.801 248.53 149.815C248.66 149.829 248.774 149.848 248.872 149.873V151.864C248.767 151.832 248.621 151.804 248.435 151.78C248.249 151.755 248.078 151.743 247.924 151.743C247.594 151.743 247.299 151.815 247.039 151.959C246.783 152.099 246.579 152.296 246.428 152.549C246.281 152.801 246.207 153.093 246.207 153.423V158H243.963ZM253.311 158.158C252.493 158.158 251.785 157.984 251.188 157.637C250.595 157.285 250.137 156.797 249.814 156.172C249.49 155.544 249.329 154.815 249.329 153.987C249.329 153.151 249.49 152.42 249.814 151.795C250.137 151.167 250.595 150.679 251.188 150.331C251.785 149.98 252.493 149.804 253.311 149.804C254.129 149.804 254.835 149.98 255.428 150.331C256.025 150.679 256.485 151.167 256.808 151.795C257.131 152.42 257.293 153.151 257.293 153.987C257.293 154.815 257.131 155.544 256.808 156.172C256.485 156.797 256.025 157.285 255.428 157.637C254.835 157.984 254.129 158.158 253.311 158.158ZM253.321 156.42C253.694 156.42 254.004 156.315 254.254 156.104C254.503 155.89 254.691 155.598 254.817 155.23C254.947 154.861 255.012 154.441 255.012 153.971C255.012 153.5 254.947 153.081 254.817 152.712C254.691 152.343 254.503 152.052 254.254 151.838C254.004 151.623 253.694 151.516 253.321 151.516C252.946 151.516 252.63 151.623 252.373 151.838C252.121 152.052 251.929 152.343 251.799 152.712C251.673 153.081 251.61 153.5 251.61 153.971C251.61 154.441 251.673 154.861 251.799 155.23C251.929 155.598 252.121 155.89 252.373 156.104C252.63 156.315 252.946 156.42 253.321 156.42ZM258.752 158V149.91H260.89V151.337H260.985C261.153 150.863 261.434 150.489 261.828 150.215C262.221 149.941 262.691 149.804 263.239 149.804C263.794 149.804 264.266 149.943 264.656 150.221C265.046 150.494 265.306 150.867 265.436 151.337H265.52C265.685 150.874 265.983 150.503 266.415 150.226C266.851 149.945 267.365 149.804 267.959 149.804C268.713 149.804 269.326 150.045 269.797 150.526C270.271 151.004 270.508 151.681 270.508 152.559V158H268.269V153.002C268.269 152.552 268.15 152.215 267.911 151.99C267.672 151.766 267.374 151.653 267.016 151.653C266.608 151.653 266.291 151.783 266.062 152.043C265.834 152.299 265.72 152.638 265.72 153.06V158H263.545V152.954C263.545 152.557 263.431 152.241 263.202 152.006C262.978 151.771 262.681 151.653 262.312 151.653C262.063 151.653 261.838 151.716 261.638 151.843C261.441 151.966 261.285 152.14 261.169 152.364C261.053 152.585 260.995 152.845 260.995 153.144V158H258.752ZM272.28 161.034V149.91H274.492V151.269H274.592C274.691 151.051 274.833 150.83 275.019 150.605C275.209 150.377 275.454 150.187 275.756 150.036C276.062 149.882 276.441 149.804 276.894 149.804C277.484 149.804 278.028 149.959 278.527 150.268C279.025 150.573 279.424 151.035 279.722 151.653C280.021 152.268 280.17 153.038 280.17 153.965C280.17 154.868 280.024 155.63 279.733 156.251C279.445 156.869 279.052 157.338 278.553 157.658C278.058 157.974 277.503 158.132 276.889 158.132C276.453 158.132 276.083 158.06 275.777 157.916C275.475 157.772 275.228 157.591 275.035 157.373C274.842 157.152 274.694 156.929 274.592 156.704H274.524V161.034H272.28ZM274.476 153.955C274.476 154.436 274.543 154.856 274.677 155.214C274.81 155.572 275.003 155.851 275.256 156.051C275.509 156.248 275.816 156.346 276.178 156.346C276.543 156.346 276.852 156.246 277.105 156.046C277.358 155.842 277.549 155.561 277.679 155.203C277.812 154.842 277.879 154.425 277.879 153.955C277.879 153.488 277.814 153.077 277.684 152.722C277.554 152.368 277.363 152.09 277.11 151.89C276.857 151.69 276.546 151.59 276.178 151.59C275.813 151.59 275.504 151.687 275.251 151.88C275.001 152.073 274.81 152.347 274.677 152.701C274.543 153.056 274.476 153.474 274.476 153.955ZM285.969 149.91V151.595H281.097V149.91H285.969ZM282.203 147.972H284.447V155.514C284.447 155.721 284.479 155.883 284.542 155.999C284.605 156.111 284.693 156.19 284.805 156.236C284.921 156.281 285.054 156.304 285.205 156.304C285.311 156.304 285.416 156.295 285.521 156.278C285.627 156.257 285.708 156.241 285.764 156.23L286.117 157.9C286.004 157.935 285.846 157.975 285.643 158.021C285.439 158.07 285.191 158.1 284.9 158.111C284.359 158.132 283.885 158.06 283.478 157.895C283.074 157.73 282.76 157.473 282.535 157.126C282.31 156.778 282.2 156.339 282.203 155.809V147.972Z" fill="white" style="fill:white;fill-opacity:1;"/>
<path d="M455 165L454.916 165.415C454.856 165.708 454.765 166.021 454.642 166.354C454.523 166.687 454.398 167.001 454.268 167.296C454.139 167.591 454.032 167.826 453.947 168H453C453.046 167.836 453.105 167.619 453.179 167.35C453.253 167.081 453.326 166.779 453.4 166.446C453.477 166.115 453.54 165.777 453.589 165.431L453.653 165H455Z" fill="white" style="fill:white;fill-opacity:1;"/>
<path d="M477 165L476.916 165.415C476.856 165.708 476.765 166.021 476.642 166.354C476.523 166.687 476.398 167.001 476.268 167.296C476.139 167.591 476.032 167.826 475.947 168H475C475.046 167.836 475.105 167.619 475.179 167.35C475.253 167.081 475.326 166.779 475.4 166.446C475.477 166.115 475.54 165.777 475.589 165.431L475.653 165H477Z" fill="white" style="fill:white;fill-opacity:1;"/>
<path d="M487.5 166C487.363 166 487.245 165.951 487.147 165.853C487.049 165.755 487 165.637 487 165.5C487 165.363 487.049 165.245 487.147 165.147C487.245 165.049 487.363 165 487.5 165C487.637 165 487.755 165.049 487.853 165.147C487.951 165.245 488 165.363 488 165.5C488 165.591 487.977 165.674 487.931 165.75C487.886 165.826 487.826 165.887 487.75 165.933C487.676 165.978 487.593 166 487.5 166Z" fill="white" style="fill:white;fill-opacity:1;"/>
<path d="M484.5 166C484.363 166 484.245 165.951 484.147 165.853C484.049 165.755 484 165.637 484 165.5C484 165.363 484.049 165.245 484.147 165.147C484.245 165.049 484.363 165 484.5 165C484.637 165 484.755 165.049 484.853 165.147C484.951 165.245 485 165.363 485 165.5C485 165.591 484.977 165.674 484.931 165.75C484.886 165.826 484.826 165.887 484.75 165.933C484.676 165.978 484.593 166 484.5 166Z" fill="white" style="fill:white;fill-opacity:1;"/>
<path d="M481.5 166C481.363 166 481.245 165.951 481.147 165.853C481.049 165.755 481 165.637 481 165.5C481 165.363 481.049 165.245 481.147 165.147C481.245 165.049 481.363 165 481.5 165C481.637 165 481.755 165.049 481.853 165.147C481.951 165.245 482 165.363 482 165.5C482 165.591 481.977 165.674 481.931 165.75C481.886 165.826 481.826 165.887 481.75 165.933C481.676 165.978 481.593 166 481.5 166Z" fill="white" style="fill:white;fill-opacity:1;"/>
<path d="M430 162.514V162.078C430.543 162.078 430.922 161.996 431.137 161.832C431.354 161.668 431.463 161.394 431.463 161.009V159.884C431.463 159.561 431.506 159.281 431.59 159.044C431.678 158.807 431.82 158.612 432.015 158.457C432.21 158.302 432.47 158.188 432.795 158.113C433.12 158.038 433.522 158 434 158V158.689C433.623 158.689 433.325 158.731 433.107 158.816C432.893 158.9 432.74 159.031 432.649 159.209C432.561 159.385 432.517 159.61 432.517 159.884V161.291C432.517 161.473 432.483 161.64 432.415 161.79C432.35 161.94 432.228 162.069 432.049 162.177C431.87 162.284 431.615 162.368 431.283 162.426C430.954 162.485 430.527 162.514 430 162.514ZM434 167C433.522 167 433.12 166.962 432.795 166.887C432.47 166.812 432.21 166.698 432.015 166.543C431.82 166.388 431.678 166.193 431.59 165.956C431.506 165.719 431.463 165.439 431.463 165.116V163.991C431.463 163.606 431.354 163.332 431.137 163.168C430.922 163.004 430.543 162.922 430 162.922V162.486C430.527 162.486 430.954 162.515 431.283 162.574C431.615 162.632 431.87 162.716 432.049 162.823C432.228 162.931 432.35 163.06 432.415 163.21C432.483 163.36 432.517 163.527 432.517 163.709V165.116C432.517 165.39 432.561 165.615 432.649 165.791C432.74 165.966 432.893 166.096 433.107 166.181C433.325 166.268 433.623 166.311 434 166.311V167ZM430 162.922V162.078H431.151V162.922H430Z" fill="white" style="fill:white;fill-opacity:1;"/>
<path d="M514 162.486V162.922C513.457 162.922 513.076 163.004 512.859 163.168C512.644 163.332 512.537 163.606 512.537 163.991V165.116C512.537 165.439 512.493 165.719 512.405 165.956C512.32 166.193 512.18 166.388 511.985 166.543C511.79 166.698 511.53 166.812 511.205 166.887C510.88 166.962 510.478 167 510 167V166.311C510.377 166.311 510.673 166.268 510.888 166.181C511.106 166.096 511.259 165.966 511.346 165.791C511.437 165.615 511.483 165.39 511.483 165.116V163.709C511.483 163.527 511.515 163.36 511.58 163.21C511.649 163.06 511.772 162.931 511.951 162.823C512.13 162.716 512.384 162.632 512.712 162.574C513.044 162.515 513.473 162.486 514 162.486ZM510 158C510.478 158 510.88 158.038 511.205 158.113C511.53 158.188 511.79 158.302 511.985 158.457C512.18 158.612 512.32 158.807 512.405 159.044C512.493 159.281 512.537 159.561 512.537 159.884V161.009C512.537 161.394 512.644 161.668 512.859 161.832C513.076 161.996 513.457 162.078 514 162.078V162.514C513.473 162.514 513.044 162.485 512.712 162.426C512.384 162.368 512.13 162.284 511.951 162.177C511.772 162.069 511.649 161.94 511.58 161.79C511.515 161.64 511.483 161.473 511.483 161.291V159.884C511.483 159.61 511.437 159.385 511.346 159.209C511.259 159.031 511.106 158.9 510.888 158.816C510.673 158.731 510.377 158.689 510 158.689V158ZM514 162.078V162.922H512.849V162.078H514Z" fill="white" style="fill:white;fill-opacity:1;"/>
<path d="M451 168L450.209 171H449.633L450.321 168.381H450.293L449 168.867L449.102 168.498L450.423 168H451Z" fill="white" style="fill:white;fill-opacity:1;"/>
<path d="M471 171L471.042 170.74L472.092 169.671C472.215 169.545 472.318 169.436 472.4 169.342C472.482 169.249 472.546 169.161 472.592 169.079C472.639 168.998 472.669 168.911 472.683 168.821C472.699 168.717 472.691 168.627 472.658 168.551C472.626 168.474 472.574 168.416 472.504 168.374C472.433 168.333 472.349 168.312 472.25 168.312C472.147 168.312 472.052 168.336 471.967 168.383C471.882 168.429 471.811 168.495 471.754 168.579C471.698 168.663 471.661 168.761 471.644 168.873H471.332C471.359 168.699 471.419 168.547 471.513 168.416C471.608 168.285 471.725 168.183 471.863 168.11C472.002 168.037 472.15 168 472.308 168C472.467 168 472.601 168.037 472.711 168.11C472.821 168.183 472.9 168.282 472.95 168.406C472.999 168.53 473.012 168.669 472.989 168.821C472.972 168.931 472.937 169.037 472.885 169.14C472.833 169.243 472.753 169.358 472.646 169.486C472.54 169.612 472.396 169.766 472.214 169.948L471.501 170.659L471.496 170.682H472.752L472.704 171H471Z" fill="white" style="fill:white;fill-opacity:1;"/>
<path d="M508 168L507.481 171H507.114L505.819 168.645H505.788L505.379 171H505L505.519 168H505.886L507.187 170.361H507.218L507.627 168H508Z" fill="white" style="fill:white;fill-opacity:1;"/>
<path opacity="0.5" d="M33.8807 216V208.727H36.4233C36.9299 208.727 37.3478 208.815 37.6768 208.99C38.0059 209.163 38.2509 209.396 38.4119 209.69C38.5729 209.981 38.6534 210.304 38.6534 210.659C38.6534 210.972 38.5978 211.23 38.4865 211.433C38.3776 211.637 38.2332 211.798 38.0533 211.916C37.8757 212.035 37.6828 212.122 37.4744 212.179V212.25C37.697 212.264 37.9207 212.342 38.1456 212.484C38.3705 212.626 38.5587 212.83 38.7102 213.095C38.8617 213.36 38.9375 213.685 38.9375 214.068C38.9375 214.433 38.8546 214.761 38.6889 215.052C38.5232 215.343 38.2616 215.574 37.9041 215.744C37.5466 215.915 37.0814 216 36.5085 216H33.8807ZM34.7614 215.219H36.5085C37.0838 215.219 37.4922 215.107 37.7337 214.885C37.9775 214.66 38.0994 214.388 38.0994 214.068C38.0994 213.822 38.0367 213.595 37.9112 213.386C37.7857 213.176 37.607 213.008 37.375 212.882C37.143 212.754 36.8684 212.69 36.5511 212.69H34.7614V215.219ZM34.7614 211.923H36.3949C36.66 211.923 36.8991 211.871 37.1122 211.767C37.3277 211.663 37.4981 211.516 37.6236 211.327C37.7514 211.137 37.8153 210.915 37.8153 210.659C37.8153 210.339 37.7041 210.068 37.4815 209.846C37.259 209.621 36.9063 209.509 36.4233 209.509H34.7614V211.923ZM40.271 216V210.545H41.0806V211.369H41.1374C41.2369 211.099 41.4168 210.88 41.6772 210.712C41.9376 210.544 42.2312 210.46 42.5579 210.46C42.6194 210.46 42.6964 210.461 42.7887 210.464C42.881 210.466 42.9509 210.47 42.9982 210.474V211.327C42.9698 211.32 42.9047 211.309 42.8029 211.295C42.7035 211.278 42.5981 211.27 42.4869 211.27C42.2217 211.27 41.985 211.326 41.7766 211.437C41.5707 211.546 41.4073 211.697 41.2866 211.891C41.1682 212.083 41.109 212.302 41.109 212.548V216H40.271ZM45.5968 216.128C45.2511 216.128 44.9374 216.063 44.6557 215.933C44.374 215.8 44.1503 215.609 43.9846 215.361C43.8188 215.11 43.736 214.807 43.736 214.452C43.736 214.139 43.7975 213.886 43.9206 213.692C44.0437 213.495 44.2083 213.341 44.4142 213.23C44.6202 213.119 44.8475 213.036 45.0961 212.982C45.347 212.925 45.5991 212.88 45.8525 212.847C46.1839 212.804 46.4526 212.772 46.6586 212.751C46.8669 212.727 47.0184 212.688 47.1131 212.634C47.2102 212.579 47.2587 212.484 47.2587 212.349V212.321C47.2587 211.971 47.1628 211.698 46.9711 211.504C46.7817 211.31 46.494 211.213 46.1081 211.213C45.708 211.213 45.3944 211.301 45.1671 211.476C44.9398 211.651 44.78 211.838 44.6877 212.037L43.8922 211.753C44.0343 211.421 44.2237 211.163 44.4604 210.979C44.6995 210.792 44.9599 210.661 45.2417 210.588C45.5257 210.512 45.8051 210.474 46.0797 210.474C46.2549 210.474 46.4561 210.496 46.6834 210.538C46.9131 210.579 47.1344 210.663 47.3475 210.79C47.5629 210.918 47.7417 211.111 47.8837 211.369C48.0257 211.627 48.0968 211.973 48.0968 212.406V216H47.2587V215.261H47.2161C47.1593 215.38 47.0646 215.506 46.932 215.641C46.7994 215.776 46.623 215.891 46.4029 215.986C46.1827 216.08 45.914 216.128 45.5968 216.128ZM45.7246 215.375C46.056 215.375 46.3354 215.31 46.5627 215.18C46.7923 215.049 46.9651 214.881 47.0811 214.675C47.1995 214.469 47.2587 214.253 47.2587 214.026V213.259C47.2232 213.301 47.1451 213.34 47.0243 213.376C46.906 213.409 46.7686 213.438 46.6124 213.464C46.4585 213.488 46.3082 213.509 46.1614 213.528C46.017 213.545 45.8998 213.559 45.8098 213.571C45.592 213.599 45.3884 213.646 45.199 213.71C45.012 213.771 44.8605 213.865 44.7445 213.99C44.6309 214.113 44.574 214.281 44.574 214.494C44.574 214.786 44.6818 215.006 44.8972 215.155C45.115 215.302 45.3908 215.375 45.7246 215.375ZM50.4645 212.719V216H49.6264V210.545H50.4361V211.398H50.5071C50.6349 211.121 50.8291 210.898 51.0895 210.73C51.3499 210.56 51.6861 210.474 52.098 210.474C52.4673 210.474 52.7905 210.55 53.0675 210.702C53.3445 210.851 53.5599 211.078 53.7138 211.384C53.8677 211.687 53.9446 212.07 53.9446 212.534V216H53.1065V212.591C53.1065 212.162 52.9953 211.829 52.7727 211.589C52.5502 211.348 52.2448 211.227 51.8565 211.227C51.589 211.227 51.3499 211.285 51.1392 211.401C50.9309 211.517 50.7663 211.687 50.6456 211.909C50.5249 212.132 50.4645 212.402 50.4645 212.719ZM57.6919 216.114C57.1806 216.114 56.7402 215.993 56.3709 215.751C56.0016 215.51 55.7175 215.177 55.5186 214.754C55.3198 214.33 55.2203 213.846 55.2203 213.301C55.2203 212.747 55.3221 212.258 55.5257 211.835C55.7317 211.408 56.0182 211.076 56.3851 210.837C56.7544 210.595 57.1853 210.474 57.6777 210.474C58.0613 210.474 58.4069 210.545 58.7147 210.688C59.0224 210.83 59.2746 211.028 59.4711 211.284C59.6676 211.54 59.7895 211.838 59.8368 212.179H58.9988C58.9348 211.93 58.7928 211.71 58.5726 211.518C58.3548 211.324 58.0613 211.227 57.6919 211.227C57.3652 211.227 57.0788 211.312 56.8326 211.483C56.5887 211.651 56.3981 211.889 56.2608 212.197C56.1259 212.502 56.0584 212.861 56.0584 213.273C56.0584 213.694 56.1247 214.061 56.2573 214.374C56.3922 214.686 56.5816 214.929 56.8255 215.102C57.0717 215.274 57.3605 215.361 57.6919 215.361C57.9097 215.361 58.1074 215.323 58.285 215.247C58.4625 215.171 58.6129 215.062 58.736 214.92C58.8591 214.778 58.9467 214.608 58.9988 214.409H59.8368C59.7895 214.731 59.6723 215.021 59.4853 215.279C59.3006 215.535 59.0556 215.738 58.7502 215.89C58.4471 216.039 58.0944 216.114 57.6919 216.114ZM61.9 212.719V216H61.062V208.727H61.9V211.398H61.9711C62.0989 211.116 62.2907 210.892 62.5463 210.727C62.8044 210.558 63.1477 210.474 63.5762 210.474C63.9479 210.474 64.2734 210.549 64.5527 210.698C64.8321 210.845 65.0487 211.071 65.2026 211.376C65.3588 211.679 65.437 212.065 65.437 212.534V216H64.5989V212.591C64.5989 212.158 64.4864 211.823 64.2615 211.586C64.039 211.347 63.7301 211.227 63.3347 211.227C63.0601 211.227 62.8139 211.285 62.5961 211.401C62.3806 211.517 62.2102 211.687 62.0847 211.909C61.9616 212.132 61.9 212.402 61.9 212.719ZM75.7486 211H74.8679C74.8158 210.747 74.7247 210.524 74.5945 210.332C74.4666 210.141 74.3104 209.98 74.1257 209.849C73.9434 209.717 73.741 209.617 73.5185 209.551C73.2959 209.485 73.0639 209.452 72.8224 209.452C72.3821 209.452 71.9832 209.563 71.6257 209.786C71.2706 210.008 70.9877 210.336 70.777 210.769C70.5687 211.202 70.4645 211.734 70.4645 212.364C70.4645 212.993 70.5687 213.525 70.777 213.958C70.9877 214.391 71.2706 214.719 71.6257 214.942C71.9832 215.164 72.3821 215.276 72.8224 215.276C73.0639 215.276 73.2959 215.242 73.5185 215.176C73.741 215.11 73.9434 215.012 74.1257 214.881C74.3104 214.749 74.4666 214.587 74.5945 214.395C74.7247 214.201 74.8158 213.978 74.8679 213.727H75.7486C75.6823 214.099 75.5616 214.432 75.3864 214.725C75.2112 215.019 74.9934 215.268 74.733 215.474C74.4725 215.678 74.1802 215.833 73.8558 215.94C73.5339 216.046 73.1894 216.099 72.8224 216.099C72.2022 216.099 71.6506 215.948 71.1676 215.645C70.6847 215.342 70.3047 214.911 70.0277 214.352C69.7507 213.794 69.6122 213.131 69.6122 212.364C69.6122 211.597 69.7507 210.934 70.0277 210.375C70.3047 209.816 70.6847 209.385 71.1676 209.082C71.6506 208.779 72.2022 208.628 72.8224 208.628C73.1894 208.628 73.5339 208.681 73.8558 208.788C74.1802 208.894 74.4725 209.05 74.733 209.256C74.9934 209.46 75.2112 209.709 75.3864 210.002C75.5616 210.293 75.6823 210.626 75.7486 211ZM77.8961 212.719V216H77.0581V208.727H77.8961V211.398H77.9672C78.095 211.116 78.2868 210.892 78.5424 210.727C78.8005 210.558 79.1438 210.474 79.5723 210.474C79.944 210.474 80.2695 210.549 80.5488 210.698C80.8282 210.845 81.0448 211.071 81.1987 211.376C81.3549 211.679 81.4331 212.065 81.4331 212.534V216H80.595V212.591C80.595 212.158 80.4825 211.823 80.2576 211.586C80.0351 211.347 79.7261 211.227 79.3308 211.227C79.0562 211.227 78.81 211.285 78.5922 211.401C78.3767 211.517 78.2063 211.687 78.0808 211.909C77.9577 212.132 77.8961 212.402 77.8961 212.719ZM86.4038 213.77V210.545H87.2418V216H86.4038V215.077H86.3469C86.2191 215.354 86.0202 215.589 85.7504 215.783C85.4805 215.975 85.1396 216.071 84.7276 216.071C84.3867 216.071 84.0837 215.996 83.8185 215.847C83.5534 215.696 83.3451 215.469 83.1935 215.165C83.042 214.86 82.9663 214.475 82.9663 214.011V210.545H83.8043V213.955C83.8043 214.352 83.9156 214.67 84.1381 214.906C84.363 215.143 84.6495 215.261 84.9975 215.261C85.2058 215.261 85.4177 215.208 85.6332 215.102C85.851 214.995 86.0333 214.832 86.18 214.612C86.3292 214.391 86.4038 214.111 86.4038 213.77ZM90.9927 216.114C90.4814 216.114 90.041 215.993 89.6717 215.751C89.3024 215.51 89.0183 215.177 88.8194 214.754C88.6206 214.33 88.5211 213.846 88.5211 213.301C88.5211 212.747 88.6229 212.258 88.8265 211.835C89.0325 211.408 89.319 211.076 89.6859 210.837C90.0552 210.595 90.4861 210.474 90.9785 210.474C91.362 210.474 91.7077 210.545 92.0154 210.688C92.3232 210.83 92.5753 211.028 92.7718 211.284C92.9683 211.54 93.0903 211.838 93.1376 212.179H92.2995C92.2356 211.93 92.0936 211.71 91.8734 211.518C91.6556 211.324 91.362 211.227 90.9927 211.227C90.666 211.227 90.3796 211.312 90.1333 211.483C89.8895 211.651 89.6989 211.889 89.5616 212.197C89.4267 212.502 89.3592 212.861 89.3592 213.273C89.3592 213.694 89.4255 214.061 89.5581 214.374C89.693 214.686 89.8824 214.929 90.1262 215.102C90.3725 215.274 90.6613 215.361 90.9927 215.361C91.2105 215.361 91.4082 215.323 91.5858 215.247C91.7633 215.171 91.9136 215.062 92.0368 214.92C92.1599 214.778 92.2475 214.608 92.2995 214.409H93.1376C93.0903 214.731 92.9731 215.021 92.786 215.279C92.6014 215.535 92.3564 215.738 92.051 215.89C91.7479 216.039 91.3952 216.114 90.9927 216.114ZM95.144 214.011L95.1298 212.974H95.3002L97.6866 210.545H98.7235L96.1809 213.116H96.1099L95.144 214.011ZM94.3627 216V208.727H95.2008V216H94.3627ZM97.8287 216L95.698 213.301L96.2946 212.719L98.894 216H97.8287ZM103.666 211.767L102.913 211.98C102.866 211.855 102.796 211.733 102.703 211.614C102.614 211.494 102.49 211.394 102.334 211.316C102.178 211.238 101.978 211.199 101.734 211.199C101.4 211.199 101.122 211.276 100.9 211.43C100.679 211.581 100.569 211.774 100.569 212.009C100.569 212.217 100.645 212.381 100.797 212.502C100.948 212.623 101.185 212.723 101.507 212.804L102.316 213.003C102.804 213.121 103.167 213.302 103.407 213.546C103.646 213.788 103.765 214.099 103.765 214.48C103.765 214.793 103.675 215.072 103.495 215.318C103.318 215.564 103.069 215.759 102.75 215.901C102.43 216.043 102.058 216.114 101.635 216.114C101.078 216.114 100.618 215.993 100.253 215.751C99.8886 215.51 99.6578 215.157 99.5607 214.693L100.356 214.494C100.432 214.788 100.575 215.008 100.786 215.155C100.999 215.302 101.277 215.375 101.62 215.375C102.011 215.375 102.321 215.292 102.551 215.126C102.783 214.958 102.899 214.757 102.899 214.523C102.899 214.333 102.833 214.175 102.7 214.047C102.567 213.917 102.364 213.82 102.089 213.756L101.18 213.543C100.681 213.424 100.314 213.241 100.079 212.992C99.8472 212.741 99.7312 212.428 99.7312 212.051C99.7312 211.743 99.8176 211.471 99.9904 211.234C100.166 210.998 100.404 210.812 100.704 210.677C101.007 210.542 101.35 210.474 101.734 210.474C102.274 210.474 102.698 210.593 103.005 210.83C103.315 211.066 103.536 211.379 103.666 211.767Z" fill="white" style="fill:white;fill-opacity:1;"/>
<path opacity="0.5" d="M226.881 215V207.727H227.761V214.219H231.142V215H226.881ZM232.506 215V207.727H233.386V214.219H236.767V215H232.506ZM238.131 207.727H239.182L241.653 213.764H241.739L244.21 207.727H245.261V215H244.438V209.474H244.366L242.094 215H241.298L239.026 209.474H238.955V215H238.131V207.727ZM250.72 207.727V215H249.84V207.727H250.72ZM253.211 211.719V215H252.373V209.545H253.182V210.398H253.253C253.381 210.121 253.575 209.898 253.836 209.73C254.096 209.56 254.432 209.474 254.844 209.474C255.213 209.474 255.537 209.55 255.814 209.702C256.091 209.851 256.306 210.078 256.46 210.384C256.614 210.687 256.691 211.07 256.691 211.534V215H255.853V211.591C255.853 211.162 255.741 210.829 255.519 210.589C255.296 210.348 254.991 210.227 254.603 210.227C254.335 210.227 254.096 210.285 253.885 210.401C253.677 210.517 253.512 210.687 253.392 210.909C253.271 211.132 253.211 211.402 253.211 211.719ZM260.651 209.545V210.256H257.711V209.545H260.651ZM258.591 215V208.793C258.591 208.48 258.665 208.22 258.812 208.011C258.958 207.803 259.149 207.647 259.383 207.543C259.618 207.438 259.865 207.386 260.126 207.386C260.331 207.386 260.5 207.403 260.63 207.436C260.76 207.469 260.857 207.5 260.921 207.528L260.68 208.253C260.637 208.239 260.578 208.221 260.502 208.2C260.429 208.178 260.331 208.168 260.211 208.168C259.934 208.168 259.734 208.237 259.611 208.377C259.49 208.517 259.43 208.722 259.43 208.991V215H258.591ZM263.888 215.114C263.362 215.114 262.909 214.998 262.528 214.766C262.149 214.531 261.857 214.205 261.651 213.786C261.447 213.364 261.345 212.874 261.345 212.315C261.345 211.757 261.447 211.264 261.651 210.838C261.857 210.41 262.143 210.076 262.51 209.837C262.879 209.595 263.31 209.474 263.803 209.474C264.087 209.474 264.367 209.522 264.644 209.616C264.921 209.711 265.173 209.865 265.401 210.078C265.628 210.289 265.809 210.568 265.944 210.916C266.079 211.264 266.146 211.693 266.146 212.202V212.557H261.942V211.832H265.294C265.294 211.525 265.233 211.25 265.11 211.009C264.989 210.767 264.816 210.576 264.591 210.437C264.369 210.297 264.106 210.227 263.803 210.227C263.469 210.227 263.18 210.31 262.936 210.476C262.695 210.639 262.509 210.852 262.379 211.115C262.249 211.378 262.183 211.66 262.183 211.96V212.443C262.183 212.855 262.254 213.204 262.396 213.491C262.541 213.775 262.741 213.991 262.997 214.141C263.252 214.287 263.549 214.361 263.888 214.361C264.108 214.361 264.307 214.33 264.485 214.268C264.664 214.205 264.82 214.11 264.95 213.984C265.08 213.857 265.181 213.698 265.252 213.509L266.061 213.736C265.976 214.01 265.833 214.252 265.632 214.46C265.43 214.666 265.182 214.827 264.886 214.943C264.59 215.057 264.257 215.114 263.888 215.114ZM267.421 215V209.545H268.231V210.369H268.288C268.387 210.099 268.567 209.88 268.828 209.712C269.088 209.544 269.382 209.46 269.708 209.46C269.77 209.46 269.847 209.461 269.939 209.464C270.031 209.466 270.101 209.47 270.149 209.474V210.327C270.12 210.32 270.055 210.309 269.953 210.295C269.854 210.278 269.749 210.27 269.637 210.27C269.372 210.27 269.135 210.326 268.927 210.437C268.721 210.546 268.558 210.697 268.437 210.891C268.319 211.083 268.259 211.302 268.259 211.548V215H267.421ZM273.263 215.114C272.737 215.114 272.284 214.998 271.903 214.766C271.524 214.531 271.232 214.205 271.026 213.786C270.822 213.364 270.72 212.874 270.72 212.315C270.72 211.757 270.822 211.264 271.026 210.838C271.232 210.41 271.518 210.076 271.885 209.837C272.254 209.595 272.685 209.474 273.178 209.474C273.462 209.474 273.742 209.522 274.019 209.616C274.296 209.711 274.548 209.865 274.776 210.078C275.003 210.289 275.184 210.568 275.319 210.916C275.454 211.264 275.521 211.693 275.521 212.202V212.557H271.317V211.832H274.669C274.669 211.525 274.608 211.25 274.485 211.009C274.364 210.767 274.191 210.576 273.966 210.437C273.744 210.297 273.481 210.227 273.178 210.227C272.844 210.227 272.555 210.31 272.311 210.476C272.07 210.639 271.884 210.852 271.754 211.115C271.624 211.378 271.558 211.66 271.558 211.96V212.443C271.558 212.855 271.629 213.204 271.771 213.491C271.916 213.775 272.116 213.991 272.372 214.141C272.627 214.287 272.924 214.361 273.263 214.361C273.483 214.361 273.682 214.33 273.86 214.268C274.039 214.205 274.195 214.11 274.325 213.984C274.455 213.857 274.556 213.698 274.627 213.509L275.436 213.736C275.351 214.01 275.208 214.252 275.007 214.46C274.805 214.666 274.557 214.827 274.261 214.943C273.965 215.057 273.632 215.114 273.263 215.114ZM277.634 211.719V215H276.796V209.545H277.606V210.398H277.677C277.805 210.121 277.999 209.898 278.259 209.73C278.52 209.56 278.856 209.474 279.268 209.474C279.637 209.474 279.96 209.55 280.237 209.702C280.514 209.851 280.73 210.078 280.884 210.384C281.038 210.687 281.115 211.07 281.115 211.534V215H280.276V211.591C280.276 211.162 280.165 210.829 279.943 210.589C279.72 210.348 279.415 210.227 279.026 210.227C278.759 210.227 278.52 210.285 278.309 210.401C278.101 210.517 277.936 210.687 277.816 210.909C277.695 211.132 277.634 211.402 277.634 211.719ZM284.862 215.114C284.35 215.114 283.91 214.993 283.541 214.751C283.172 214.51 282.887 214.177 282.689 213.754C282.49 213.33 282.39 212.846 282.39 212.301C282.39 211.747 282.492 211.258 282.696 210.835C282.902 210.408 283.188 210.076 283.555 209.837C283.924 209.595 284.355 209.474 284.848 209.474C285.231 209.474 285.577 209.545 285.885 209.688C286.192 209.83 286.444 210.028 286.641 210.284C286.837 210.54 286.959 210.838 287.007 211.179H286.169C286.105 210.93 285.963 210.71 285.743 210.518C285.525 210.324 285.231 210.227 284.862 210.227C284.535 210.227 284.249 210.312 284.002 210.483C283.759 210.651 283.568 210.889 283.431 211.197C283.296 211.502 283.228 211.861 283.228 212.273C283.228 212.694 283.295 213.061 283.427 213.374C283.562 213.686 283.752 213.929 283.995 214.102C284.242 214.274 284.53 214.361 284.862 214.361C285.08 214.361 285.277 214.323 285.455 214.247C285.632 214.171 285.783 214.062 285.906 213.92C286.029 213.778 286.117 213.608 286.169 213.409H287.007C286.959 213.731 286.842 214.021 286.655 214.279C286.471 214.535 286.225 214.738 285.92 214.89C285.617 215.039 285.264 215.114 284.862 215.114ZM290.519 215.114C289.993 215.114 289.54 214.998 289.159 214.766C288.78 214.531 288.488 214.205 288.282 213.786C288.078 213.364 287.976 212.874 287.976 212.315C287.976 211.757 288.078 211.264 288.282 210.838C288.488 210.41 288.774 210.076 289.141 209.837C289.51 209.595 289.941 209.474 290.434 209.474C290.718 209.474 290.998 209.522 291.275 209.616C291.552 209.711 291.804 209.865 292.032 210.078C292.259 210.289 292.44 210.568 292.575 210.916C292.71 211.264 292.777 211.693 292.777 212.202V212.557H288.573V211.832H291.925C291.925 211.525 291.864 211.25 291.74 211.009C291.62 210.767 291.447 210.576 291.222 210.437C290.999 210.297 290.737 210.227 290.434 210.227C290.1 210.227 289.811 210.31 289.567 210.476C289.326 210.639 289.14 210.852 289.01 211.115C288.879 211.378 288.814 211.66 288.814 211.96V212.443C288.814 212.855 288.885 213.204 289.027 213.491C289.172 213.775 289.372 213.991 289.627 214.141C289.883 214.287 290.18 214.361 290.519 214.361C290.739 214.361 290.938 214.33 291.115 214.268C291.295 214.205 291.45 214.11 291.581 213.984C291.711 213.857 291.811 213.698 291.882 213.509L292.692 213.736C292.607 214.01 292.464 214.252 292.262 214.46C292.061 214.666 291.813 214.827 291.517 214.943C291.221 215.057 290.888 215.114 290.519 215.114Z" fill="white" style="fill:white;fill-opacity:1;"/>
<path opacity="0.5" d="M446.881 215V207.727H447.761V214.219H451.142V215H446.881ZM454.679 215.114C454.153 215.114 453.7 214.998 453.319 214.766C452.94 214.531 452.648 214.205 452.442 213.786C452.238 213.364 452.136 212.874 452.136 212.315C452.136 211.757 452.238 211.264 452.442 210.838C452.648 210.41 452.934 210.076 453.301 209.837C453.67 209.595 454.101 209.474 454.594 209.474C454.878 209.474 455.158 209.522 455.435 209.616C455.712 209.711 455.964 209.865 456.192 210.078C456.419 210.289 456.6 210.568 456.735 210.916C456.87 211.264 456.938 211.693 456.938 212.202V212.557H452.733V211.832H456.085C456.085 211.525 456.024 211.25 455.901 211.009C455.78 210.767 455.607 210.576 455.382 210.437C455.16 210.297 454.897 210.227 454.594 210.227C454.26 210.227 453.971 210.31 453.727 210.476C453.486 210.639 453.3 210.852 453.17 211.115C453.04 211.378 452.974 211.66 452.974 211.96V212.443C452.974 212.855 453.045 213.204 453.188 213.491C453.332 213.775 453.532 213.991 453.788 214.141C454.043 214.287 454.34 214.361 454.679 214.361C454.899 214.361 455.098 214.33 455.276 214.268C455.455 214.205 455.611 214.11 455.741 213.984C455.871 213.857 455.972 213.698 456.043 213.509L456.852 213.736C456.767 214.01 456.624 214.252 456.423 214.46C456.221 214.666 455.973 214.827 455.677 214.943C455.381 215.057 455.048 215.114 454.679 215.114ZM459.817 215.128C459.472 215.128 459.158 215.063 458.876 214.933C458.595 214.8 458.371 214.609 458.205 214.361C458.04 214.11 457.957 213.807 457.957 213.452C457.957 213.139 458.018 212.886 458.141 212.692C458.264 212.495 458.429 212.341 458.635 212.23C458.841 212.119 459.068 212.036 459.317 211.982C459.568 211.925 459.82 211.88 460.073 211.847C460.405 211.804 460.673 211.772 460.879 211.751C461.088 211.727 461.239 211.688 461.334 211.634C461.431 211.579 461.479 211.484 461.479 211.349V211.321C461.479 210.971 461.384 210.698 461.192 210.504C461.002 210.31 460.715 210.213 460.329 210.213C459.929 210.213 459.615 210.301 459.388 210.476C459.161 210.651 459.001 210.838 458.908 211.037L458.113 210.753C458.255 210.421 458.444 210.163 458.681 209.979C458.92 209.792 459.181 209.661 459.462 209.588C459.746 209.512 460.026 209.474 460.3 209.474C460.476 209.474 460.677 209.496 460.904 209.538C461.134 209.579 461.355 209.663 461.568 209.79C461.784 209.918 461.962 210.111 462.104 210.369C462.246 210.627 462.317 210.973 462.317 211.406V215H461.479V214.261H461.437C461.38 214.38 461.285 214.506 461.153 214.641C461.02 214.776 460.844 214.891 460.624 214.986C460.403 215.08 460.135 215.128 459.817 215.128ZM459.945 214.375C460.277 214.375 460.556 214.31 460.783 214.18C461.013 214.049 461.186 213.881 461.302 213.675C461.42 213.469 461.479 213.253 461.479 213.026V212.259C461.444 212.301 461.366 212.34 461.245 212.376C461.127 212.409 460.989 212.438 460.833 212.464C460.679 212.488 460.529 212.509 460.382 212.528C460.238 212.545 460.121 212.559 460.031 212.571C459.813 212.599 459.609 212.646 459.42 212.71C459.233 212.771 459.081 212.865 458.965 212.99C458.852 213.113 458.795 213.281 458.795 213.494C458.795 213.786 458.902 214.006 459.118 214.155C459.336 214.302 459.612 214.375 459.945 214.375ZM466.276 209.545V210.256H463.336V209.545H466.276ZM464.216 215V208.793C464.216 208.48 464.29 208.22 464.437 208.011C464.583 207.803 464.774 207.647 465.008 207.543C465.243 207.438 465.49 207.386 465.751 207.386C465.956 207.386 466.125 207.403 466.255 207.436C466.385 207.469 466.482 207.5 466.546 207.528L466.305 208.253C466.262 208.239 466.203 208.221 466.127 208.2C466.054 208.178 465.956 208.168 465.836 208.168C465.559 208.168 465.359 208.237 465.236 208.377C465.115 208.517 465.055 208.722 465.055 208.991V215H464.216ZM476.229 210H475.348C475.296 209.747 475.205 209.524 475.075 209.332C474.947 209.141 474.791 208.98 474.606 208.849C474.424 208.717 474.221 208.617 473.999 208.551C473.776 208.485 473.544 208.452 473.303 208.452C472.863 208.452 472.464 208.563 472.106 208.786C471.751 209.008 471.468 209.336 471.257 209.769C471.049 210.202 470.945 210.734 470.945 211.364C470.945 211.993 471.049 212.525 471.257 212.958C471.468 213.391 471.751 213.719 472.106 213.942C472.464 214.164 472.863 214.276 473.303 214.276C473.544 214.276 473.776 214.242 473.999 214.176C474.221 214.11 474.424 214.012 474.606 213.881C474.791 213.749 474.947 213.587 475.075 213.395C475.205 213.201 475.296 212.978 475.348 212.727H476.229C476.163 213.099 476.042 213.432 475.867 213.725C475.692 214.019 475.474 214.268 475.213 214.474C474.953 214.678 474.661 214.833 474.336 214.94C474.014 215.046 473.67 215.099 473.303 215.099C472.683 215.099 472.131 214.948 471.648 214.645C471.165 214.342 470.785 213.911 470.508 213.352C470.231 212.794 470.093 212.131 470.093 211.364C470.093 210.597 470.231 209.934 470.508 209.375C470.785 208.816 471.165 208.385 471.648 208.082C472.131 207.779 472.683 207.628 473.303 207.628C473.67 207.628 474.014 207.681 474.336 207.788C474.661 207.894 474.953 208.05 475.213 208.256C475.474 208.46 475.692 208.709 475.867 209.002C476.042 209.293 476.163 209.626 476.229 210ZM478.377 211.719V215H477.539V207.727H478.377V210.398H478.448C478.575 210.116 478.767 209.892 479.023 209.727C479.281 209.558 479.624 209.474 480.053 209.474C480.424 209.474 480.75 209.549 481.029 209.698C481.309 209.845 481.525 210.071 481.679 210.376C481.835 210.679 481.914 211.065 481.914 211.534V215H481.075V211.591C481.075 211.158 480.963 210.823 480.738 210.586C480.516 210.347 480.207 210.227 479.811 210.227C479.537 210.227 479.29 210.285 479.073 210.401C478.857 210.517 478.687 210.687 478.561 210.909C478.438 211.132 478.377 211.402 478.377 211.719ZM486.884 212.77V209.545H487.722V215H486.884V214.077H486.827C486.7 214.354 486.501 214.589 486.231 214.783C485.961 214.975 485.62 215.071 485.208 215.071C484.867 215.071 484.564 214.996 484.299 214.847C484.034 214.696 483.826 214.469 483.674 214.165C483.522 213.86 483.447 213.475 483.447 213.011V209.545H484.285V212.955C484.285 213.352 484.396 213.67 484.619 213.906C484.844 214.143 485.13 214.261 485.478 214.261C485.686 214.261 485.898 214.208 486.114 214.102C486.331 213.995 486.514 213.832 486.661 213.612C486.81 213.391 486.884 213.111 486.884 212.77ZM490.095 211.719V215H489.257V209.545H490.067V210.398H490.138C490.266 210.121 490.46 209.898 490.72 209.73C490.981 209.56 491.317 209.474 491.729 209.474C492.098 209.474 492.421 209.55 492.698 209.702C492.975 209.851 493.191 210.078 493.345 210.384C493.499 210.687 493.575 211.07 493.575 211.534V215H492.737V211.591C492.737 211.162 492.626 210.829 492.404 210.589C492.181 210.348 491.876 210.227 491.487 210.227C491.22 210.227 490.981 210.285 490.77 210.401C490.562 210.517 490.397 210.687 490.276 210.909C490.156 211.132 490.095 211.402 490.095 211.719ZM495.888 213.011L495.874 211.974H496.044L498.431 209.545H499.468L496.925 212.116H496.854L495.888 213.011ZM495.107 215V207.727H495.945V215H495.107ZM498.573 215L496.442 212.301L497.039 211.719L499.638 215H498.573ZM504.41 210.767L503.657 210.98C503.61 210.855 503.54 210.733 503.448 210.614C503.358 210.494 503.235 210.394 503.078 210.316C502.922 210.238 502.722 210.199 502.478 210.199C502.144 210.199 501.866 210.276 501.644 210.43C501.423 210.581 501.313 210.774 501.313 211.009C501.313 211.217 501.389 211.381 501.541 211.502C501.692 211.623 501.929 211.723 502.251 211.804L503.061 212.003C503.548 212.121 503.912 212.302 504.151 212.546C504.39 212.788 504.509 213.099 504.509 213.48C504.509 213.793 504.419 214.072 504.24 214.318C504.062 214.564 503.813 214.759 503.494 214.901C503.174 215.043 502.802 215.114 502.379 215.114C501.822 215.114 501.362 214.993 500.997 214.751C500.633 214.51 500.402 214.157 500.305 213.693L501.1 213.494C501.176 213.788 501.319 214.008 501.53 214.155C501.743 214.302 502.021 214.375 502.365 214.375C502.755 214.375 503.065 214.292 503.295 214.126C503.527 213.958 503.643 213.757 503.643 213.523C503.643 213.333 503.577 213.175 503.444 213.047C503.311 212.917 503.108 212.82 502.833 212.756L501.924 212.543C501.425 212.424 501.058 212.241 500.823 211.992C500.591 211.741 500.475 211.428 500.475 211.051C500.475 210.743 500.562 210.471 500.735 210.234C500.91 209.998 501.148 209.812 501.448 209.677C501.751 209.542 502.095 209.474 502.478 209.474C503.018 209.474 503.442 209.593 503.749 209.83C504.06 210.066 504.28 210.379 504.41 210.767Z" fill="white" style="fill:white;fill-opacity:1;"/>
<path d="M445.048 164.696V164.12H446.608L445.848 168.464C445.8 168.747 445.811 168.979 445.88 169.16C445.928 169.272 445.995 169.357 446.08 169.416C446.155 169.464 446.248 169.488 446.36 169.488C446.456 169.488 446.544 169.467 446.624 169.424C446.725 169.371 446.819 169.288 446.904 169.176C447 169.048 447.077 168.893 447.136 168.712L447.72 168.944C447.645 169.147 447.547 169.328 447.424 169.488C447.275 169.685 447.107 169.832 446.92 169.928C446.749 170.019 446.563 170.064 446.36 170.064C446.083 170.064 445.853 170.005 445.672 169.888C445.491 169.771 445.357 169.605 445.272 169.392C445.16 169.115 445.141 168.771 445.216 168.36L445.856 164.696H445.048Z" fill="white" style="fill:white;fill-opacity:1;"/>
<path d="M467.048 164.696V164.12H468.608L467.848 168.464C467.8 168.747 467.811 168.979 467.88 169.16C467.928 169.272 467.995 169.357 468.08 169.416C468.155 169.464 468.248 169.488 468.36 169.488C468.456 169.488 468.544 169.467 468.624 169.424C468.725 169.371 468.819 169.288 468.904 169.176C469 169.048 469.077 168.893 469.136 168.712L469.72 168.944C469.645 169.147 469.547 169.328 469.424 169.488C469.275 169.685 469.107 169.832 468.92 169.928C468.749 170.019 468.563 170.064 468.36 170.064C468.083 170.064 467.853 170.005 467.672 169.888C467.491 169.771 467.357 169.605 467.272 169.392C467.16 169.115 467.141 168.771 467.216 168.36L467.856 164.696H467.048Z" fill="white" style="fill:white;fill-opacity:1;"/>
<path d="M501.048 164.696V164.12H502.608L501.848 168.464C501.8 168.747 501.811 168.979 501.88 169.16C501.928 169.272 501.995 169.357 502.08 169.416C502.155 169.464 502.248 169.488 502.36 169.488C502.456 169.488 502.544 169.467 502.624 169.424C502.725 169.371 502.819 169.288 502.904 169.176C503 169.048 503.077 168.893 503.136 168.712L503.72 168.944C503.645 169.147 503.547 169.328 503.424 169.488C503.275 169.685 503.107 169.832 502.92 169.928C502.749 170.019 502.563 170.064 502.36 170.064C502.083 170.064 501.853 170.005 501.672 169.888C501.491 169.771 501.357 169.605 501.272 169.392C501.16 169.115 501.141 168.771 501.216 168.36L501.856 164.696H501.048Z" fill="white" style="fill:white;fill-opacity:1;"/>
<path d="M63.0795 122.432L64.0555 116.912C64.1622 116.293 64.3809 115.76 64.7115 115.312C65.0102 114.928 65.3729 114.619 65.7995 114.384C66.2902 114.128 66.8502 114 67.4795 114C68.2049 114 68.8129 114.155 69.3035 114.464C69.7409 114.741 70.0502 115.115 70.2315 115.584C70.3595 115.915 70.4129 116.256 70.3915 116.608L69.1275 116.768V116.752C69.1702 116.517 69.1435 116.283 69.0475 116.048C68.9409 115.781 68.7702 115.573 68.5355 115.424C68.2582 115.243 67.9062 115.152 67.4795 115.152C67.1062 115.152 66.7702 115.232 66.4715 115.392C66.1942 115.541 65.9595 115.739 65.7675 115.984C65.5329 116.293 65.3782 116.667 65.3035 117.104L64.3275 122.624C64.2422 123.125 64.2689 123.552 64.4075 123.904C64.5249 124.192 64.7169 124.421 64.9835 124.592C65.2609 124.773 65.6129 124.864 66.0395 124.864C66.4129 124.864 66.7595 124.784 67.0795 124.624C67.3889 124.464 67.6555 124.229 67.8795 123.92C68.0075 123.749 68.1195 123.563 68.2155 123.36L69.3995 123.776C69.2715 124.053 69.1169 124.315 68.9355 124.56C68.5835 125.019 68.1729 125.376 67.7035 125.632C67.2129 125.888 66.6582 126.016 66.0395 126.016C65.2715 126.016 64.6422 125.856 64.1515 125.536C63.7142 125.259 63.3995 124.88 63.2075 124.4C62.9835 123.856 62.9409 123.2 63.0795 122.432Z" fill="white" style="fill:white;fill-opacity:1;"/>
<path d="M70.268 128L71.429 121.385H72.878C73.232 121.385 73.529 121.46 73.769 121.61C73.985 121.748 74.144 121.946 74.246 122.204C74.372 122.51 74.396 122.873 74.318 123.293C74.264 123.599 74.159 123.851 74.003 124.049C73.823 124.289 73.589 124.469 73.301 124.589C73.355 124.613 73.409 124.643 73.463 124.679C73.703 124.835 73.877 125.045 73.985 125.309C74.099 125.591 74.123 125.924 74.057 126.308C73.997 126.656 73.871 126.956 73.679 127.208C73.505 127.442 73.289 127.625 73.031 127.757C72.719 127.919 72.365 128 71.969 128H70.268ZM71.105 127.352H71.969C72.227 127.352 72.455 127.298 72.653 127.19C72.827 127.1 72.971 126.977 73.085 126.821C73.217 126.647 73.304 126.437 73.346 126.191C73.394 125.903 73.379 125.654 73.301 125.444C73.229 125.27 73.118 125.135 72.968 125.039C72.806 124.931 72.599 124.88 72.347 124.886H71.546L71.105 127.352ZM71.654 124.238H72.545C72.875 124.238 73.142 124.1 73.346 123.824C73.472 123.656 73.559 123.446 73.607 123.194C73.655 122.906 73.64 122.666 73.562 122.474C73.502 122.33 73.415 122.222 73.301 122.15C73.187 122.072 73.046 122.033 72.878 122.033H72.041L71.654 124.238Z" fill="white" style="fill:white;fill-opacity:1;"/>
<path d="M75.696 128.336V127.76H77.424L76.928 130.56C76.8853 130.816 76.896 131.024 76.96 131.184C77.0027 131.291 77.064 131.368 77.144 131.416C77.2187 131.464 77.3093 131.488 77.416 131.488C77.5013 131.488 77.5813 131.469 77.656 131.432C77.7467 131.384 77.8347 131.307 77.92 131.2C78.0053 131.088 78.0747 130.955 78.128 130.8L78.704 131.04C78.6347 131.216 78.5467 131.373 78.44 131.512C78.3013 131.699 78.1413 131.84 77.96 131.936C77.7947 132.021 77.6133 132.064 77.416 132.064C77.144 132.064 76.92 132.005 76.744 131.888C76.568 131.776 76.4373 131.619 76.352 131.416C76.2453 131.155 76.2267 130.835 76.296 130.456L76.672 128.336H75.696ZM76.968 126.792C76.9253 126.717 76.904 126.627 76.904 126.52C76.904 126.413 76.9253 126.323 76.968 126.248C77.0053 126.179 77.0587 126.125 77.128 126.088C77.2027 126.04 77.2933 126.016 77.4 126.016C77.6027 126.016 77.7493 126.093 77.84 126.248C77.8827 126.323 77.904 126.413 77.904 126.52C77.904 126.627 77.8827 126.717 77.84 126.792C77.8027 126.861 77.7493 126.915 77.68 126.952C77.6 127 77.5067 127.024 77.4 127.024C77.1973 127.024 77.0533 126.947 76.968 126.792Z" fill="white" style="fill:white;fill-opacity:1;"/>
<path d="M438.384 164.408L439.116 160.268C439.196 159.804 439.36 159.404 439.608 159.068C439.832 158.78 440.104 158.548 440.424 158.372C440.792 158.18 441.212 158.084 441.684 158.084C442.228 158.084 442.684 158.2 443.052 158.432C443.38 158.64 443.612 158.92 443.748 159.272C443.844 159.52 443.884 159.776 443.868 160.04L442.92 160.16V160.148C442.952 159.972 442.932 159.796 442.86 159.62C442.78 159.42 442.652 159.264 442.476 159.152C442.268 159.016 442.004 158.948 441.684 158.948C441.404 158.948 441.152 159.008 440.928 159.128C440.72 159.24 440.544 159.388 440.4 159.572C440.224 159.804 440.108 160.084 440.052 160.412L439.32 164.552C439.256 164.928 439.276 165.248 439.38 165.512C439.468 165.728 439.612 165.9 439.812 166.028C440.02 166.164 440.284 166.232 440.604 166.232C440.884 166.232 441.144 166.172 441.384 166.052C441.616 165.932 441.816 165.756 441.984 165.524C442.08 165.396 442.164 165.256 442.236 165.104L443.124 165.416C443.028 165.624 442.912 165.82 442.776 166.004C442.512 166.348 442.204 166.616 441.852 166.808C441.484 167 441.068 167.096 440.604 167.096C440.028 167.096 439.556 166.976 439.188 166.736C438.86 166.528 438.624 166.244 438.48 165.884C438.312 165.476 438.28 164.984 438.384 164.408Z" fill="white" style="fill:white;fill-opacity:1;"/>
<path d="M460.384 164.408L461.116 160.268C461.196 159.804 461.36 159.404 461.608 159.068C461.832 158.78 462.104 158.548 462.424 158.372C462.792 158.18 463.212 158.084 463.684 158.084C464.228 158.084 464.684 158.2 465.052 158.432C465.38 158.64 465.612 158.92 465.748 159.272C465.844 159.52 465.884 159.776 465.868 160.04L464.92 160.16V160.148C464.952 159.972 464.932 159.796 464.86 159.62C464.78 159.42 464.652 159.264 464.476 159.152C464.268 159.016 464.004 158.948 463.684 158.948C463.404 158.948 463.152 159.008 462.928 159.128C462.72 159.24 462.544 159.388 462.4 159.572C462.224 159.804 462.108 160.084 462.052 160.412L461.32 164.552C461.256 164.928 461.276 165.248 461.38 165.512C461.468 165.728 461.612 165.9 461.812 166.028C462.02 166.164 462.284 166.232 462.604 166.232C462.884 166.232 463.144 166.172 463.384 166.052C463.616 165.932 463.816 165.756 463.984 165.524C464.08 165.396 464.164 165.256 464.236 165.104L465.124 165.416C465.028 165.624 464.912 165.82 464.776 166.004C464.512 166.348 464.204 166.616 463.852 166.808C463.484 167 463.068 167.096 462.604 167.096C462.028 167.096 461.556 166.976 461.188 166.736C460.86 166.528 460.624 166.244 460.48 165.884C460.312 165.476 460.28 164.984 460.384 164.408Z" fill="white" style="fill:white;fill-opacity:1;"/>
<path d="M494.384 164.408L495.116 160.268C495.196 159.804 495.36 159.404 495.608 159.068C495.832 158.78 496.104 158.548 496.424 158.372C496.792 158.18 497.212 158.084 497.684 158.084C498.228 158.084 498.684 158.2 499.052 158.432C499.38 158.64 499.612 158.92 499.748 159.272C499.844 159.52 499.884 159.776 499.868 160.04L498.92 160.16V160.148C498.952 159.972 498.932 159.796 498.86 159.62C498.78 159.42 498.652 159.264 498.476 159.152C498.268 159.016 498.004 158.948 497.684 158.948C497.404 158.948 497.152 159.008 496.928 159.128C496.72 159.24 496.544 159.388 496.4 159.572C496.224 159.804 496.108 160.084 496.052 160.412L495.32 164.552C495.256 164.928 495.276 165.248 495.38 165.512C495.468 165.728 495.612 165.9 495.812 166.028C496.02 166.164 496.284 166.232 496.604 166.232C496.884 166.232 497.144 166.172 497.384 166.052C497.616 165.932 497.816 165.756 497.984 165.524C498.08 165.396 498.164 165.256 498.236 165.104L499.124 165.416C499.028 165.624 498.912 165.82 498.776 166.004C498.512 166.348 498.204 166.616 497.852 166.808C497.484 167 497.068 167.096 496.604 167.096C496.028 167.096 495.556 166.976 495.188 166.736C494.86 166.528 494.624 166.244 494.48 165.884C494.312 165.476 494.28 164.984 494.384 164.408Z" fill="white" style="fill:white;fill-opacity:1;"/>
<g opacity="0.3">
<path d="M467.137 123.25H448.85C444.042 123.25 441.637 123.25 440.144 121.932C438.65 120.614 438.65 118.493 438.65 114.25V91.75C438.65 87.5074 438.65 85.386 440.144 84.068C441.637 82.75 444.042 82.75 448.85 82.75H474.35C479.158 82.75 481.562 82.75 483.056 84.068C484.55 85.386 484.55 87.5074 484.55 91.75V107.886C484.55 108.806 484.55 109.266 484.356 109.679C484.162 110.093 483.793 110.418 483.056 111.068L470.744 121.932C470.007 122.582 469.638 122.908 469.169 123.079C468.701 123.25 468.18 123.25 467.137 123.25Z" stroke="white" style="stroke:white;stroke-opacity:1;" stroke-width="2.04817"/>
<path d="M466.7 123.25V112.75C466.7 110.275 466.7 109.038 467.571 108.269C468.443 107.5 469.845 107.5 472.65 107.5H484.55" stroke="white" style="stroke:white;stroke-opacity:1;" stroke-width="2.04817"/>
</g>
<g opacity="0.6">
<path d="M477.338 132.25H459.05C454.242 132.25 451.838 132.25 450.344 130.932C448.85 129.614 448.85 127.493 448.85 123.25V100.75C448.85 96.5072 448.85 94.3859 450.344 93.0679C451.838 91.7498 454.242 91.7498 459.05 91.7498H484.55C489.358 91.7498 491.763 91.7498 493.256 93.0679C494.75 94.3859 494.75 96.5072 494.75 100.75V116.886C494.75 117.806 494.75 118.265 494.556 118.679C494.362 119.092 493.993 119.418 493.256 120.068L480.944 130.932C480.207 131.582 479.838 131.907 479.37 132.079C478.901 132.25 478.38 132.25 477.338 132.25Z" stroke="white" style="stroke:white;stroke-opacity:1;" stroke-width="2.04817"/>
<path d="M476.9 132.25V121.75C476.9 119.275 476.9 118.038 477.772 117.269C478.643 116.5 480.045 116.5 482.85 116.5H494.75" stroke="white" style="stroke:white;stroke-opacity:1;" stroke-width="2.04817"/>
</g>
<path d="M438.384 164.408L439.116 160.268C439.196 159.804 439.36 159.404 439.608 159.068C439.832 158.78 440.104 158.548 440.424 158.372C440.792 158.18 441.212 158.084 441.684 158.084C442.228 158.084 442.684 158.2 443.052 158.432C443.38 158.64 443.612 158.92 443.748 159.272C443.844 159.52 443.884 159.776 443.868 160.04L442.92 160.16V160.148C442.952 159.972 442.932 159.796 442.86 159.62C442.78 159.42 442.652 159.264 442.476 159.152C442.268 159.016 442.004 158.948 441.684 158.948C441.404 158.948 441.152 159.008 440.928 159.128C440.72 159.24 440.544 159.388 440.4 159.572C440.224 159.804 440.108 160.084 440.052 160.412L439.32 164.552C439.256 164.928 439.276 165.248 439.38 165.512C439.468 165.728 439.612 165.9 439.812 166.028C440.02 166.164 440.284 166.232 440.604 166.232C440.884 166.232 441.144 166.172 441.384 166.052C441.616 165.932 441.816 165.756 441.984 165.524C442.08 165.396 442.164 165.256 442.236 165.104L443.124 165.416C443.028 165.624 442.912 165.82 442.776 166.004C442.512 166.348 442.204 166.616 441.852 166.808C441.484 167 441.068 167.096 440.604 167.096C440.028 167.096 439.556 166.976 439.188 166.736C438.86 166.528 438.624 166.244 438.48 165.884C438.312 165.476 438.28 164.984 438.384 164.408Z" fill="white" style="fill:white;fill-opacity:1;"/>
<path d="M460.384 164.408L461.116 160.268C461.196 159.804 461.36 159.404 461.608 159.068C461.832 158.78 462.104 158.548 462.424 158.372C462.792 158.18 463.212 158.084 463.684 158.084C464.228 158.084 464.684 158.2 465.052 158.432C465.38 158.64 465.612 158.92 465.748 159.272C465.844 159.52 465.884 159.776 465.868 160.04L464.92 160.16V160.148C464.952 159.972 464.932 159.796 464.86 159.62C464.78 159.42 464.652 159.264 464.476 159.152C464.268 159.016 464.004 158.948 463.684 158.948C463.404 158.948 463.152 159.008 462.928 159.128C462.72 159.24 462.544 159.388 462.4 159.572C462.224 159.804 462.108 160.084 462.052 160.412L461.32 164.552C461.256 164.928 461.276 165.248 461.38 165.512C461.468 165.728 461.612 165.9 461.812 166.028C462.02 166.164 462.284 166.232 462.604 166.232C462.884 166.232 463.144 166.172 463.384 166.052C463.616 165.932 463.816 165.756 463.984 165.524C464.08 165.396 464.164 165.256 464.236 165.104L465.124 165.416C465.028 165.624 464.912 165.82 464.776 166.004C464.512 166.348 464.204 166.616 463.852 166.808C463.484 167 463.068 167.096 462.604 167.096C462.028 167.096 461.556 166.976 461.188 166.736C460.86 166.528 460.624 166.244 460.48 165.884C460.312 165.476 460.28 164.984 460.384 164.408Z" fill="white" style="fill:white;fill-opacity:1;"/>
<path d="M494.384 164.408L495.116 160.268C495.196 159.804 495.36 159.404 495.608 159.068C495.832 158.78 496.104 158.548 496.424 158.372C496.792 158.18 497.212 158.084 497.684 158.084C498.228 158.084 498.684 158.2 499.052 158.432C499.38 158.64 499.612 158.92 499.748 159.272C499.844 159.52 499.884 159.776 499.868 160.04L498.92 160.16V160.148C498.952 159.972 498.932 159.796 498.86 159.62C498.78 159.42 498.652 159.264 498.476 159.152C498.268 159.016 498.004 158.948 497.684 158.948C497.404 158.948 497.152 159.008 496.928 159.128C496.72 159.24 496.544 159.388 496.4 159.572C496.224 159.804 496.108 160.084 496.052 160.412L495.32 164.552C495.256 164.928 495.276 165.248 495.38 165.512C495.468 165.728 495.612 165.9 495.812 166.028C496.02 166.164 496.284 166.232 496.604 166.232C496.884 166.232 497.144 166.172 497.384 166.052C497.616 165.932 497.816 165.756 497.984 165.524C498.08 165.396 498.164 165.256 498.236 165.104L499.124 165.416C499.028 165.624 498.912 165.82 498.776 166.004C498.512 166.348 498.204 166.616 497.852 166.808C497.484 167 497.068 167.096 496.604 167.096C496.028 167.096 495.556 166.976 495.188 166.736C494.86 166.528 494.624 166.244 494.48 165.884C494.312 165.476 494.28 164.984 494.384 164.408Z" fill="white" style="fill:white;fill-opacity:1;"/>
<path d="M430 162.514V162.078C430.543 162.078 430.922 161.996 431.137 161.832C431.354 161.668 431.463 161.394 431.463 161.009V159.884C431.463 159.561 431.506 159.281 431.59 159.044C431.678 158.807 431.82 158.612 432.015 158.457C432.21 158.302 432.47 158.188 432.795 158.113C433.12 158.038 433.522 158 434 158V158.689C433.623 158.689 433.325 158.731 433.107 158.816C432.893 158.9 432.74 159.031 432.649 159.209C432.561 159.385 432.517 159.61 432.517 159.884V161.291C432.517 161.473 432.483 161.64 432.415 161.79C432.35 161.94 432.228 162.069 432.049 162.177C431.87 162.284 431.615 162.368 431.283 162.426C430.954 162.485 430.527 162.514 430 162.514ZM434 167C433.522 167 433.12 166.962 432.795 166.887C432.47 166.812 432.21 166.698 432.015 166.543C431.82 166.388 431.678 166.193 431.59 165.956C431.506 165.719 431.463 165.439 431.463 165.116V163.991C431.463 163.606 431.354 163.332 431.137 163.168C430.922 163.004 430.543 162.922 430 162.922V162.486C430.527 162.486 430.954 162.515 431.283 162.574C431.615 162.632 431.87 162.716 432.049 162.823C432.228 162.931 432.35 163.06 432.415 163.21C432.483 163.36 432.517 163.527 432.517 163.709V165.116C432.517 165.39 432.561 165.615 432.649 165.791C432.74 165.966 432.893 166.096 433.107 166.181C433.325 166.268 433.623 166.311 434 166.311V167ZM430 162.922V162.078H431.151V162.922H430Z" fill="white" style="fill:white;fill-opacity:1;"/>
<path d="M514 162.486V162.922C513.457 162.922 513.076 163.004 512.859 163.168C512.644 163.332 512.537 163.606 512.537 163.991V165.116C512.537 165.439 512.493 165.719 512.405 165.956C512.32 166.193 512.18 166.388 511.985 166.543C511.79 166.698 511.53 166.812 511.205 166.887C510.88 166.962 510.478 167 510 167V166.311C510.377 166.311 510.673 166.268 510.888 166.181C511.106 166.096 511.259 165.966 511.346 165.791C511.437 165.615 511.483 165.39 511.483 165.116V163.709C511.483 163.527 511.515 163.36 511.58 163.21C511.649 163.06 511.772 162.931 511.951 162.823C512.13 162.716 512.384 162.632 512.712 162.574C513.044 162.515 513.473 162.486 514 162.486ZM510 158C510.478 158 510.88 158.038 511.205 158.113C511.53 158.188 511.79 158.302 511.985 158.457C512.18 158.612 512.32 158.807 512.405 159.044C512.493 159.281 512.537 159.561 512.537 159.884V161.009C512.537 161.394 512.644 161.668 512.859 161.832C513.076 161.996 513.457 162.078 514 162.078V162.514C513.473 162.514 513.044 162.485 512.712 162.426C512.384 162.368 512.13 162.284 511.951 162.177C511.772 162.069 511.649 161.94 511.58 161.79C511.515 161.64 511.483 161.473 511.483 161.291V159.884C511.483 159.61 511.437 159.385 511.346 159.209C511.259 159.031 511.106 158.9 510.888 158.816C510.673 158.731 510.377 158.689 510 158.689V158ZM514 162.078V162.922H512.849V162.078H514Z" fill="white" style="fill:white;fill-opacity:1;"/>
<path d="M445.048 164.696V164.12H446.608L445.848 168.464C445.8 168.747 445.811 168.979 445.88 169.16C445.928 169.272 445.995 169.357 446.08 169.416C446.155 169.464 446.248 169.488 446.36 169.488C446.456 169.488 446.544 169.467 446.624 169.424C446.725 169.371 446.819 169.288 446.904 169.176C447 169.048 447.077 168.893 447.136 168.712L447.72 168.944C447.645 169.147 447.547 169.328 447.424 169.488C447.275 169.685 447.107 169.832 446.92 169.928C446.749 170.019 446.563 170.064 446.36 170.064C446.083 170.064 445.853 170.005 445.672 169.888C445.491 169.771 445.357 169.605 445.272 169.392C445.16 169.115 445.141 168.771 445.216 168.36L445.856 164.696H445.048Z" fill="white" style="fill:white;fill-opacity:1;"/>
<path d="M455 165L454.916 165.415C454.856 165.708 454.765 166.021 454.642 166.354C454.523 166.687 454.398 167.001 454.268 167.296C454.139 167.591 454.032 167.826 453.947 168H453C453.046 167.836 453.105 167.619 453.179 167.35C453.253 167.081 453.326 166.779 453.4 166.446C453.477 166.115 453.54 165.777 453.589 165.431L453.653 165H455Z" fill="white" style="fill:white;fill-opacity:1;"/>
<path d="M467.048 164.696V164.12H468.608L467.848 168.464C467.8 168.747 467.811 168.979 467.88 169.16C467.928 169.272 467.995 169.357 468.08 169.416C468.155 169.464 468.248 169.488 468.36 169.488C468.456 169.488 468.544 169.467 468.624 169.424C468.725 169.371 468.819 169.288 468.904 169.176C469 169.048 469.077 168.893 469.136 168.712L469.72 168.944C469.645 169.147 469.547 169.328 469.424 169.488C469.275 169.685 469.107 169.832 468.92 169.928C468.749 170.019 468.563 170.064 468.36 170.064C468.083 170.064 467.853 170.005 467.672 169.888C467.491 169.771 467.357 169.605 467.272 169.392C467.16 169.115 467.141 168.771 467.216 168.36L467.856 164.696H467.048Z" fill="white" style="fill:white;fill-opacity:1;"/>
<path d="M477 165L476.916 165.415C476.856 165.708 476.765 166.021 476.642 166.354C476.523 166.687 476.398 167.001 476.268 167.296C476.139 167.591 476.032 167.826 475.947 168H475C475.046 167.836 475.105 167.619 475.179 167.35C475.253 167.081 475.326 166.779 475.4 166.446C475.477 166.115 475.54 165.777 475.589 165.431L475.653 165H477Z" fill="white" style="fill:white;fill-opacity:1;"/>
<path d="M481.5 166C481.363 166 481.245 165.951 481.147 165.853C481.049 165.755 481 165.637 481 165.5C481 165.363 481.049 165.245 481.147 165.147C481.245 165.049 481.363 165 481.5 165C481.637 165 481.755 165.049 481.853 165.147C481.951 165.245 482 165.363 482 165.5C482 165.591 481.977 165.674 481.931 165.75C481.886 165.826 481.826 165.887 481.75 165.933C481.676 165.978 481.593 166 481.5 166Z" fill="white" style="fill:white;fill-opacity:1;"/>
<path d="M484.5 166C484.363 166 484.245 165.951 484.147 165.853C484.049 165.755 484 165.637 484 165.5C484 165.363 484.049 165.245 484.147 165.147C484.245 165.049 484.363 165 484.5 165C484.637 165 484.755 165.049 484.853 165.147C484.951 165.245 485 165.363 485 165.5C485 165.591 484.977 165.674 484.931 165.75C484.886 165.826 484.826 165.887 484.75 165.933C484.676 165.978 484.593 166 484.5 166Z" fill="white" style="fill:white;fill-opacity:1;"/>
<path d="M487.5 166C487.363 166 487.245 165.951 487.147 165.853C487.049 165.755 487 165.637 487 165.5C487 165.363 487.049 165.245 487.147 165.147C487.245 165.049 487.363 165 487.5 165C487.637 165 487.755 165.049 487.853 165.147C487.951 165.245 488 165.363 488 165.5C488 165.591 487.977 165.674 487.931 165.75C487.886 165.826 487.826 165.887 487.75 165.933C487.676 165.978 487.593 166 487.5 166Z" fill="white" style="fill:white;fill-opacity:1;"/>
<path d="M501.048 164.696V164.12H502.608L501.848 168.464C501.8 168.747 501.811 168.979 501.88 169.16C501.928 169.272 501.995 169.357 502.08 169.416C502.155 169.464 502.248 169.488 502.36 169.488C502.456 169.488 502.544 169.467 502.624 169.424C502.725 169.371 502.819 169.288 502.904 169.176C503 169.048 503.077 168.893 503.136 168.712L503.72 168.944C503.645 169.147 503.547 169.328 503.424 169.488C503.275 169.685 503.107 169.832 502.92 169.928C502.749 170.019 502.563 170.064 502.36 170.064C502.083 170.064 501.853 170.005 501.672 169.888C501.491 169.771 501.357 169.605 501.272 169.392C501.16 169.115 501.141 168.771 501.216 168.36L501.856 164.696H501.048Z" fill="white" style="fill:white;fill-opacity:1;"/>
<path d="M451 168L450.209 171H449.633L450.321 168.381H450.293L449 168.867L449.102 168.498L450.423 168H451Z" fill="white" style="fill:white;fill-opacity:1;"/>
<path d="M471 171L471.042 170.74L472.092 169.671C472.215 169.545 472.318 169.436 472.4 169.342C472.482 169.249 472.546 169.161 472.592 169.079C472.639 168.998 472.669 168.911 472.683 168.821C472.699 168.717 472.691 168.627 472.658 168.551C472.626 168.474 472.574 168.416 472.504 168.374C472.433 168.333 472.349 168.312 472.25 168.312C472.147 168.312 472.052 168.336 471.967 168.383C471.882 168.429 471.811 168.495 471.754 168.579C471.698 168.663 471.661 168.761 471.644 168.873H471.332C471.359 168.699 471.419 168.547 471.513 168.416C471.608 168.285 471.725 168.183 471.863 168.11C472.002 168.037 472.15 168 472.308 168C472.467 168 472.601 168.037 472.711 168.11C472.821 168.183 472.9 168.282 472.95 168.406C472.999 168.53 473.012 168.669 472.989 168.821C472.972 168.931 472.937 169.037 472.885 169.14C472.833 169.243 472.753 169.358 472.646 169.486C472.54 169.612 472.396 169.766 472.214 169.948L471.501 170.659L471.496 170.682H472.752L472.704 171H471Z" fill="white" style="fill:white;fill-opacity:1;"/>
<path d="M508 168L507.481 171H507.114L505.819 168.645H505.788L505.379 171H505L505.519 168H505.886L507.187 170.361H507.218L507.627 168H508Z" fill="white" style="fill:white;fill-opacity:1;"/>
</svg>
