<svg width="376" height="268" viewBox="0 0 376 268" fill="none" xmlns="http://www.w3.org/2000/svg">
<path d="M164.8 11.7007C164.8 9.62407 164.8 8.58573 165.204 7.79255C165.56 7.09484 166.127 6.52759 166.825 6.17209C167.618 5.76794 168.656 5.76794 170.733 5.76794H175.527C176.433 5.76794 176.887 5.76794 177.314 5.8704C177.692 5.96123 178.054 6.11105 178.386 6.31435C178.76 6.54366 179.08 6.86432 179.722 7.50562L184.486 12.2703C185.128 12.9116 185.448 13.2322 185.678 13.6064C185.881 13.9382 186.031 14.2999 186.122 14.6782C186.224 15.105 186.224 15.5584 186.224 16.4654V27.8511C186.224 29.9278 186.224 30.9662 185.82 31.7593C185.464 32.457 184.897 33.0243 184.199 33.3798C183.406 33.7839 182.368 33.7839 180.291 33.7839H170.733C168.656 33.7839 167.618 33.7839 166.825 33.3798C166.127 33.0243 165.56 32.457 165.204 31.7593C164.8 30.9662 164.8 29.9278 164.8 27.8511V11.7007Z" stroke="#F2F2F7" stroke-width="2.472"/>
<path d="M176.336 5.76794V9.72315C176.336 11.7998 176.336 12.8382 176.74 13.6313C177.096 14.329 177.663 14.8963 178.361 15.2518C179.154 15.6559 180.192 15.6559 182.269 15.6559H186.224" stroke="#F2F2F7" stroke-width="2.472"/>
<path d="M196.745 25.8881H195.604L198.905 16.899H200.028L203.329 25.8881H202.188L199.502 18.3211H199.431L196.745 25.8881ZM197.167 22.3767H201.766V23.3423H197.167V22.3767ZM204.589 25.8881V19.1462H205.589V20.1645H205.66C205.783 19.831 206.005 19.5603 206.327 19.3525C206.649 19.1448 207.012 19.0409 207.415 19.0409C207.491 19.0409 207.587 19.0424 207.701 19.0453C207.815 19.0482 207.901 19.0526 207.96 19.0585V20.1119C207.925 20.1031 207.844 20.0899 207.718 20.0724C207.595 20.0519 207.465 20.0416 207.328 20.0416C207 20.0416 206.707 20.1104 206.45 20.2479C206.195 20.3825 205.993 20.5698 205.844 20.8098C205.698 21.0468 205.625 21.3174 205.625 21.6218V25.8881H204.589ZM212.542 19.1462V20.0241H209.048V19.1462H212.542ZM210.066 17.531H211.102V23.9568C211.102 24.2494 211.145 24.4689 211.23 24.6152C211.317 24.7586 211.429 24.8551 211.563 24.9049C211.701 24.9517 211.846 24.9751 211.998 24.9751C212.112 24.9751 212.205 24.9693 212.279 24.9576C212.352 24.9429 212.41 24.9312 212.454 24.9224L212.665 25.8529C212.595 25.8793 212.497 25.9056 212.371 25.932C212.245 25.9612 212.086 25.9758 211.892 25.9758C211.6 25.9758 211.313 25.9129 211.032 25.7871C210.754 25.6613 210.523 25.4696 210.339 25.2121C210.157 24.9546 210.066 24.6298 210.066 24.2377V17.531ZM214.1 25.8881V19.1462H215.136V25.8881H214.1ZM214.627 18.0226C214.425 18.0226 214.251 17.9538 214.105 17.8163C213.961 17.6788 213.889 17.5135 213.889 17.3203C213.889 17.1272 213.961 16.9619 214.105 16.8244C214.251 16.6868 214.425 16.6181 214.627 16.6181C214.829 16.6181 215.001 16.6868 215.145 16.8244C215.291 16.9619 215.364 17.1272 215.364 17.3203C215.364 17.5135 215.291 17.6788 215.145 17.8163C215.001 17.9538 214.829 18.0226 214.627 18.0226ZM220.035 19.1462V20.0241H216.401V19.1462H220.035ZM217.49 25.8881V18.2157C217.49 17.8295 217.58 17.5076 217.762 17.2501C217.943 16.9926 218.179 16.7995 218.469 16.6707C218.758 16.542 219.064 16.4776 219.386 16.4776C219.64 16.4776 219.848 16.4981 220.009 16.5391C220.17 16.58 220.29 16.6181 220.369 16.6532L220.071 17.5486C220.018 17.531 219.945 17.5091 219.851 17.4827C219.76 17.4564 219.64 17.4432 219.491 17.4432C219.149 17.4432 218.902 17.5296 218.749 17.7022C218.6 17.8748 218.526 18.1279 218.526 18.4615V25.8881H217.49ZM223.278 26.0461C222.851 26.0461 222.463 25.9656 222.115 25.8047C221.767 25.6408 221.49 25.4052 221.285 25.098C221.08 24.7878 220.978 24.4133 220.978 23.9744C220.978 23.5881 221.054 23.275 221.206 23.0351C221.358 22.7922 221.562 22.602 221.816 22.4645C222.071 22.327 222.352 22.2245 222.659 22.1572C222.969 22.087 223.281 22.0314 223.594 21.9904C224.004 21.9378 224.336 21.8983 224.59 21.8719C224.848 21.8427 225.035 21.7944 225.152 21.7271C225.272 21.6598 225.332 21.5427 225.332 21.376V21.3408C225.332 20.9078 225.214 20.5713 224.977 20.3313C224.743 20.0914 224.387 19.9714 223.91 19.9714C223.416 19.9714 223.028 20.0797 222.747 20.2962C222.466 20.5127 222.268 20.7439 222.154 20.9897L221.171 20.6386C221.347 20.2289 221.581 19.91 221.873 19.6817C222.169 19.4506 222.491 19.2896 222.839 19.1989C223.19 19.1053 223.535 19.0585 223.875 19.0585C224.091 19.0585 224.34 19.0848 224.621 19.1375C224.905 19.1872 225.179 19.2911 225.442 19.4491C225.708 19.6071 225.929 19.8456 226.105 20.1645C226.28 20.4835 226.368 20.9107 226.368 21.4462V25.8881H225.332V24.9751H225.279C225.209 25.1214 225.092 25.278 224.928 25.4448C224.764 25.6115 224.546 25.7535 224.274 25.8705C224.002 25.9876 223.67 26.0461 223.278 26.0461ZM223.436 25.1156C223.846 25.1156 224.191 25.0351 224.472 24.8742C224.756 24.7132 224.969 24.5055 225.113 24.2509C225.259 23.9963 225.332 23.7286 225.332 23.4477V22.4996C225.288 22.5523 225.192 22.6005 225.042 22.6444C224.896 22.6854 224.726 22.722 224.533 22.7542C224.343 22.7834 224.157 22.8098 223.976 22.8332C223.797 22.8537 223.653 22.8712 223.541 22.8858C223.272 22.921 223.02 22.978 222.786 23.057C222.555 23.1331 222.368 23.2487 222.225 23.4038C222.084 23.5559 222.014 23.7637 222.014 24.027C222.014 24.387 222.147 24.6591 222.413 24.8434C222.683 25.0249 223.023 25.1156 223.436 25.1156ZM230.997 26.0285C230.365 26.0285 229.821 25.8793 229.365 25.5808C228.908 25.2824 228.557 24.8712 228.311 24.3475C228.066 23.8237 227.943 23.2253 227.943 22.5523C227.943 21.8676 228.068 21.2633 228.32 20.7395C228.575 20.2128 228.929 19.8017 229.382 19.5062C229.839 19.2077 230.371 19.0585 230.98 19.0585C231.454 19.0585 231.881 19.1462 232.262 19.3218C232.642 19.4974 232.954 19.7432 233.196 20.0592C233.439 20.3752 233.59 20.7439 233.649 21.1653H232.613C232.534 20.858 232.358 20.5859 232.086 20.3489C231.817 20.1089 231.454 19.989 230.997 19.989C230.594 19.989 230.24 20.0943 229.935 20.305C229.634 20.5127 229.398 20.8068 229.229 21.1872C229.062 21.5647 228.978 22.008 228.978 22.5172C228.978 23.038 229.06 23.4916 229.224 23.8778C229.391 24.2641 229.625 24.564 229.927 24.7776C230.231 24.9912 230.588 25.098 230.997 25.098C231.267 25.098 231.511 25.0512 231.73 24.9576C231.95 24.8639 232.136 24.7293 232.288 24.5537C232.44 24.3782 232.548 24.1675 232.613 23.9217H233.649C233.59 24.3197 233.445 24.6781 233.214 24.9971C232.986 25.3131 232.683 25.5647 232.305 25.752C231.931 25.9363 231.495 26.0285 230.997 26.0285ZM238.095 19.1462V20.0241H234.601V19.1462H238.095ZM235.619 17.531H236.655V23.9568C236.655 24.2494 236.698 24.4689 236.782 24.6152C236.87 24.7586 236.981 24.8551 237.116 24.9049C237.254 24.9517 237.398 24.9751 237.551 24.9751C237.665 24.9751 237.758 24.9693 237.831 24.9576C237.905 24.9429 237.963 24.9312 238.007 24.9224L238.218 25.8529C238.148 25.8793 238.049 25.9056 237.924 25.932C237.798 25.9612 237.638 25.9758 237.445 25.9758C237.153 25.9758 236.866 25.9129 236.585 25.7871C236.307 25.6613 236.076 25.4696 235.891 25.2121C235.71 24.9546 235.619 24.6298 235.619 24.2377V17.531Z" fill="white"/>
<path d="M152.15 149V140.011H155.293C155.919 140.011 156.435 140.119 156.842 140.336C157.249 140.549 157.552 140.838 157.751 141.2C157.95 141.56 158.049 141.96 158.049 142.399C158.049 142.785 157.98 143.104 157.843 143.355C157.708 143.607 157.53 143.806 157.307 143.952C157.088 144.099 156.849 144.207 156.592 144.277V144.365C156.867 144.383 157.143 144.479 157.421 144.655C157.699 144.83 157.932 145.082 158.119 145.41C158.307 145.737 158.4 146.138 158.4 146.612C158.4 147.063 158.298 147.468 158.093 147.828C157.888 148.188 157.565 148.473 157.123 148.684C156.681 148.895 156.106 149 155.398 149H152.15ZM153.239 148.034H155.398C156.109 148.034 156.614 147.897 156.912 147.622C157.214 147.344 157.364 147.007 157.364 146.612C157.364 146.308 157.287 146.027 157.132 145.77C156.977 145.509 156.756 145.301 156.469 145.146C156.182 144.988 155.843 144.909 155.451 144.909H153.239V148.034ZM153.239 143.961H155.258C155.585 143.961 155.881 143.897 156.144 143.768C156.41 143.639 156.621 143.458 156.776 143.224C156.934 142.99 157.013 142.715 157.013 142.399C157.013 142.004 156.876 141.669 156.601 141.394C156.326 141.116 155.89 140.977 155.293 140.977H153.239V143.961ZM160.048 149V142.258H161.049V143.276H161.119C161.242 142.943 161.465 142.672 161.787 142.464C162.108 142.257 162.471 142.153 162.875 142.153C162.951 142.153 163.046 142.154 163.16 142.157C163.274 142.16 163.361 142.165 163.419 142.17V143.224C163.384 143.215 163.304 143.202 163.178 143.184C163.055 143.164 162.925 143.154 162.787 143.154C162.46 143.154 162.167 143.222 161.909 143.36C161.655 143.494 161.453 143.682 161.304 143.922C161.157 144.159 161.084 144.429 161.084 144.734V149H160.048ZM166.631 149.158C166.204 149.158 165.816 149.078 165.468 148.917C165.12 148.753 164.843 148.517 164.638 148.21C164.434 147.9 164.331 147.525 164.331 147.086C164.331 146.7 164.407 146.387 164.559 146.147C164.712 145.904 164.915 145.714 165.169 145.576C165.424 145.439 165.705 145.336 166.012 145.269C166.322 145.199 166.634 145.143 166.947 145.102C167.357 145.05 167.689 145.01 167.943 144.984C168.201 144.955 168.388 144.906 168.505 144.839C168.625 144.772 168.685 144.655 168.685 144.488V144.453C168.685 144.02 168.567 143.683 168.33 143.443C168.096 143.203 167.74 143.083 167.263 143.083C166.769 143.083 166.381 143.192 166.1 143.408C165.819 143.625 165.622 143.856 165.507 144.102L164.524 143.751C164.7 143.341 164.934 143.022 165.227 142.794C165.522 142.563 165.844 142.402 166.192 142.311C166.543 142.217 166.889 142.17 167.228 142.17C167.445 142.17 167.693 142.197 167.974 142.249C168.258 142.299 168.532 142.403 168.795 142.561C169.061 142.719 169.282 142.958 169.458 143.276C169.633 143.595 169.721 144.023 169.721 144.558V149H168.685V148.087H168.633C168.562 148.233 168.445 148.39 168.281 148.557C168.118 148.723 167.9 148.865 167.627 148.982C167.355 149.099 167.023 149.158 166.631 149.158ZM166.789 148.228C167.199 148.228 167.544 148.147 167.825 147.986C168.109 147.825 168.322 147.617 168.466 147.363C168.612 147.108 168.685 146.841 168.685 146.56V145.612C168.641 145.664 168.545 145.712 168.396 145.756C168.249 145.797 168.08 145.834 167.886 145.866C167.696 145.895 167.51 145.922 167.329 145.945C167.15 145.966 167.006 145.983 166.894 145.998C166.625 146.033 166.374 146.09 166.14 146.169C165.908 146.245 165.721 146.361 165.578 146.516C165.437 146.668 165.367 146.876 165.367 147.139C165.367 147.499 165.5 147.771 165.766 147.955C166.036 148.137 166.377 148.228 166.789 148.228ZM172.648 144.944V149H171.612V142.258H172.612V143.312H172.7C172.858 142.969 173.098 142.694 173.42 142.486C173.742 142.276 174.157 142.17 174.667 142.17C175.123 142.17 175.523 142.264 175.865 142.451C176.207 142.636 176.474 142.917 176.664 143.294C176.854 143.669 176.949 144.143 176.949 144.716V149H175.913V144.786C175.913 144.257 175.776 143.844 175.501 143.549C175.226 143.25 174.848 143.101 174.368 143.101C174.038 143.101 173.742 143.173 173.482 143.316C173.224 143.459 173.021 143.669 172.871 143.944C172.722 144.219 172.648 144.552 172.648 144.944ZM181.581 149.14C180.949 149.14 180.404 148.991 179.948 148.693C179.491 148.394 179.14 147.983 178.895 147.459C178.649 146.936 178.526 146.337 178.526 145.664C178.526 144.979 178.652 144.375 178.903 143.851C179.158 143.325 179.512 142.914 179.966 142.618C180.422 142.32 180.955 142.17 181.563 142.17C182.037 142.17 182.464 142.258 182.845 142.434C183.225 142.609 183.537 142.855 183.78 143.171C184.023 143.487 184.173 143.856 184.232 144.277H183.196C183.117 143.97 182.941 143.698 182.669 143.461C182.4 143.221 182.037 143.101 181.581 143.101C181.177 143.101 180.823 143.206 180.519 143.417C180.217 143.625 179.982 143.919 179.812 144.299C179.645 144.677 179.562 145.12 179.562 145.629C179.562 146.15 179.644 146.603 179.807 146.99C179.974 147.376 180.208 147.676 180.51 147.89C180.814 148.103 181.171 148.21 181.581 148.21C181.85 148.21 182.094 148.163 182.314 148.069C182.533 147.976 182.719 147.841 182.871 147.666C183.023 147.49 183.132 147.279 183.196 147.034H184.232C184.173 147.432 184.028 147.79 183.797 148.109C183.569 148.425 183.266 148.677 182.889 148.864C182.514 149.048 182.078 149.14 181.581 149.14ZM186.782 144.944V149H185.746V140.011H186.782V143.312H186.87C187.028 142.963 187.265 142.687 187.581 142.482C187.9 142.274 188.324 142.17 188.854 142.17C189.313 142.17 189.715 142.263 190.061 142.447C190.406 142.628 190.674 142.908 190.864 143.285C191.057 143.66 191.154 144.137 191.154 144.716V149H190.118V144.786C190.118 144.251 189.979 143.837 189.701 143.544C189.426 143.249 189.044 143.101 188.555 143.101C188.216 143.101 187.911 143.173 187.642 143.316C187.376 143.459 187.165 143.669 187.01 143.944C186.858 144.219 186.782 144.552 186.782 144.944ZM195.875 149.14C195.226 149.14 194.665 148.997 194.194 148.71C193.726 148.421 193.365 148.017 193.11 147.499C192.858 146.978 192.733 146.372 192.733 145.682C192.733 144.991 192.858 144.383 193.11 143.856C193.365 143.326 193.719 142.914 194.172 142.618C194.629 142.32 195.161 142.17 195.77 142.17C196.121 142.17 196.468 142.229 196.81 142.346C197.153 142.463 197.464 142.653 197.745 142.917C198.026 143.177 198.25 143.522 198.417 143.952C198.583 144.383 198.667 144.912 198.667 145.541V145.98H193.47V145.085H197.613C197.613 144.704 197.537 144.365 197.385 144.067C197.236 143.768 197.022 143.533 196.744 143.36C196.469 143.187 196.144 143.101 195.77 143.101C195.357 143.101 195 143.203 194.699 143.408C194.4 143.61 194.171 143.873 194.01 144.198C193.849 144.523 193.768 144.871 193.768 145.243V145.84C193.768 146.349 193.856 146.781 194.032 147.135C194.21 147.486 194.458 147.753 194.774 147.938C195.09 148.119 195.457 148.21 195.875 148.21C196.147 148.21 196.393 148.172 196.613 148.096C196.835 148.017 197.027 147.9 197.188 147.745C197.349 147.587 197.473 147.391 197.561 147.157L198.561 147.437C198.456 147.777 198.279 148.075 198.03 148.333C197.782 148.587 197.474 148.786 197.109 148.93C196.743 149.07 196.332 149.14 195.875 149.14ZM205.018 143.768L204.087 144.031C204.029 143.876 203.943 143.726 203.829 143.579C203.717 143.43 203.565 143.307 203.372 143.211C203.179 143.114 202.932 143.066 202.63 143.066C202.218 143.066 201.874 143.161 201.599 143.351C201.327 143.538 201.191 143.777 201.191 144.067C201.191 144.324 201.284 144.527 201.472 144.677C201.659 144.826 201.951 144.95 202.349 145.05L203.35 145.296C203.953 145.442 204.402 145.666 204.698 145.967C204.993 146.266 205.141 146.65 205.141 147.121C205.141 147.508 205.03 147.853 204.807 148.157C204.588 148.462 204.281 148.702 203.886 148.877C203.491 149.053 203.031 149.14 202.507 149.14C201.82 149.14 201.251 148.991 200.8 148.693C200.349 148.394 200.064 147.958 199.944 147.385L200.927 147.139C201.021 147.502 201.198 147.774 201.458 147.955C201.722 148.137 202.066 148.228 202.49 148.228C202.973 148.228 203.356 148.125 203.64 147.92C203.927 147.713 204.07 147.464 204.07 147.174C204.07 146.94 203.988 146.744 203.824 146.586C203.66 146.425 203.409 146.305 203.069 146.226L201.946 145.963C201.328 145.816 200.875 145.59 200.585 145.282C200.298 144.972 200.155 144.584 200.155 144.119C200.155 143.739 200.262 143.402 200.475 143.11C200.692 142.817 200.986 142.587 201.357 142.421C201.732 142.254 202.156 142.17 202.63 142.17C203.297 142.17 203.821 142.317 204.202 142.609C204.585 142.902 204.857 143.288 205.018 143.768Z" fill="white"/>
<path d="M158.261 267V258.011H159.349V266.034H163.528V267H158.261ZM167.899 267.14C167.25 267.14 166.689 266.997 166.218 266.71C165.75 266.421 165.389 266.017 165.134 265.499C164.883 264.978 164.757 264.372 164.757 263.682C164.757 262.991 164.883 262.383 165.134 261.856C165.389 261.326 165.743 260.914 166.196 260.618C166.653 260.32 167.185 260.17 167.794 260.17C168.145 260.17 168.492 260.229 168.834 260.346C169.177 260.463 169.488 260.653 169.769 260.917C170.05 261.177 170.274 261.522 170.441 261.952C170.608 262.383 170.691 262.912 170.691 263.541V263.98H165.494V263.085H169.638C169.638 262.704 169.561 262.365 169.409 262.067C169.26 261.768 169.046 261.533 168.768 261.36C168.493 261.187 168.169 261.101 167.794 261.101C167.381 261.101 167.024 261.203 166.723 261.408C166.425 261.61 166.195 261.873 166.034 262.198C165.873 262.523 165.793 262.871 165.793 263.243V263.84C165.793 264.349 165.88 264.781 166.056 265.135C166.234 265.486 166.482 265.753 166.798 265.938C167.114 266.119 167.481 266.21 167.899 266.21C168.172 266.21 168.417 266.172 168.637 266.096C168.859 266.017 169.051 265.9 169.212 265.745C169.373 265.587 169.497 265.391 169.585 265.157L170.586 265.437C170.48 265.777 170.303 266.075 170.055 266.333C169.806 266.587 169.499 266.786 169.133 266.93C168.767 267.07 168.356 267.14 167.899 267.14ZM174.251 267.158C173.823 267.158 173.436 267.078 173.087 266.917C172.739 266.753 172.463 266.517 172.258 266.21C172.053 265.9 171.951 265.525 171.951 265.086C171.951 264.7 172.027 264.387 172.179 264.147C172.331 263.904 172.534 263.714 172.789 263.576C173.044 263.439 173.324 263.336 173.632 263.269C173.942 263.199 174.254 263.143 174.567 263.102C174.976 263.05 175.308 263.01 175.563 262.984C175.82 262.955 176.008 262.906 176.125 262.839C176.245 262.772 176.305 262.655 176.305 262.488V262.453C176.305 262.02 176.186 261.683 175.949 261.443C175.715 261.203 175.36 261.083 174.883 261.083C174.388 261.083 174 261.192 173.719 261.408C173.439 261.625 173.241 261.856 173.127 262.102L172.144 261.751C172.319 261.341 172.553 261.022 172.846 260.794C173.142 260.563 173.463 260.402 173.812 260.311C174.163 260.217 174.508 260.17 174.848 260.17C175.064 260.17 175.313 260.197 175.594 260.249C175.878 260.299 176.151 260.403 176.414 260.561C176.681 260.719 176.902 260.958 177.077 261.276C177.253 261.595 177.341 262.023 177.341 262.558V267H176.305V266.087H176.252C176.182 266.233 176.065 266.39 175.901 266.557C175.737 266.723 175.519 266.865 175.247 266.982C174.975 267.099 174.643 267.158 174.251 267.158ZM174.409 266.228C174.818 266.228 175.164 266.147 175.444 265.986C175.728 265.825 175.942 265.617 176.085 265.363C176.232 265.108 176.305 264.841 176.305 264.56V263.612C176.261 263.664 176.164 263.712 176.015 263.756C175.869 263.797 175.699 263.834 175.506 263.866C175.316 263.895 175.13 263.922 174.948 263.945C174.77 263.966 174.625 263.983 174.514 263.998C174.245 264.033 173.993 264.09 173.759 264.169C173.528 264.245 173.341 264.361 173.197 264.516C173.057 264.668 172.986 264.876 172.986 265.139C172.986 265.499 173.12 265.771 173.386 265.955C173.655 266.137 173.996 266.228 174.409 266.228ZM184.503 260.258L182.01 267H180.956L178.463 260.258H179.587L181.448 265.631H181.518L183.379 260.258H184.503ZM188.455 267.14C187.806 267.14 187.245 266.997 186.774 266.71C186.306 266.421 185.945 266.017 185.69 265.499C185.438 264.978 185.312 264.372 185.312 263.682C185.312 262.991 185.438 262.383 185.69 261.856C185.945 261.326 186.299 260.914 186.752 260.618C187.209 260.32 187.741 260.17 188.35 260.17C188.701 260.17 189.048 260.229 189.39 260.346C189.732 260.463 190.044 260.653 190.325 260.917C190.606 261.177 190.83 261.522 190.996 261.952C191.163 262.383 191.247 262.912 191.247 263.541V263.98H186.05V263.085H190.193C190.193 262.704 190.117 262.365 189.965 262.067C189.816 261.768 189.602 261.533 189.324 261.36C189.049 261.187 188.724 261.101 188.35 261.101C187.937 261.101 187.58 261.203 187.279 261.408C186.98 261.61 186.751 261.873 186.59 262.198C186.429 262.523 186.348 262.871 186.348 263.243V263.84C186.348 264.349 186.436 264.781 186.612 265.135C186.79 265.486 187.037 265.753 187.353 265.938C187.669 266.119 188.037 266.21 188.455 266.21C188.727 266.21 188.973 266.172 189.193 266.096C189.415 266.017 189.607 265.9 189.768 265.745C189.928 265.587 190.053 265.391 190.141 265.157L191.141 265.437C191.036 265.777 190.859 266.075 190.61 266.333C190.362 266.587 190.054 266.786 189.689 266.93C189.323 267.07 188.912 267.14 188.455 267.14ZM197.598 261.768L196.667 262.031C196.609 261.876 196.523 261.726 196.408 261.579C196.297 261.43 196.145 261.307 195.952 261.211C195.759 261.114 195.512 261.066 195.21 261.066C194.798 261.066 194.454 261.161 194.179 261.351C193.907 261.538 193.77 261.777 193.77 262.067C193.77 262.324 193.864 262.527 194.051 262.677C194.239 262.826 194.531 262.95 194.929 263.05L195.93 263.296C196.533 263.442 196.982 263.666 197.277 263.967C197.573 264.266 197.721 264.65 197.721 265.121C197.721 265.508 197.61 265.853 197.387 266.157C197.168 266.462 196.86 266.702 196.465 266.877C196.07 267.053 195.611 267.14 195.087 267.14C194.4 267.14 193.83 266.991 193.38 266.693C192.929 266.394 192.644 265.958 192.524 265.385L193.507 265.139C193.601 265.502 193.778 265.774 194.038 265.955C194.302 266.137 194.645 266.228 195.07 266.228C195.552 266.228 195.936 266.125 196.22 265.92C196.506 265.713 196.65 265.464 196.65 265.174C196.65 264.94 196.568 264.744 196.404 264.586C196.24 264.425 195.988 264.305 195.649 264.226L194.525 263.963C193.908 263.816 193.454 263.59 193.165 263.282C192.878 262.972 192.735 262.584 192.735 262.119C192.735 261.739 192.841 261.402 193.055 261.11C193.272 260.817 193.566 260.587 193.937 260.421C194.312 260.254 194.736 260.17 195.21 260.17C195.877 260.17 196.401 260.317 196.781 260.609C197.165 260.902 197.437 261.288 197.598 261.768Z" fill="white"/>
<line x1="176.748" y1="34.608" x2="176.748" y2="54.384" stroke="white" stroke-width="2.472"/>
<line x1="53.148" y1="172.264" x2="53.148" y2="192.04" stroke="white" stroke-width="2.472"/>
<line x1="176.748" y1="172.264" x2="176.748" y2="192.04" stroke="white" stroke-width="2.472"/>
<line x1="176.748" y1="56.8561" x2="176.748" y2="76.6321" stroke="white" stroke-width="2.472"/>
<line x1="53.148" y1="189.568" x2="53.148" y2="209.344" stroke="white" stroke-width="2.472"/>
<line x1="176.748" y1="189.568" x2="176.748" y2="209.344" stroke="white" stroke-width="2.472"/>
<line x1="51.912" y1="55.6201" x2="299.112" y2="55.6201" stroke="white" stroke-width="2.472"/>
<line x1="53.148" y1="54.3839" x2="53.148" y2="74.1599" stroke="white" stroke-width="2.472"/>
<line x1="300.348" y1="54.3839" x2="300.348" y2="74.1599" stroke="white" stroke-width="2.472"/>
<line x1="12.3601" y1="193.276" x2="93.9361" y2="193.276" stroke="white" stroke-width="2.472"/>
<line x1="13.5961" y1="192.04" x2="13.5961" y2="211.816" stroke="white" stroke-width="2.472"/>
<line x1="95.1721" y1="192.04" x2="95.1721" y2="211.816" stroke="white" stroke-width="2.472"/>
<line x1="135.96" y1="193.276" x2="217.536" y2="193.276" stroke="white" stroke-width="2.472"/>
<line x1="137.196" y1="192.04" x2="137.196" y2="211.816" stroke="white" stroke-width="2.472"/>
<line x1="218.772" y1="192.04" x2="218.772" y2="211.816" stroke="white" stroke-width="2.472"/>
<path d="M55.9382 115.566H42.6421C39.1461 115.566 37.3982 115.566 36.3121 114.48C35.2261 113.394 35.2261 111.646 35.2261 108.15V89.6099C35.2261 86.114 35.2261 84.366 36.3121 83.28C37.3982 82.1939 39.1461 82.1939 42.6421 82.1939H61.1821C64.678 82.1939 66.426 82.1939 67.512 83.28C68.5981 84.366 68.5981 86.114 68.5981 89.6099V102.906C68.5981 103.664 68.5981 104.043 68.4569 104.383C68.3158 104.724 68.0479 104.992 67.512 105.528L58.5601 114.48C58.0243 115.016 57.7563 115.284 57.4156 115.425C57.0749 115.566 56.696 115.566 55.9382 115.566Z" stroke="#F2F2F7" stroke-width="2.472"/>
<path d="M55.6201 115.566V106.914C55.6201 104.875 55.6201 103.855 56.2536 103.221C56.8871 102.588 57.9068 102.588 59.9461 102.588H68.5981" stroke="#F2F2F7" stroke-width="2.472"/>
<path d="M16.0564 240.553H7.93099C5.79458 240.553 4.72638 240.553 4.06268 239.889C3.39899 239.225 3.39899 238.157 3.39899 236.021V224.691C3.39899 222.554 3.39899 221.486 4.06268 220.822C4.72638 220.159 5.79458 220.159 7.93099 220.159H19.261C21.3974 220.159 22.4656 220.159 23.1293 220.822C23.793 221.486 23.793 222.554 23.793 224.691V232.816C23.793 233.279 23.793 233.511 23.7067 233.719C23.6205 233.927 23.4568 234.091 23.1293 234.418L17.6587 239.889C17.3312 240.217 17.1675 240.38 16.9593 240.466C16.751 240.553 16.5195 240.553 16.0564 240.553Z" stroke="#F2F2F7" stroke-width="2.472"/>
<path d="M15.862 240.553V235.265C15.862 234.019 15.862 233.396 16.2492 233.009C16.6363 232.622 17.2594 232.622 18.5057 232.622H23.793" stroke="#F2F2F7" stroke-width="2.472"/>
<path d="M97.6324 240.553H89.507C87.3706 240.553 86.3024 240.553 85.6387 239.889C84.975 239.225 84.975 238.157 84.975 236.021V224.691C84.975 222.554 84.975 221.486 85.6387 220.822C86.3024 220.159 87.3706 220.159 89.507 220.159H100.837C102.973 220.159 104.042 220.159 104.705 220.822C105.369 221.486 105.369 222.554 105.369 224.691V232.816C105.369 233.279 105.369 233.511 105.283 233.719C105.197 233.927 105.033 234.091 104.705 234.418L99.2347 239.889C98.9073 240.217 98.7435 240.38 98.5353 240.466C98.3271 240.553 98.0955 240.553 97.6324 240.553Z" stroke="#F2F2F7" stroke-width="2.472"/>
<path d="M97.438 240.553V235.265C97.438 234.019 97.438 233.396 97.8252 233.009C98.2124 232.622 98.8355 232.622 100.082 232.622H105.369" stroke="#F2F2F7" stroke-width="2.472"/>
<path d="M182.01 115.566H168.714C165.218 115.566 163.47 115.566 162.384 114.48C161.298 113.394 161.298 111.646 161.298 108.15V89.6099C161.298 86.114 161.298 84.366 162.384 83.28C163.47 82.1939 165.218 82.1939 168.714 82.1939H187.254C190.75 82.1939 192.498 82.1939 193.584 83.28C194.67 84.366 194.67 86.114 194.67 89.6099V102.906C194.67 103.664 194.67 104.043 194.529 104.383C194.388 104.724 194.12 104.992 193.584 105.528L184.632 114.48C184.096 115.016 183.828 115.284 183.488 115.425C183.147 115.566 182.768 115.566 182.01 115.566Z" stroke="#F2F2F7" stroke-width="2.472"/>
<path d="M181.692 115.566V106.914C181.692 104.875 181.692 103.855 182.326 103.221C182.959 102.588 183.979 102.588 186.018 102.588H194.67" stroke="#F2F2F7" stroke-width="2.472"/>
<path d="M303.138 115.742H289.842C286.346 115.742 284.598 115.742 283.512 114.656C282.426 113.57 282.426 111.822 282.426 108.326V89.7861C282.426 86.2901 282.426 84.5422 283.512 83.4561C284.598 82.3701 286.346 82.3701 289.842 82.3701H308.382C311.878 82.3701 313.626 82.3701 314.712 83.4561C315.798 84.5422 315.798 86.2901 315.798 89.7861V103.082C315.798 103.84 315.798 104.219 315.657 104.56C315.516 104.9 315.248 105.168 314.712 105.704L305.76 114.656C305.224 115.192 304.956 115.46 304.616 115.601C304.275 115.742 303.896 115.742 303.138 115.742Z" stroke="#F2F2F7" stroke-width="2.472"/>
<path d="M302.82 115.742V107.09C302.82 105.051 302.82 104.031 303.454 103.398C304.087 102.764 305.107 102.764 307.146 102.764H315.798" stroke="#F2F2F7" stroke-width="2.472"/>
<path d="M74.432 121.296L76.019 111.715L73.7497 113.287L73.1712 112.53L76.2266 110.395H77.3835L75.5889 121.296H74.432Z" fill="white"/>
<path d="M24.0773 246.536L25.1353 240.148L23.6225 241.196L23.2368 240.692L25.2738 239.268H26.045L24.8486 246.536H24.0773ZM29.0213 246.536L30.0793 240.148L28.5665 241.196L28.1808 240.692L30.2178 239.268H30.989L29.7926 246.536H29.0213Z" fill="white"/>
<path d="M49.5884 236.727C49.4697 236.727 49.3544 236.704 49.2423 236.658C49.1302 236.618 49.0379 236.552 48.9654 236.46C48.8929 236.368 48.8468 236.262 48.827 236.144C48.8072 236.018 48.8072 235.893 48.827 235.768C48.8468 235.682 48.8797 235.6 48.9259 235.521C48.972 235.442 49.028 235.376 49.094 235.323C49.1665 235.27 49.2456 235.234 49.3313 235.214C49.417 235.194 49.5027 235.185 49.5884 235.185C49.707 235.185 49.8224 235.208 49.9344 235.254C50.0531 235.293 50.1454 235.359 50.2113 235.452C50.2838 235.544 50.33 235.653 50.3497 235.778C50.3695 235.896 50.3695 236.018 50.3497 236.144C50.3366 236.229 50.3069 236.312 50.2608 236.391C50.2146 236.47 50.1553 236.536 50.0828 236.589C50.0103 236.641 49.9312 236.678 49.8455 236.697C49.7598 236.717 49.6741 236.727 49.5884 236.727ZM53.9391 236.727C53.8204 236.727 53.7051 236.704 53.593 236.658C53.4809 236.618 53.3887 236.552 53.3161 236.46C53.2436 236.368 53.1975 236.262 53.1777 236.144C53.1579 236.018 53.1579 235.893 53.1777 235.768C53.1975 235.682 53.2304 235.6 53.2766 235.521C53.3227 235.442 53.3788 235.376 53.4447 235.323C53.5172 235.27 53.5963 235.234 53.682 235.214C53.7677 235.194 53.8534 235.185 53.9391 235.185C54.0577 235.185 54.1731 235.208 54.2852 235.254C54.4038 235.293 54.4961 235.359 54.562 235.452C54.6345 235.544 54.6807 235.653 54.7005 235.778C54.7202 235.896 54.7202 236.018 54.7005 236.144C54.6873 236.229 54.6576 236.312 54.6115 236.391C54.5653 236.47 54.506 236.536 54.4335 236.589C54.361 236.641 54.2819 236.678 54.1962 236.697C54.1105 236.717 54.0248 236.727 53.9391 236.727ZM58.2898 236.727C58.1711 236.727 58.0558 236.704 57.9437 236.658C57.8317 236.618 57.7394 236.552 57.6669 236.46C57.5943 236.368 57.5482 236.262 57.5284 236.144C57.5087 236.018 57.5087 235.893 57.5284 235.768C57.5482 235.682 57.5812 235.6 57.6273 235.521C57.6735 235.442 57.7295 235.376 57.7954 235.323C57.8679 235.27 57.947 235.234 58.0327 235.214C58.1184 235.194 58.2041 235.185 58.2898 235.185C58.4085 235.185 58.5238 235.208 58.6359 235.254C58.7545 235.293 58.8468 235.359 58.9127 235.452C58.9853 235.544 59.0314 235.653 59.0512 235.778C59.071 235.896 59.071 236.018 59.0512 236.144C59.038 236.229 59.0083 236.312 58.9622 236.391C58.916 236.47 58.8567 236.536 58.7842 236.589C58.7117 236.641 58.6326 236.678 58.5469 236.697C58.4612 236.717 58.3755 236.727 58.2898 236.727Z" fill="white"/>
<path d="M173.188 236.727C173.07 236.727 172.954 236.704 172.842 236.658C172.73 236.618 172.638 236.552 172.565 236.46C172.493 236.368 172.447 236.262 172.427 236.144C172.407 236.018 172.407 235.893 172.427 235.768C172.447 235.682 172.48 235.6 172.526 235.521C172.572 235.442 172.628 235.376 172.694 235.323C172.766 235.27 172.846 235.234 172.931 235.214C173.017 235.194 173.103 235.185 173.188 235.185C173.307 235.185 173.422 235.208 173.534 235.254C173.653 235.293 173.745 235.359 173.811 235.452C173.884 235.544 173.93 235.653 173.95 235.778C173.969 235.896 173.969 236.018 173.95 236.144C173.937 236.229 173.907 236.312 173.861 236.391C173.815 236.47 173.755 236.536 173.683 236.589C173.61 236.641 173.531 236.678 173.445 236.697C173.36 236.717 173.274 236.727 173.188 236.727ZM177.539 236.727C177.42 236.727 177.305 236.704 177.193 236.658C177.081 236.618 176.989 236.552 176.916 236.46C176.844 236.368 176.797 236.262 176.778 236.144C176.758 236.018 176.758 235.893 176.778 235.768C176.797 235.682 176.83 235.6 176.877 235.521C176.923 235.442 176.979 235.376 177.045 235.323C177.117 235.27 177.196 235.234 177.282 235.214C177.368 235.194 177.453 235.185 177.539 235.185C177.658 235.185 177.773 235.208 177.885 235.254C178.004 235.293 178.096 235.359 178.162 235.452C178.235 235.544 178.281 235.653 178.3 235.778C178.32 235.896 178.32 236.018 178.3 236.144C178.287 236.229 178.258 236.312 178.211 236.391C178.165 236.47 178.106 236.536 178.033 236.589C177.961 236.641 177.882 236.678 177.796 236.697C177.71 236.717 177.625 236.727 177.539 236.727ZM181.89 236.727C181.771 236.727 181.656 236.704 181.544 236.658C181.432 236.618 181.339 236.552 181.267 236.46C181.194 236.368 181.148 236.262 181.128 236.144C181.109 236.018 181.109 235.893 181.128 235.768C181.148 235.682 181.181 235.6 181.227 235.521C181.273 235.442 181.329 235.376 181.395 235.323C181.468 235.27 181.547 235.234 181.633 235.214C181.718 235.194 181.804 235.185 181.89 235.185C182.008 235.185 182.124 235.208 182.236 235.254C182.355 235.293 182.447 235.359 182.513 235.452C182.585 235.544 182.631 235.653 182.651 235.778C182.671 235.896 182.671 236.018 182.651 236.144C182.638 236.229 182.608 236.312 182.562 236.391C182.516 236.47 182.457 236.536 182.384 236.589C182.312 236.641 182.233 236.678 182.147 236.697C182.061 236.717 181.975 236.727 181.89 236.727Z" fill="white"/>
<path d="M105.653 246.536L106.711 240.148L105.198 241.196L104.813 240.692L106.85 239.268H107.621L106.425 246.536H105.653ZM108.847 246.536L110.044 239.268H110.963L112.051 245.32C112.117 244.799 112.179 244.278 112.239 243.757C112.298 243.23 112.374 242.703 112.466 242.175L112.941 239.268H113.722L112.525 246.536H111.606L110.518 240.484C110.452 241.005 110.39 241.529 110.33 242.057C110.271 242.577 110.195 243.101 110.103 243.629L109.628 246.536H108.847Z" fill="white"/>
<line x1="300.348" y1="172" x2="300.348" y2="191.776" stroke="white" stroke-width="2.472"/>
<line x1="300.348" y1="189.304" x2="300.348" y2="209.08" stroke="white" stroke-width="2.472"/>
<line x1="259.56" y1="193.012" x2="341.136" y2="193.012" stroke="white" stroke-width="2.472"/>
<line x1="260.796" y1="191.776" x2="260.796" y2="211.552" stroke="white" stroke-width="2.472"/>
<line x1="342.372" y1="191.776" x2="342.372" y2="211.552" stroke="white" stroke-width="2.472"/>
<path d="M263.256 240.289H255.131C252.995 240.289 251.926 240.289 251.263 239.625C250.599 238.961 250.599 237.893 250.599 235.757V224.427C250.599 222.29 250.599 221.222 251.263 220.559C251.926 219.895 252.995 219.895 255.131 219.895H266.461C268.597 219.895 269.666 219.895 270.329 220.559C270.993 221.222 270.993 222.29 270.993 224.427V232.552C270.993 233.015 270.993 233.247 270.907 233.455C270.821 233.663 270.657 233.827 270.329 234.155L264.859 239.625C264.531 239.953 264.367 240.116 264.159 240.203C263.951 240.289 263.72 240.289 263.256 240.289Z" stroke="#F2F2F7" stroke-width="2.472"/>
<path d="M263.062 240.289V235.001C263.062 233.755 263.062 233.132 263.449 232.745C263.836 232.358 264.459 232.358 265.706 232.358H270.993" stroke="#F2F2F7" stroke-width="2.472"/>
<path d="M344.832 240.289H336.707C334.571 240.289 333.502 240.289 332.839 239.625C332.175 238.961 332.175 237.893 332.175 235.757V224.427C332.175 222.29 332.175 221.222 332.839 220.559C333.502 219.895 334.571 219.895 336.707 219.895H348.037C350.173 219.895 351.242 219.895 351.905 220.559C352.569 221.222 352.569 222.29 352.569 224.427V232.552C352.569 233.015 352.569 233.247 352.483 233.455C352.396 233.663 352.233 233.827 351.905 234.155L346.435 239.625C346.107 239.953 345.943 240.116 345.735 240.203C345.527 240.289 345.295 240.289 344.832 240.289Z" stroke="#F2F2F7" stroke-width="2.472"/>
<path d="M344.638 240.289V235.001C344.638 233.755 344.638 233.132 345.025 232.745C345.412 232.358 346.035 232.358 347.282 232.358H352.569" stroke="#F2F2F7" stroke-width="2.472"/>
<path d="M272.316 246.351C272.164 246.351 272.016 246.335 271.871 246.302C271.732 246.269 271.604 246.213 271.485 246.134C271.373 246.048 271.281 245.946 271.208 245.827C271.136 245.702 271.083 245.57 271.05 245.431C271.017 245.286 271.004 245.138 271.01 244.987C271.017 244.835 271.033 244.687 271.06 244.542L271.505 241.822H270.199L270.209 241.13H272.395L271.811 244.65C271.791 244.769 271.782 244.888 271.782 245.006C271.788 245.125 271.815 245.237 271.861 245.343C271.907 245.441 271.979 245.52 272.078 245.58C272.177 245.633 272.286 245.659 272.405 245.659C272.523 245.659 272.635 245.629 272.741 245.57C272.853 245.504 272.945 245.422 273.018 245.323C273.097 245.224 273.156 245.118 273.196 245.006C273.242 244.888 273.278 244.772 273.304 244.66L273.987 244.749C273.96 244.881 273.921 245.013 273.868 245.145C273.822 245.277 273.762 245.405 273.69 245.53C273.624 245.649 273.542 245.764 273.443 245.876C273.344 245.982 273.232 246.071 273.107 246.143C272.988 246.216 272.859 246.269 272.721 246.302C272.589 246.335 272.454 246.351 272.316 246.351ZM272.296 240.26C272.203 240.26 272.111 240.244 272.019 240.211C271.927 240.178 271.854 240.125 271.801 240.052C271.749 239.98 271.712 239.894 271.693 239.795C271.679 239.696 271.679 239.598 271.693 239.499C271.706 239.433 271.729 239.367 271.762 239.301C271.801 239.235 271.847 239.182 271.9 239.143C271.96 239.097 272.022 239.067 272.088 239.054C272.161 239.034 272.233 239.024 272.306 239.024C272.398 239.024 272.49 239.044 272.582 239.083C272.675 239.116 272.747 239.169 272.8 239.242C272.859 239.314 272.896 239.4 272.909 239.499C272.929 239.598 272.929 239.696 272.909 239.795C272.896 239.861 272.869 239.927 272.83 239.993C272.797 240.059 272.751 240.115 272.691 240.161C272.639 240.201 272.576 240.227 272.503 240.24C272.437 240.253 272.368 240.26 272.296 240.26ZM276.221 246.272L277.279 239.884L275.766 240.932L275.381 240.428L277.418 239.004H278.189L276.993 246.272H276.221Z" fill="white"/>
<path d="M296.788 236.463C296.67 236.463 296.554 236.44 296.442 236.394C296.33 236.354 296.238 236.288 296.165 236.196C296.093 236.104 296.047 235.998 296.027 235.88C296.007 235.754 296.007 235.629 296.027 235.504C296.047 235.418 296.08 235.336 296.126 235.257C296.172 235.178 296.228 235.112 296.294 235.059C296.366 235.006 296.446 234.97 296.531 234.95C296.617 234.93 296.703 234.921 296.788 234.921C296.907 234.921 297.022 234.944 297.134 234.99C297.253 235.029 297.345 235.095 297.411 235.188C297.484 235.28 297.53 235.389 297.55 235.514C297.57 235.633 297.57 235.754 297.55 235.88C297.537 235.965 297.507 236.048 297.461 236.127C297.415 236.206 297.355 236.272 297.283 236.325C297.21 236.377 297.131 236.414 297.045 236.433C296.96 236.453 296.874 236.463 296.788 236.463ZM301.139 236.463C301.02 236.463 300.905 236.44 300.793 236.394C300.681 236.354 300.589 236.288 300.516 236.196C300.444 236.104 300.397 235.998 300.378 235.88C300.358 235.754 300.358 235.629 300.378 235.504C300.397 235.418 300.43 235.336 300.477 235.257C300.523 235.178 300.579 235.112 300.645 235.059C300.717 235.006 300.796 234.97 300.882 234.95C300.968 234.93 301.053 234.921 301.139 234.921C301.258 234.921 301.373 234.944 301.485 234.99C301.604 235.029 301.696 235.095 301.762 235.188C301.835 235.28 301.881 235.389 301.9 235.514C301.92 235.633 301.92 235.754 301.9 235.88C301.887 235.965 301.858 236.048 301.811 236.127C301.765 236.206 301.706 236.272 301.633 236.325C301.561 236.377 301.482 236.414 301.396 236.433C301.31 236.453 301.225 236.463 301.139 236.463ZM305.49 236.463C305.371 236.463 305.256 236.44 305.144 236.394C305.032 236.354 304.939 236.288 304.867 236.196C304.794 236.104 304.748 235.998 304.728 235.88C304.709 235.754 304.709 235.629 304.728 235.504C304.748 235.418 304.781 235.336 304.827 235.257C304.873 235.178 304.929 235.112 304.995 235.059C305.068 235.006 305.147 234.97 305.233 234.95C305.318 234.93 305.404 234.921 305.49 234.921C305.608 234.921 305.724 234.944 305.836 234.99C305.955 235.029 306.047 235.095 306.113 235.188C306.185 235.28 306.231 235.389 306.251 235.514C306.271 235.633 306.271 235.754 306.251 235.88C306.238 235.965 306.208 236.048 306.162 236.127C306.116 236.206 306.057 236.272 305.984 236.325C305.912 236.377 305.833 236.414 305.747 236.433C305.661 236.453 305.575 236.463 305.49 236.463Z" fill="white"/>
<path d="M353.892 246.351C353.74 246.351 353.592 246.335 353.447 246.302C353.308 246.269 353.18 246.213 353.061 246.134C352.949 246.048 352.857 245.946 352.784 245.827C352.712 245.702 352.659 245.57 352.626 245.431C352.593 245.286 352.58 245.138 352.586 244.987C352.593 244.835 352.609 244.687 352.636 244.542L353.081 241.822H351.776L351.785 241.13H353.971L353.387 244.65C353.367 244.769 353.358 244.888 353.358 245.006C353.364 245.125 353.391 245.237 353.437 245.343C353.483 245.441 353.555 245.52 353.654 245.58C353.753 245.633 353.862 245.659 353.981 245.659C354.099 245.659 354.211 245.629 354.317 245.57C354.429 245.504 354.521 245.422 354.594 245.323C354.673 245.224 354.732 245.118 354.772 245.006C354.818 244.888 354.854 244.772 354.88 244.66L355.563 244.749C355.536 244.881 355.497 245.013 355.444 245.145C355.398 245.277 355.338 245.405 355.266 245.53C355.2 245.649 355.118 245.764 355.019 245.876C354.92 245.982 354.808 246.071 354.683 246.143C354.564 246.216 354.435 246.269 354.297 246.302C354.165 246.335 354.03 246.351 353.892 246.351ZM353.872 240.26C353.779 240.26 353.687 240.244 353.595 240.211C353.503 240.178 353.43 240.125 353.377 240.052C353.325 239.98 353.288 239.894 353.269 239.795C353.255 239.696 353.255 239.598 353.269 239.499C353.282 239.433 353.305 239.367 353.338 239.301C353.377 239.235 353.424 239.182 353.476 239.143C353.536 239.097 353.598 239.067 353.664 239.054C353.737 239.034 353.809 239.024 353.882 239.024C353.974 239.024 354.066 239.044 354.159 239.083C354.251 239.116 354.323 239.169 354.376 239.242C354.435 239.314 354.472 239.4 354.485 239.499C354.505 239.598 354.505 239.696 354.485 239.795C354.472 239.861 354.445 239.927 354.406 239.993C354.373 240.059 354.327 240.115 354.267 240.161C354.215 240.201 354.152 240.227 354.079 240.24C354.013 240.253 353.944 240.26 353.872 240.26ZM356.047 246.272L357.244 239.004H358.163L359.251 245.056C359.317 244.535 359.379 244.014 359.439 243.493C359.498 242.966 359.574 242.439 359.666 241.911L360.141 239.004H360.922L359.725 246.272H358.806L357.718 240.221C357.652 240.741 357.59 241.265 357.53 241.793C357.471 242.313 357.395 242.838 357.303 243.365L356.828 246.272H356.047Z" fill="white"/>
<path d="M201.69 121.415C201.513 121.415 201.339 121.38 201.171 121.311C201.003 121.252 200.865 121.153 200.756 121.014C200.647 120.876 200.578 120.718 200.548 120.54C200.519 120.352 200.519 120.164 200.548 119.976C200.578 119.847 200.628 119.724 200.697 119.605C200.766 119.487 200.85 119.388 200.949 119.309C201.058 119.229 201.176 119.175 201.305 119.145C201.433 119.116 201.562 119.101 201.69 119.101C201.868 119.101 202.042 119.135 202.21 119.205C202.388 119.264 202.526 119.363 202.625 119.501C202.734 119.64 202.803 119.803 202.833 119.991C202.862 120.169 202.862 120.352 202.833 120.54C202.813 120.668 202.768 120.792 202.699 120.91C202.63 121.029 202.541 121.128 202.432 121.207C202.323 121.286 202.205 121.341 202.076 121.37C201.948 121.4 201.819 121.415 201.69 121.415ZM208.217 121.415C208.039 121.415 207.866 121.38 207.697 121.311C207.529 121.252 207.391 121.153 207.282 121.014C207.173 120.876 207.104 120.718 207.075 120.54C207.045 120.352 207.045 120.164 207.075 119.976C207.104 119.847 207.154 119.724 207.223 119.605C207.292 119.487 207.376 119.388 207.475 119.309C207.584 119.229 207.702 119.175 207.831 119.145C207.959 119.116 208.088 119.101 208.217 119.101C208.395 119.101 208.568 119.135 208.736 119.205C208.914 119.264 209.052 119.363 209.151 119.501C209.26 119.64 209.329 119.803 209.359 119.991C209.388 120.169 209.388 120.352 209.359 120.54C209.339 120.668 209.294 120.792 209.225 120.91C209.156 121.029 209.067 121.128 208.958 121.207C208.849 121.286 208.731 121.341 208.602 121.37C208.474 121.4 208.345 121.415 208.217 121.415ZM214.743 121.415C214.565 121.415 214.392 121.38 214.224 121.311C214.055 121.252 213.917 121.153 213.808 121.014C213.699 120.876 213.63 120.718 213.601 120.54C213.571 120.352 213.571 120.164 213.601 119.976C213.63 119.847 213.68 119.724 213.749 119.605C213.818 119.487 213.902 119.388 214.001 119.309C214.11 119.229 214.228 119.175 214.357 119.145C214.486 119.116 214.614 119.101 214.743 119.101C214.921 119.101 215.094 119.135 215.262 119.205C215.44 119.264 215.578 119.363 215.677 119.501C215.786 119.64 215.855 119.803 215.885 119.991C215.914 120.169 215.914 120.352 215.885 120.54C215.865 120.668 215.82 120.792 215.751 120.91C215.682 121.029 215.593 121.128 215.484 121.207C215.375 121.286 215.257 121.341 215.128 121.37C215 121.4 214.871 121.415 214.743 121.415Z" fill="white"/>
<path d="M323.189 121.415C322.962 121.415 322.739 121.39 322.522 121.341C322.314 121.291 322.121 121.207 321.943 121.088C321.775 120.96 321.637 120.807 321.528 120.629C321.419 120.441 321.34 120.243 321.291 120.035C321.241 119.818 321.222 119.595 321.231 119.368C321.241 119.14 321.266 118.918 321.306 118.7L321.973 114.622H320.015L320.03 113.583H323.308L322.433 118.864C322.403 119.042 322.388 119.22 322.388 119.398C322.398 119.576 322.438 119.744 322.507 119.902C322.576 120.05 322.685 120.169 322.833 120.258C322.982 120.337 323.145 120.376 323.323 120.376C323.501 120.376 323.669 120.332 323.827 120.243C323.995 120.144 324.134 120.02 324.242 119.872C324.361 119.724 324.45 119.566 324.509 119.398C324.579 119.22 324.633 119.047 324.672 118.878L325.696 119.012C325.656 119.21 325.597 119.407 325.518 119.605C325.449 119.803 325.36 119.996 325.251 120.184C325.152 120.362 325.028 120.535 324.88 120.703C324.732 120.861 324.564 120.994 324.376 121.103C324.198 121.212 324.005 121.291 323.797 121.341C323.6 121.39 323.397 121.415 323.189 121.415ZM323.16 112.278C323.021 112.278 322.883 112.253 322.744 112.204C322.606 112.155 322.497 112.075 322.418 111.967C322.339 111.858 322.285 111.729 322.255 111.581C322.235 111.433 322.235 111.284 322.255 111.136C322.275 111.037 322.309 110.938 322.359 110.839C322.418 110.741 322.487 110.661 322.566 110.602C322.655 110.533 322.749 110.488 322.848 110.469C322.957 110.439 323.066 110.424 323.174 110.424C323.313 110.424 323.451 110.454 323.59 110.513C323.728 110.563 323.837 110.642 323.916 110.75C324.005 110.859 324.059 110.988 324.079 111.136C324.109 111.284 324.109 111.433 324.079 111.581C324.059 111.68 324.02 111.779 323.961 111.878C323.911 111.977 323.842 112.061 323.753 112.13C323.674 112.189 323.58 112.229 323.471 112.249C323.372 112.268 323.268 112.278 323.16 112.278Z" fill="white"/>
</svg>
