<svg width="457" height="191" viewBox="0 0 457 191" fill="none" xmlns="http://www.w3.org/2000/svg">
<path d="M7.73563 12.3479C7.65878 11.699 7.34714 11.1952 6.80069 10.8366C6.25424 10.478 5.58399 10.2987 4.78993 10.2987C4.20933 10.2987 3.70131 10.3926 3.26586 10.5805C2.83467 10.7683 2.49741 11.0266 2.25407 11.3553C2.015 11.6841 1.89547 12.0576 1.89547 12.476C1.89547 12.826 1.97872 13.127 2.14521 13.3789C2.31598 13.6265 2.5337 13.8336 2.79839 14.0001C3.06307 14.1623 3.34057 14.2968 3.63087 14.4035C3.92117 14.5059 4.18799 14.5892 4.43133 14.6532L5.76329 15.0118C6.10482 15.1015 6.48477 15.2253 6.90315 15.3832C7.32579 15.5412 7.72922 15.7568 8.11344 16.03C8.50193 16.299 8.82212 16.6448 9.074 17.0674C9.32587 17.4901 9.45181 18.0088 9.45181 18.6235C9.45181 19.3322 9.26611 19.9726 8.89469 20.5446C8.52755 21.1167 7.98964 21.5713 7.28097 21.9086C6.57656 22.2459 5.7206 22.4145 4.71309 22.4145C3.77388 22.4145 2.96061 22.2629 2.27328 21.9598C1.59022 21.6567 1.05232 21.2341 0.659556 20.6919C0.271066 20.1497 0.0512064 19.52 -2.30744e-05 18.8028H1.63932C1.68201 19.298 1.84851 19.7079 2.13881 20.0323C2.43338 20.3525 2.80479 20.5916 3.25305 20.7495C3.70558 20.9032 4.19226 20.9801 4.71309 20.9801C5.3193 20.9801 5.86362 20.8819 6.34603 20.6855C6.82844 20.4848 7.21052 20.2074 7.49229 19.853C7.77405 19.4944 7.91493 19.076 7.91493 18.5979C7.91493 18.1624 7.79326 17.8081 7.54992 17.5349C7.30658 17.2617 6.9864 17.0397 6.58937 16.8689C6.19234 16.6981 5.76329 16.5487 5.30223 16.4206L3.6885 15.9596C2.66391 15.665 1.85278 15.2445 1.2551 14.6981C0.657422 14.1516 0.358583 13.4365 0.358583 12.5528C0.358583 11.8185 0.557097 11.1782 0.954126 10.6317C1.35542 10.081 1.89333 9.65409 2.56785 9.35098C3.24664 9.0436 4.00441 8.88991 4.84116 8.88991C5.68645 8.88991 6.43781 9.04147 7.09526 9.34457C7.7527 9.64341 8.27354 10.0532 8.65776 10.5741C9.04625 11.0949 9.25117 11.6862 9.27251 12.3479H7.73563ZM18.0568 18.1624V12.3479H19.568V22.184H18.0568V20.519H17.9543C17.7238 21.0185 17.3652 21.4433 16.8785 21.7933C16.3918 22.1391 15.7771 22.312 15.0342 22.312C14.4195 22.312 13.873 22.1776 13.3949 21.9086C12.9167 21.6354 12.5411 21.2255 12.2678 20.6791C11.9946 20.1284 11.858 19.4346 11.858 18.5979V12.3479H13.3693V18.4954C13.3693 19.2127 13.5699 19.7847 13.9712 20.2116C14.3768 20.6385 14.8933 20.852 15.5209 20.852C15.8966 20.852 16.2787 20.7559 16.6672 20.5638C17.0599 20.3717 17.3886 20.0771 17.6533 19.6801C17.9223 19.2831 18.0568 18.7772 18.0568 18.1624ZM22.336 25.8725V12.3479H23.7961V13.9104H23.9754C24.0864 13.7396 24.2401 13.5219 24.4364 13.2572C24.6371 12.9883 24.9231 12.7492 25.2945 12.54C25.6702 12.3266 26.1782 12.2198 26.8186 12.2198C27.6468 12.2198 28.3768 12.4269 29.0087 12.841C29.6405 13.2551 30.1336 13.8421 30.4879 14.602C30.8422 15.3619 31.0194 16.2584 31.0194 17.2915C31.0194 18.3332 30.8422 19.2361 30.4879 20.0003C30.1336 20.7602 29.6426 21.3493 29.0151 21.7677C28.3875 22.1818 27.6639 22.3889 26.8442 22.3889C26.2124 22.3889 25.7065 22.2843 25.3265 22.0751C24.9466 21.8616 24.6542 21.6204 24.4492 21.3515C24.2443 21.0783 24.0864 20.852 23.9754 20.6727H23.8473V25.8725H22.336ZM23.8217 17.2659C23.8217 18.0088 23.9305 18.6641 24.1483 19.2319C24.366 19.7954 24.684 20.2372 25.1024 20.5574C25.5208 20.8733 26.0331 21.0313 26.6393 21.0313C27.2711 21.0313 27.7984 20.8648 28.221 20.5318C28.6479 20.1945 28.9681 19.742 29.1816 19.1742C29.3993 18.6022 29.5081 17.9661 29.5081 17.2659C29.5081 16.5743 29.4014 15.951 29.188 15.3961C28.9788 14.8368 28.6607 14.3949 28.2338 14.0705C27.8112 13.7418 27.2797 13.5774 26.6393 13.5774C26.0245 13.5774 25.508 13.7332 25.0896 14.0449C24.6712 14.3523 24.3553 14.7834 24.1419 15.3384C23.9284 15.8891 23.8217 16.5316 23.8217 17.2659ZM33.3247 25.8725V12.3479H34.7848V13.9104H34.9641C35.0751 13.7396 35.2288 13.5219 35.4252 13.2572C35.6258 12.9883 35.9118 12.7492 36.2832 12.54C36.6589 12.3266 37.167 12.2198 37.8073 12.2198C38.6355 12.2198 39.3656 12.4269 39.9974 12.841C40.6292 13.2551 41.1223 13.8421 41.4766 14.602C41.831 15.3619 42.0081 16.2584 42.0081 17.2915C42.0081 18.3332 41.831 19.2361 41.4766 20.0003C41.1223 20.7602 40.6313 21.3493 40.0038 21.7677C39.3762 22.1818 38.6526 22.3889 37.8329 22.3889C37.2011 22.3889 36.6952 22.2843 36.3153 22.0751C35.9353 21.8616 35.6429 21.6204 35.438 21.3515C35.233 21.0783 35.0751 20.852 34.9641 20.6727H34.836V25.8725H33.3247ZM34.8104 17.2659C34.8104 18.0088 34.9193 18.6641 35.137 19.2319C35.3547 19.7954 35.6728 20.2372 36.0911 20.5574C36.5095 20.8733 37.0218 21.0313 37.628 21.0313C38.2599 21.0313 38.7871 20.8648 39.2097 20.5318C39.6366 20.1945 39.9568 19.742 40.1703 19.1742C40.388 18.6022 40.4969 17.9661 40.4969 17.2659C40.4969 16.5743 40.3901 15.951 40.1767 15.3961C39.9675 14.8368 39.6495 14.3949 39.2225 14.0705C38.7999 13.7418 38.2684 13.5774 37.628 13.5774C37.0133 13.5774 36.4967 13.7332 36.0783 14.0449C35.66 14.3523 35.344 14.7834 35.1306 15.3384C34.9171 15.8891 34.8104 16.5316 34.8104 17.2659ZM48.3094 22.3889C47.4214 22.3889 46.6423 22.1776 45.972 21.7549C45.306 21.3323 44.7852 20.741 44.4095 19.9811C44.0381 19.2212 43.8524 18.3332 43.8524 17.3172C43.8524 16.2926 44.0381 15.3982 44.4095 14.634C44.7852 13.8698 45.306 13.2764 45.972 12.8538C46.6423 12.4312 47.4214 12.2198 48.3094 12.2198C49.1973 12.2198 49.9743 12.4312 50.6403 12.8538C51.3106 13.2764 51.8314 13.8698 52.2028 14.634C52.5785 15.3982 52.7663 16.2926 52.7663 17.3172C52.7663 18.3332 52.5785 19.2212 52.2028 19.9811C51.8314 20.741 51.3106 21.3323 50.6403 21.7549C49.9743 22.1776 49.1973 22.3889 48.3094 22.3889ZM48.3094 21.0313C48.9839 21.0313 49.5389 20.8584 49.9743 20.5126C50.4098 20.1668 50.7321 19.7121 50.9413 19.1486C51.1505 18.5851 51.2551 17.9746 51.2551 17.3172C51.2551 16.6597 51.1505 16.0471 50.9413 15.4793C50.7321 14.9115 50.4098 14.4526 49.9743 14.1025C49.5389 13.7524 48.9839 13.5774 48.3094 13.5774C47.6348 13.5774 47.0799 13.7524 46.6444 14.1025C46.209 14.4526 45.8866 14.9115 45.6775 15.4793C45.4683 16.0471 45.3637 16.6597 45.3637 17.3172C45.3637 17.9746 45.4683 18.5851 45.6775 19.1486C45.8866 19.7121 46.209 20.1668 46.6444 20.5126C47.0799 20.8584 47.6348 21.0313 48.3094 21.0313ZM55.0733 22.184V12.3479H56.5333V13.8336H56.6358C56.8151 13.3469 57.1395 12.952 57.6091 12.6489C58.0787 12.3458 58.6081 12.1942 59.1972 12.1942C59.3082 12.1942 59.447 12.1963 59.6135 12.2006C59.78 12.2049 59.9059 12.2113 59.9913 12.2198V13.7567C59.9401 13.7439 59.8227 13.7247 59.6391 13.6991C59.4598 13.6692 59.2698 13.6543 59.0692 13.6543C58.591 13.6543 58.1641 13.7546 57.7884 13.9552C57.417 14.1516 57.1224 14.4248 56.9047 14.7749C56.6913 15.1207 56.5845 15.5156 56.5845 15.9596V22.184H55.0733ZM66.6767 12.3479V13.6286H61.5794V12.3479H66.6767ZM63.065 9.99135H64.5763V19.3663C64.5763 19.7933 64.6382 20.1134 64.762 20.3269C64.8901 20.5361 65.0523 20.677 65.2487 20.7495C65.4494 20.8178 65.6607 20.852 65.8827 20.852C66.0492 20.852 66.1858 20.8435 66.2925 20.8264C66.3992 20.805 66.4846 20.788 66.5487 20.7751L66.856 22.1327C66.7536 22.1712 66.6106 22.2096 66.427 22.248C66.2434 22.2907 66.0107 22.312 65.729 22.312C65.3021 22.312 64.8837 22.2202 64.4739 22.0367C64.0683 21.8531 63.731 21.5735 63.4621 21.1978C63.1974 20.8221 63.065 20.3482 63.065 19.7762V9.99135ZM74.7646 22.184H73.0996L77.9152 9.06922H79.5545L84.3701 22.184H82.7051L78.7861 11.144H78.6836L74.7646 22.184ZM75.3793 17.061H82.0904V18.4698H75.3793V17.061ZM86.208 22.184V12.3479H87.668V13.8336H87.7705C87.9498 13.3469 88.2742 12.952 88.7438 12.6489C89.2134 12.3458 89.7428 12.1942 90.3319 12.1942C90.4429 12.1942 90.5817 12.1963 90.7482 12.2006C90.9147 12.2049 91.0406 12.2113 91.126 12.2198V13.7567C91.0748 13.7439 90.9574 13.7247 90.7738 13.6991C90.5945 13.6692 90.4045 13.6543 90.2039 13.6543C89.7257 13.6543 89.2988 13.7546 88.9231 13.9552C88.5517 14.1516 88.2571 14.4248 88.0394 14.7749C87.826 15.1207 87.7192 15.5156 87.7192 15.9596V22.184H86.208ZM97.8114 12.3479V13.6286H92.7141V12.3479H97.8114ZM94.1998 9.99135H95.711V19.3663C95.711 19.7933 95.7729 20.1134 95.8967 20.3269C96.0248 20.5361 96.187 20.677 96.3834 20.7495C96.5841 20.8178 96.7954 20.852 97.0174 20.852C97.1839 20.852 97.3205 20.8435 97.4272 20.8264C97.5339 20.805 97.6193 20.788 97.6834 20.7751L97.9907 22.1327C97.8883 22.1712 97.7453 22.2096 97.5617 22.248C97.3781 22.2907 97.1455 22.312 96.8637 22.312C96.4368 22.312 96.0184 22.2202 95.6086 22.0367C95.203 21.8531 94.8657 21.5735 94.5968 21.1978C94.3321 20.8221 94.1998 20.3482 94.1998 19.7762V9.99135ZM100.085 22.184V12.3479H101.596V22.184H100.085ZM100.853 10.7086C100.559 10.7086 100.305 10.6082 100.091 10.4076C99.882 10.2069 99.7774 9.96573 99.7774 9.68397C99.7774 9.40221 99.882 9.161 100.091 8.96035C100.305 8.75971 100.559 8.65938 100.853 8.65938C101.148 8.65938 101.4 8.75971 101.609 8.96035C101.822 9.161 101.929 9.40221 101.929 9.68397C101.929 9.96573 101.822 10.2069 101.609 10.4076C101.4 10.6082 101.148 10.7086 100.853 10.7086ZM108.744 12.3479V13.6286H103.442V12.3479H108.744ZM105.03 22.184V10.9903C105.03 10.4268 105.162 9.95719 105.427 9.58151C105.692 9.20583 106.035 8.92407 106.458 8.73622C106.881 8.54838 107.327 8.45446 107.796 8.45446C108.168 8.45446 108.471 8.48435 108.706 8.54411C108.941 8.60388 109.116 8.65938 109.231 8.71061L108.795 10.017C108.719 9.99135 108.612 9.95933 108.475 9.92091C108.343 9.88248 108.168 9.86327 107.95 9.86327C107.451 9.86327 107.09 9.98921 106.868 10.2411C106.65 10.493 106.541 10.8622 106.541 11.3489V22.184H105.03ZM113.475 22.4145C112.852 22.4145 112.286 22.2971 111.778 22.0623C111.27 21.8232 110.866 21.4796 110.568 21.0313C110.269 20.5788 110.119 20.0323 110.119 19.392C110.119 18.8284 110.23 18.3716 110.452 18.0216C110.674 17.6672 110.971 17.3897 111.342 17.1891C111.714 16.9884 112.124 16.839 112.572 16.7408C113.024 16.6384 113.479 16.5573 113.936 16.4975C114.534 16.4206 115.018 16.363 115.39 16.3246C115.765 16.2819 116.038 16.2115 116.209 16.1133C116.384 16.0151 116.472 15.8443 116.472 15.601V15.5497C116.472 14.9179 116.299 14.427 115.953 14.0769C115.612 13.7268 115.093 13.5518 114.397 13.5518C113.675 13.5518 113.11 13.7098 112.7 14.0257C112.29 14.3416 112.002 14.6788 111.836 15.0374L110.401 14.5252C110.657 13.9275 110.999 13.4621 111.426 13.1292C111.857 12.7919 112.326 12.5571 112.834 12.4247C113.347 12.2881 113.851 12.2198 114.346 12.2198C114.662 12.2198 115.025 12.2583 115.434 12.3351C115.848 12.4077 116.248 12.5592 116.632 12.7898C117.02 13.0203 117.343 13.3682 117.599 13.8336C117.855 14.2989 117.983 14.9222 117.983 15.7034V22.184H116.472V20.852H116.395C116.292 21.0654 116.122 21.2938 115.883 21.5372C115.644 21.7805 115.326 21.9876 114.928 22.1583C114.531 22.3291 114.047 22.4145 113.475 22.4145ZM113.705 21.0569C114.303 21.0569 114.807 20.9395 115.217 20.7047C115.631 20.4699 115.942 20.1668 116.152 19.7954C116.365 19.424 116.472 19.0333 116.472 18.6235V17.2403C116.408 17.3172 116.267 17.3876 116.049 17.4516C115.836 17.5114 115.588 17.5648 115.306 17.6117C115.029 17.6544 114.758 17.6928 114.493 17.727C114.233 17.7569 114.021 17.7825 113.859 17.8038C113.466 17.8551 113.099 17.9383 112.758 18.0536C112.42 18.1646 112.147 18.3332 111.938 18.5595C111.733 18.7815 111.631 19.0846 111.631 19.4688C111.631 19.9939 111.825 20.3909 112.213 20.6599C112.606 20.9246 113.103 21.0569 113.705 21.0569ZM124.737 22.3889C123.815 22.3889 123.021 22.1712 122.355 21.7357C121.689 21.3003 121.177 20.7004 120.818 19.9363C120.46 19.1721 120.28 18.2991 120.28 17.3172C120.28 16.3182 120.464 15.4366 120.831 14.6724C121.202 13.904 121.719 13.3042 122.381 12.873C123.047 12.4376 123.824 12.2198 124.712 12.2198C125.403 12.2198 126.027 12.3479 126.582 12.604C127.137 12.8602 127.591 13.2188 127.946 13.6799C128.3 14.1409 128.52 14.6788 128.605 15.2936H127.094C126.979 14.8453 126.722 14.4483 126.325 14.1025C125.933 13.7524 125.403 13.5774 124.737 13.5774C124.148 13.5774 123.632 13.7311 123.188 14.0385C122.748 14.3416 122.404 14.7706 122.157 15.3256C121.913 15.8763 121.792 16.5231 121.792 17.2659C121.792 18.0258 121.911 18.6875 122.15 19.2511C122.394 19.8146 122.735 20.2522 123.175 20.5638C123.619 20.8755 124.14 21.0313 124.737 21.0313C125.13 21.0313 125.487 20.963 125.807 20.8264C126.127 20.6898 126.398 20.4934 126.62 20.2372C126.842 19.9811 127 19.6737 127.094 19.3151H128.605C128.52 19.8957 128.308 20.4187 127.971 20.884C127.638 21.3451 127.196 21.7122 126.646 21.9854C126.099 22.2544 125.463 22.3889 124.737 22.3889ZM135.092 12.3479V13.6286H129.995V12.3479H135.092ZM131.48 9.99135H132.992V19.3663C132.992 19.7933 133.054 20.1134 133.177 20.3269C133.305 20.5361 133.468 20.677 133.664 20.7495C133.865 20.8178 134.076 20.852 134.298 20.852C134.465 20.852 134.601 20.8435 134.708 20.8264C134.815 20.805 134.9 20.788 134.964 20.7751L135.271 22.1327C135.169 22.1712 135.026 22.2096 134.842 22.248C134.659 22.2907 134.426 22.312 134.144 22.312C133.717 22.312 133.299 22.2202 132.889 22.0367C132.484 21.8531 132.146 21.5735 131.877 21.1978C131.613 20.8221 131.48 20.3482 131.48 19.7762V9.99135Z" fill="white"/>
<path d="M29.5182 97.5939V84.4791H33.9495C34.9741 84.4791 35.8151 84.6542 36.4726 85.0042C37.13 85.35 37.6167 85.826 37.9326 86.4323C38.2485 87.0385 38.4065 87.7279 38.4065 88.5006C38.4065 89.2734 38.2485 89.9585 37.9326 90.5562C37.6167 91.1539 37.1322 91.6235 36.479 91.965C35.8258 92.3023 34.9912 92.4709 33.9751 92.4709H30.3891V91.0365H33.9239C34.624 91.0365 35.1876 90.934 35.6145 90.7291C36.0457 90.5242 36.3573 90.2339 36.5494 89.8582C36.7458 89.4783 36.844 89.0257 36.844 88.5006C36.844 87.9755 36.7458 87.5166 36.5494 87.1238C36.353 86.7311 36.0393 86.428 35.6081 86.2145C35.1769 85.9968 34.607 85.8879 33.8983 85.8879H31.1063V97.5939H29.5182ZM35.6913 91.7025L38.9188 97.5939H37.0745L33.8983 91.7025H35.6913ZM44.8662 97.7988C43.9185 97.7988 43.1009 97.5896 42.4136 97.1712C41.7305 96.7486 41.2033 96.1594 40.8319 95.4038C40.4647 94.6439 40.2812 93.7602 40.2812 92.7527C40.2812 91.7452 40.4647 90.8572 40.8319 90.0888C41.2033 89.316 41.7199 88.7141 42.3816 88.2829C43.0476 87.8475 43.8245 87.6297 44.7125 87.6297C45.2248 87.6297 45.7307 87.7151 46.2302 87.8859C46.7297 88.0567 47.1843 88.3341 47.5942 88.7184C48.004 89.0983 48.3306 89.6021 48.5739 90.2296C48.8173 90.8572 48.9389 91.6299 48.9389 92.5478V93.1881H41.357V91.8818H47.4021C47.4021 91.3268 47.2911 90.8316 47.0691 90.3961C46.8513 89.9607 46.5397 89.617 46.1341 89.3651C45.7328 89.1133 45.259 88.9873 44.7125 88.9873C44.1106 88.9873 43.5897 89.1367 43.15 89.4356C42.7146 89.7301 42.3794 90.1144 42.1446 90.5882C41.9098 91.0621 41.7924 91.5701 41.7924 92.1123V92.9832C41.7924 93.726 41.9205 94.3557 42.1767 94.8723C42.4371 95.3846 42.7978 95.7752 43.2589 96.0442C43.7199 96.3089 44.2557 96.4412 44.8662 96.4412C45.2632 96.4412 45.6218 96.3857 45.942 96.2747C46.2665 96.1594 46.5461 95.9887 46.7809 95.7624C47.0157 95.5319 47.1971 95.2459 47.3252 94.9043L48.7853 95.3142C48.6316 95.8094 48.3733 96.2448 48.0104 96.6205C47.6475 96.9919 47.1993 97.2822 46.6656 97.4914C46.132 97.6963 45.5322 97.7988 44.8662 97.7988ZM57.9489 101.282V96.0826H57.8209C57.7099 96.2619 57.5519 96.4882 57.347 96.7614C57.1421 97.0303 56.8496 97.2716 56.4697 97.485C56.0897 97.6942 55.5838 97.7988 54.952 97.7988C54.1323 97.7988 53.4087 97.5917 52.7812 97.1776C52.1536 96.7593 51.6626 96.1701 51.3083 95.4102C50.954 94.646 50.7768 93.7431 50.7768 92.7015C50.7768 91.6683 50.954 90.7718 51.3083 90.0119C51.6626 89.252 52.1557 88.665 52.7876 88.2509C53.4194 87.8368 54.1494 87.6297 54.9776 87.6297C55.618 87.6297 56.1239 87.7365 56.4953 87.9499C56.871 88.1591 57.157 88.3982 57.3534 88.6671C57.554 88.9318 57.7099 89.1495 57.8209 89.3203H58.0002V87.7578H59.4602V101.282H57.9489ZM55.1569 96.4412C55.7631 96.4412 56.2754 96.2833 56.6938 95.9673C57.1122 95.6472 57.4302 95.2053 57.648 94.6418C57.8657 94.074 57.9745 93.4187 57.9745 92.6758C57.9745 91.9416 57.8678 91.2991 57.6544 90.7483C57.4409 90.1933 57.125 89.7622 56.7066 89.4548C56.2882 89.1431 55.7717 88.9873 55.1569 88.9873C54.5166 88.9873 53.9829 89.1517 53.556 89.4804C53.1334 89.8049 52.8153 90.2467 52.6019 90.806C52.3927 91.361 52.2881 91.9842 52.2881 92.6758C52.2881 93.376 52.3948 94.0121 52.6083 94.5841C52.826 95.1519 53.1462 95.6045 53.5688 95.9417C53.9957 96.2747 54.5251 96.4412 55.1569 96.4412ZM68.4254 93.5724V87.7578H69.9366V97.5939H68.4254V95.9289H68.3229C68.0924 96.4284 67.7338 96.8532 67.2471 97.2032C66.7604 97.549 66.1456 97.7219 65.4028 97.7219C64.7881 97.7219 64.2416 97.5875 63.7635 97.3185C63.2853 97.0453 62.9096 96.6355 62.6364 96.089C62.3632 95.5383 62.2266 94.8446 62.2266 94.0078V87.7578H63.7379V93.9054C63.7379 94.6226 63.9385 95.1946 64.3398 95.6215C64.7454 96.0484 65.2619 96.2619 65.8895 96.2619C66.2652 96.2619 66.6473 96.1659 67.0358 95.9737C67.4285 95.7816 67.7572 95.4871 68.0219 95.09C68.2909 94.693 68.4254 94.1871 68.4254 93.5724ZM72.7046 97.5939V87.7578H74.2159V97.5939H72.7046ZM73.4731 86.1185C73.1785 86.1185 72.9245 86.0181 72.711 85.8175C72.5018 85.6168 72.3972 85.3756 72.3972 85.0939C72.3972 84.8121 72.5018 84.5709 72.711 84.3703C72.9245 84.1696 73.1785 84.0693 73.4731 84.0693C73.7676 84.0693 74.0195 84.1696 74.2287 84.3703C74.4421 84.5709 74.5489 84.8121 74.5489 85.0939C74.5489 85.3756 74.4421 85.6168 74.2287 85.8175C74.0195 86.0181 73.7676 86.1185 73.4731 86.1185ZM76.9839 97.5939V87.7578H78.4439V89.2435H78.5464C78.7257 88.7568 79.0501 88.3619 79.5197 88.0588C79.9893 87.7557 80.5187 87.6041 81.1078 87.6041C81.2188 87.6041 81.3576 87.6063 81.5241 87.6105C81.6906 87.6148 81.8165 87.6212 81.9019 87.6297V89.1666C81.8507 89.1538 81.7333 89.1346 81.5497 89.109C81.3704 89.0791 81.1804 89.0642 80.9798 89.0642C80.5016 89.0642 80.0747 89.1645 79.699 89.3651C79.3276 89.5615 79.0331 89.8347 78.8153 90.1848C78.6019 90.5306 78.4951 90.9255 78.4951 91.3695V97.5939H76.9839ZM87.5179 97.7988C86.5702 97.7988 85.7527 97.5896 85.0653 97.1712C84.3823 96.7486 83.855 96.1594 83.4836 95.4038C83.1165 94.6439 82.9329 93.7602 82.9329 92.7527C82.9329 91.7452 83.1165 90.8572 83.4836 90.0888C83.855 89.316 84.3716 88.7141 85.0333 88.2829C85.6993 87.8475 86.4763 87.6297 87.3643 87.6297C87.8765 87.6297 88.3824 87.7151 88.8819 87.8859C89.3814 88.0567 89.8361 88.3341 90.2459 88.7184C90.6557 89.0983 90.9823 89.6021 91.2257 90.2296C91.469 90.8572 91.5907 91.6299 91.5907 92.5478V93.1881H84.0087V91.8818H90.0538C90.0538 91.3268 89.9428 90.8316 89.7208 90.3961C89.5031 89.9607 89.1914 89.617 88.7859 89.3651C88.3846 89.1133 87.9107 88.9873 87.3643 88.9873C86.7623 88.9873 86.2415 89.1367 85.8018 89.4356C85.3663 89.7301 85.0312 90.1144 84.7964 90.5882C84.5616 91.0621 84.4442 91.5701 84.4442 92.1123V92.9832C84.4442 93.726 84.5722 94.3557 84.8284 94.8723C85.0888 95.3846 85.4496 95.7752 85.9106 96.0442C86.3717 96.3089 86.9075 96.4412 87.5179 96.4412C87.915 96.4412 88.2736 96.3857 88.5938 96.2747C88.9182 96.1594 89.1978 95.9887 89.4326 95.7624C89.6674 95.5319 89.8489 95.2459 89.977 94.9043L91.437 95.3142C91.2833 95.8094 91.025 96.2448 90.6621 96.6205C90.2993 96.9919 89.851 97.2822 89.3174 97.4914C88.7837 97.6963 88.1839 97.7988 87.5179 97.7988ZM93.8896 97.5939V87.7578H95.3496V89.2947H95.4777C95.6826 88.7696 96.0135 88.3619 96.4703 88.0716C96.9271 87.777 97.4757 87.6297 98.116 87.6297C98.7649 87.6297 99.305 87.777 99.7362 88.0716C100.172 88.3619 100.511 88.7696 100.754 89.2947H100.857C101.109 88.7867 101.486 88.3832 101.99 88.0844C102.494 87.7813 103.098 87.6297 103.802 87.6297C104.682 87.6297 105.401 87.9051 105.961 88.4558C106.52 89.0023 106.799 89.854 106.799 91.0109V97.5939H105.288V91.0109C105.288 90.2851 105.09 89.7664 104.693 89.4548C104.296 89.1431 103.828 88.9873 103.29 88.9873C102.599 88.9873 102.063 89.1965 101.683 89.6149C101.303 90.029 101.113 90.5541 101.113 91.1902V97.5939H99.5761V90.8572C99.5761 90.2979 99.3946 89.8475 99.0318 89.506C98.6689 89.1602 98.2014 88.9873 97.6293 88.9873C97.2366 88.9873 96.8694 89.0919 96.5279 89.3011C96.1907 89.5103 95.9174 89.8006 95.7082 90.172C95.5033 90.5391 95.4009 90.9639 95.4009 91.4463V97.5939H93.8896ZM113.687 97.7988C112.739 97.7988 111.921 97.5896 111.234 97.1712C110.551 96.7486 110.024 96.1594 109.652 95.4038C109.285 94.6439 109.102 93.7602 109.102 92.7527C109.102 91.7452 109.285 90.8572 109.652 90.0888C110.024 89.316 110.54 88.7141 111.202 88.2829C111.868 87.8475 112.645 87.6297 113.533 87.6297C114.045 87.6297 114.551 87.7151 115.051 87.8859C115.55 88.0567 116.005 88.3341 116.415 88.7184C116.824 89.0983 117.151 89.6021 117.394 90.2296C117.638 90.8572 117.759 91.6299 117.759 92.5478V93.1881H110.177V91.8818H116.222C116.222 91.3268 116.111 90.8316 115.889 90.3961C115.672 89.9607 115.36 89.617 114.955 89.3651C114.553 89.1133 114.079 88.9873 113.533 88.9873C112.931 88.9873 112.41 89.1367 111.97 89.4356C111.535 89.7301 111.2 90.1144 110.965 90.5882C110.73 91.0621 110.613 91.5701 110.613 92.1123V92.9832C110.613 93.726 110.741 94.3557 110.997 94.8723C111.257 95.3846 111.618 95.7752 112.079 96.0442C112.54 96.3089 113.076 96.4412 113.687 96.4412C114.084 96.4412 114.442 96.3857 114.762 96.2747C115.087 96.1594 115.366 95.9887 115.601 95.7624C115.836 95.5319 116.018 95.2459 116.146 94.9043L117.606 95.3142C117.452 95.8094 117.194 96.2448 116.831 96.6205C116.468 96.9919 116.02 97.2822 115.486 97.4914C114.952 97.6963 114.353 97.7988 113.687 97.7988ZM121.57 91.6769V97.5939H120.058V87.7578H121.518V89.2947H121.646C121.877 88.7952 122.227 88.3939 122.697 88.0908C123.166 87.7834 123.772 87.6297 124.515 87.6297C125.181 87.6297 125.764 87.7664 126.263 88.0396C126.763 88.3085 127.151 88.7184 127.429 89.2691C127.706 89.8155 127.845 90.5071 127.845 91.3439V97.5939H126.334V91.4463C126.334 90.6736 126.133 90.0717 125.732 89.6405C125.331 89.205 124.78 88.9873 124.08 88.9873C123.597 88.9873 123.166 89.0919 122.786 89.3011C122.411 89.5103 122.114 89.8155 121.896 90.2168C121.678 90.6181 121.57 91.1048 121.57 91.6769ZM134.884 87.7578V89.0386H129.787V87.7578H134.884ZM131.273 85.4013H132.784V94.7763C132.784 95.2032 132.846 95.5233 132.97 95.7368C133.098 95.946 133.26 96.0869 133.456 96.1594C133.657 96.2278 133.868 96.2619 134.09 96.2619C134.257 96.2619 134.393 96.2534 134.5 96.2363C134.607 96.2149 134.692 96.1979 134.756 96.1851L135.064 97.5426C134.961 97.5811 134.818 97.6195 134.635 97.6579C134.451 97.7006 134.218 97.7219 133.937 97.7219C133.51 97.7219 133.091 97.6302 132.682 97.4466C132.276 97.263 131.939 96.9834 131.67 96.6077C131.405 96.232 131.273 95.7581 131.273 95.1861V85.4013Z" fill="white"/>
<path d="M51.7646 160.298V158.889H61.6006V160.298H57.4767V172.004H55.8885V160.298H51.7646ZM66.5443 172.209C65.5965 172.209 64.779 171.999 64.0917 171.581C63.4086 171.158 62.8814 170.569 62.5099 169.814C62.1428 169.054 61.9592 168.17 61.9592 167.162C61.9592 166.155 62.1428 165.267 62.5099 164.499C62.8814 163.726 63.3979 163.124 64.0596 162.693C64.7256 162.257 65.5026 162.04 66.3906 162.04C66.9029 162.04 67.4088 162.125 67.9083 162.296C68.4077 162.466 68.8624 162.744 69.2722 163.128C69.6821 163.508 70.0087 164.012 70.252 164.639C70.4953 165.267 70.617 166.04 70.617 166.958V167.598H63.0351V166.292H69.0801C69.0801 165.737 68.9691 165.241 68.7471 164.806C68.5294 164.37 68.2178 164.027 67.8122 163.775C67.4109 163.523 66.937 163.397 66.3906 163.397C65.7886 163.397 65.2678 163.547 64.8281 163.845C64.3926 164.14 64.0575 164.524 63.8227 164.998C63.5879 165.472 63.4705 165.98 63.4705 166.522V167.393C63.4705 168.136 63.5986 168.766 63.8547 169.282C64.1151 169.794 64.4759 170.185 64.9369 170.454C65.398 170.719 65.9338 170.851 66.5443 170.851C66.9413 170.851 67.2999 170.796 67.6201 170.685C67.9445 170.569 68.2242 170.398 68.459 170.172C68.6938 169.942 68.8752 169.656 69.0033 169.314L70.4633 169.724C70.3096 170.219 70.0514 170.655 69.6885 171.03C69.3256 171.402 68.8773 171.692 68.3437 171.901C67.8101 172.106 67.2103 172.209 66.5443 172.209ZM79.8831 164.37L78.5256 164.755C78.4402 164.528 78.3142 164.309 78.1478 164.095C77.9855 163.877 77.7635 163.698 77.4818 163.557C77.2 163.416 76.8393 163.346 76.3995 163.346C75.7976 163.346 75.296 163.485 74.8947 163.762C74.4977 164.035 74.2991 164.383 74.2991 164.806C74.2991 165.182 74.4357 165.478 74.709 165.696C74.9822 165.914 75.4091 166.095 75.9897 166.24L77.4497 166.599C78.3292 166.812 78.9845 167.139 79.4157 167.579C79.8469 168.014 80.0625 168.576 80.0625 169.263C80.0625 169.826 79.9002 170.33 79.5758 170.774C79.2556 171.218 78.8073 171.568 78.231 171.824C77.6547 172.081 76.9844 172.209 76.2202 172.209C75.217 172.209 74.3867 171.991 73.7292 171.555C73.0718 171.12 72.6555 170.484 72.4805 169.647L73.9149 169.289C74.0515 169.818 74.3098 170.215 74.6898 170.48C75.074 170.744 75.5756 170.877 76.1946 170.877C76.899 170.877 77.4583 170.727 77.8724 170.428C78.2908 170.125 78.5 169.762 78.5 169.34C78.5 168.998 78.3804 168.712 78.1413 168.482C77.9023 168.247 77.5351 168.072 77.0399 167.957L75.4006 167.572C74.4998 167.359 73.8381 167.028 73.4154 166.58C72.9971 166.127 72.7879 165.562 72.7879 164.883C72.7879 164.328 72.9437 163.837 73.2553 163.41C73.5713 162.983 74.0003 162.648 74.5425 162.405C75.0889 162.161 75.7079 162.04 76.3995 162.04C77.3729 162.04 78.1371 162.253 78.6921 162.68C79.2513 163.107 79.6483 163.67 79.8831 164.37ZM86.615 162.168V163.448H81.5177V162.168H86.615ZM83.0033 159.811H84.5146V169.186C84.5146 169.613 84.5765 169.933 84.7003 170.147C84.8284 170.356 84.9906 170.497 85.187 170.569C85.3876 170.638 85.599 170.672 85.821 170.672C85.9875 170.672 86.1241 170.663 86.2308 170.646C86.3375 170.625 86.4229 170.608 86.4869 170.595L86.7943 171.952C86.6919 171.991 86.5488 172.029 86.3653 172.068C86.1817 172.11 85.949 172.132 85.6673 172.132C85.2404 172.132 84.822 172.04 84.4122 171.856C84.0066 171.673 83.6693 171.393 83.4004 171.017C83.1357 170.642 83.0033 170.168 83.0033 169.596V159.811ZM104.718 162.987H103.13C103.036 162.53 102.872 162.129 102.637 161.783C102.406 161.438 102.125 161.147 101.792 160.912C101.463 160.673 101.098 160.494 100.697 160.375C100.295 160.255 99.877 160.195 99.4416 160.195C98.6475 160.195 97.9282 160.396 97.2836 160.797C96.6432 161.199 96.133 161.79 95.7531 162.571C95.3774 163.352 95.1895 164.311 95.1895 165.446C95.1895 166.582 95.3774 167.54 95.7531 168.322C96.133 169.103 96.6432 169.694 97.2836 170.095C97.9282 170.497 98.6475 170.697 99.4416 170.697C99.877 170.697 100.295 170.638 100.697 170.518C101.098 170.398 101.463 170.221 101.792 169.987C102.125 169.747 102.406 169.455 102.637 169.109C102.872 168.759 103.036 168.358 103.13 167.905H104.718C104.599 168.576 104.381 169.175 104.065 169.705C103.749 170.234 103.356 170.685 102.887 171.056C102.417 171.423 101.89 171.703 101.305 171.895C100.724 172.087 100.103 172.183 99.4416 172.183C98.3231 172.183 97.3284 171.91 96.4575 171.363C95.5866 170.817 94.9014 170.04 94.4019 169.032C93.9024 168.025 93.6527 166.829 93.6527 165.446C93.6527 164.063 93.9024 162.868 94.4019 161.86C94.9014 160.853 95.5866 160.076 96.4575 159.529C97.3284 158.983 98.3231 158.71 99.4416 158.71C100.103 158.71 100.724 158.806 101.305 158.998C101.89 159.19 102.417 159.472 102.887 159.843C103.356 160.21 103.749 160.658 104.065 161.188C104.381 161.713 104.599 162.313 104.718 162.987ZM109.974 172.234C109.351 172.234 108.785 172.117 108.277 171.882C107.769 171.643 107.366 171.299 107.067 170.851C106.768 170.398 106.619 169.852 106.619 169.212C106.619 168.648 106.73 168.191 106.952 167.841C107.174 167.487 107.47 167.209 107.842 167.009C108.213 166.808 108.623 166.659 109.071 166.561C109.524 166.458 109.978 166.377 110.435 166.317C111.033 166.24 111.517 166.183 111.889 166.144C112.264 166.102 112.538 166.031 112.708 165.933C112.883 165.835 112.971 165.664 112.971 165.421V165.369C112.971 164.738 112.798 164.247 112.452 163.897C112.111 163.547 111.592 163.371 110.896 163.371C110.175 163.371 109.609 163.529 109.199 163.845C108.789 164.161 108.501 164.499 108.335 164.857L106.9 164.345C107.156 163.747 107.498 163.282 107.925 162.949C108.356 162.612 108.826 162.377 109.334 162.244C109.846 162.108 110.35 162.04 110.845 162.04C111.161 162.04 111.524 162.078 111.934 162.155C112.348 162.227 112.747 162.379 113.131 162.609C113.52 162.84 113.842 163.188 114.098 163.653C114.354 164.119 114.482 164.742 114.482 165.523V172.004H112.971V170.672H112.894C112.792 170.885 112.621 171.114 112.382 171.357C112.143 171.6 111.825 171.807 111.428 171.978C111.031 172.149 110.546 172.234 109.974 172.234ZM110.205 170.877C110.802 170.877 111.306 170.759 111.716 170.524C112.13 170.29 112.442 169.987 112.651 169.615C112.864 169.244 112.971 168.853 112.971 168.443V167.06C112.907 167.137 112.766 167.207 112.548 167.271C112.335 167.331 112.087 167.384 111.806 167.431C111.528 167.474 111.257 167.513 110.992 167.547C110.732 167.577 110.521 167.602 110.358 167.624C109.966 167.675 109.598 167.758 109.257 167.873C108.92 167.984 108.646 168.153 108.437 168.379C108.232 168.601 108.13 168.904 108.13 169.289C108.13 169.814 108.324 170.211 108.713 170.48C109.105 170.744 109.603 170.877 110.205 170.877ZM124.208 164.37L122.85 164.755C122.765 164.528 122.639 164.309 122.472 164.095C122.31 163.877 122.088 163.698 121.806 163.557C121.525 163.416 121.164 163.346 120.724 163.346C120.122 163.346 119.621 163.485 119.219 163.762C118.822 164.035 118.624 164.383 118.624 164.806C118.624 165.182 118.76 165.478 119.034 165.696C119.307 165.914 119.734 166.095 120.314 166.24L121.774 166.599C122.654 166.812 123.309 167.139 123.74 167.579C124.172 168.014 124.387 168.576 124.387 169.263C124.387 169.826 124.225 170.33 123.9 170.774C123.58 171.218 123.132 171.568 122.556 171.824C121.979 172.081 121.309 172.209 120.545 172.209C119.542 172.209 118.711 171.991 118.054 171.555C117.396 171.12 116.98 170.484 116.805 169.647L118.24 169.289C118.376 169.818 118.635 170.215 119.014 170.48C119.399 170.744 119.9 170.877 120.519 170.877C121.224 170.877 121.783 170.727 122.197 170.428C122.615 170.125 122.825 169.762 122.825 169.34C122.825 168.998 122.705 168.712 122.466 168.482C122.227 168.247 121.86 168.072 121.365 167.957L119.725 167.572C118.824 167.359 118.163 167.028 117.74 166.58C117.322 166.127 117.113 165.562 117.113 164.883C117.113 164.328 117.268 163.837 117.58 163.41C117.896 162.983 118.325 162.648 118.867 162.405C119.414 162.161 120.033 162.04 120.724 162.04C121.698 162.04 122.462 162.253 123.017 162.68C123.576 163.107 123.973 163.67 124.208 164.37ZM130.786 172.209C129.838 172.209 129.021 171.999 128.333 171.581C127.65 171.158 127.123 170.569 126.752 169.814C126.385 169.054 126.201 168.17 126.201 167.162C126.201 166.155 126.385 165.267 126.752 164.499C127.123 163.726 127.64 163.124 128.301 162.693C128.967 162.257 129.744 162.04 130.632 162.04C131.145 162.04 131.651 162.125 132.15 162.296C132.649 162.466 133.104 162.744 133.514 163.128C133.924 163.508 134.25 164.012 134.494 164.639C134.737 165.267 134.859 166.04 134.859 166.958V167.598H127.277V166.292H133.322C133.322 165.737 133.211 165.241 132.989 164.806C132.771 164.37 132.46 164.027 132.054 163.775C131.653 163.523 131.179 163.397 130.632 163.397C130.03 163.397 129.51 163.547 129.07 163.845C128.634 164.14 128.299 164.524 128.064 164.998C127.83 165.472 127.712 165.98 127.712 166.522V167.393C127.712 168.136 127.84 168.766 128.096 169.282C128.357 169.794 128.718 170.185 129.179 170.454C129.64 170.719 130.176 170.851 130.786 170.851C131.183 170.851 131.542 170.796 131.862 170.685C132.186 170.569 132.466 170.398 132.701 170.172C132.936 169.942 133.117 169.656 133.245 169.314L134.705 169.724C134.551 170.219 134.293 170.655 133.93 171.03C133.567 171.402 133.119 171.692 132.585 171.901C132.052 172.106 131.452 172.209 130.786 172.209Z" fill="white"/>
<path d="M124.346 53.3164C124.346 54.3402 124.169 55.2348 123.813 56.0002C123.458 56.7623 122.964 57.3549 122.331 57.778C121.701 58.2011 120.975 58.4126 120.151 58.4126C119.324 58.4126 118.594 58.2011 117.961 57.778C117.332 57.3517 116.839 56.7575 116.484 55.9953C116.129 55.2299 115.951 54.3369 115.951 53.3164C115.951 52.2926 116.129 51.3997 116.484 50.6375C116.842 49.8753 117.336 49.2827 117.966 48.8597C118.596 48.4334 119.324 48.2202 120.151 48.2202C120.975 48.2202 121.701 48.4317 122.331 48.8548C122.964 49.2779 123.458 49.8721 123.813 50.6375C124.169 51.3997 124.346 52.2926 124.346 53.3164ZM123.755 53.3164C123.755 52.396 123.6 51.5983 123.29 50.9233C122.983 50.2484 122.559 49.7268 122.016 49.3586C121.473 48.9872 120.852 48.8015 120.151 48.8015C119.45 48.8015 118.829 48.9856 118.286 49.3538C117.743 49.7187 117.317 50.2403 117.007 50.9185C116.7 51.5935 116.547 52.3928 116.547 53.3164C116.547 54.2304 116.699 55.0265 117.002 55.7047C117.309 56.3796 117.734 56.9028 118.276 57.2742C118.819 57.6456 119.444 57.8313 120.151 57.8313C120.852 57.8313 121.473 57.6472 122.016 57.2791C122.559 56.9077 122.983 56.3845 123.29 55.7095C123.6 55.0345 123.755 54.2368 123.755 53.3164ZM126.713 58.277V48.3558H129.769C130.396 48.3558 130.935 48.4786 131.387 48.724C131.839 48.9695 132.187 49.3102 132.429 49.7462C132.671 50.1789 132.792 50.6827 132.792 51.2576C132.792 51.826 132.671 52.3266 132.429 52.7593C132.187 53.1888 131.839 53.5247 131.387 53.7669C130.938 54.0091 130.401 54.1303 129.774 54.1303H127.037V53.5635H129.76C130.27 53.5635 130.706 53.4682 131.068 53.2777C131.429 53.0871 131.707 52.8207 131.901 52.4783C132.095 52.1328 132.192 51.7259 132.192 51.2576C132.192 50.7861 132.095 50.3759 131.901 50.0271C131.707 49.6751 131.428 49.4022 131.063 49.2084C130.701 49.0147 130.265 48.9178 129.755 48.9178H127.318V58.277H126.713ZM130.787 53.7815L133.228 58.277H132.531L130.104 53.7815H130.787Z" fill="white"/>
<path d="M124.346 128.345C124.346 129.369 124.169 130.263 123.813 131.029C123.458 131.791 122.964 132.384 122.331 132.807C121.701 133.23 120.975 133.441 120.151 133.441C119.324 133.441 118.594 133.23 117.961 132.807C117.332 132.38 116.839 131.786 116.484 131.024C116.129 130.259 115.951 129.366 115.951 128.345C115.951 127.321 116.129 126.428 116.484 125.666C116.842 124.904 117.336 124.311 117.966 123.888C118.596 123.462 119.324 123.249 120.151 123.249C120.975 123.249 121.701 123.46 122.331 123.883C122.964 124.307 123.458 124.901 123.813 125.666C124.169 126.428 124.346 127.321 124.346 128.345ZM123.755 128.345C123.755 127.425 123.6 126.627 123.29 125.952C122.983 125.277 122.559 124.755 122.016 124.387C121.473 124.016 120.852 123.83 120.151 123.83C119.45 123.83 118.829 124.014 118.286 124.382C117.743 124.747 117.317 125.269 117.007 125.947C116.7 126.622 116.547 127.421 116.547 128.345C116.547 129.259 116.699 130.055 117.002 130.733C117.309 131.408 117.734 131.931 118.276 132.303C118.819 132.674 119.444 132.86 120.151 132.86C120.852 132.86 121.473 132.676 122.016 132.308C122.559 131.936 122.983 131.413 123.29 130.738C123.6 130.063 123.755 129.265 123.755 128.345ZM126.713 133.306V123.384H129.769C130.396 123.384 130.935 123.507 131.387 123.753C131.839 123.998 132.187 124.339 132.429 124.775C132.671 125.208 132.792 125.711 132.792 126.286C132.792 126.855 132.671 127.355 132.429 127.788C132.187 128.217 131.839 128.553 131.387 128.796C130.938 129.038 130.401 129.159 129.774 129.159H127.037V128.592H129.76C130.27 128.592 130.706 128.497 131.068 128.306C131.429 128.116 131.707 127.849 131.901 127.507C132.095 127.161 132.192 126.754 132.192 126.286C132.192 125.815 132.095 125.405 131.901 125.056C131.707 124.704 131.428 124.431 131.063 124.237C130.701 124.043 130.265 123.946 129.755 123.946H127.318V133.306H126.713ZM130.787 128.81L133.228 133.306H132.531L130.104 128.81H130.787Z" fill="white"/>
<line x1="186.216" y1="15.5937" x2="158.933" y2="15.5937" stroke="white" stroke-width="1.63934"/>
<line x1="187.67" y1="167.105" x2="187.67" y2="14.7743" stroke="white" stroke-width="1.63934"/>
<line x1="186.216" y1="90.6223" x2="158.933" y2="90.6223" stroke="white" stroke-width="1.63934"/>
<line x1="239.309" y1="90.6223" x2="188.49" y2="90.6223" stroke="white" stroke-width="1.63934"/>
<line x1="186.216" y1="165.651" x2="158.933" y2="165.651" stroke="white" stroke-width="1.63934"/>
<rect x="242.037" y="1.1368" width="213.677" height="187.91" stroke="white" stroke-width="2.27359"/>
<line x1="294.305" y1="67.939" x2="267.022" y2="67.939" stroke="white" stroke-width="2.27359"/>
<line x1="268.159" y1="144.104" x2="268.159" y2="66.8022" stroke="white" stroke-width="2.27359"/>
<line x1="269.296" y1="142.968" x2="260.201" y2="142.968" stroke="white" stroke-width="2.27359"/>
<rect x="296.521" y="104.889" width="119.199" height="38.2172" rx="7.95757" stroke="white" stroke-width="2.27359"/>
<path d="M315.584 110.884H324.677C329.072 110.884 332.635 114.447 332.635 118.842V127.936C332.635 132.331 329.072 135.894 324.677 135.894H315.584C311.189 135.894 307.626 132.331 307.626 127.936V118.842C307.626 114.447 311.189 110.884 315.584 110.884Z" stroke="white" stroke-width="2.27359"/>
<path d="M320.13 117.326L320.13 129.452" stroke="white" stroke-width="2.27359" stroke-linejoin="round"/>
<path d="M326.193 123.389L314.068 123.389" stroke="white" stroke-width="2.27359" stroke-linejoin="round"/>
<path d="M343.221 119.691V118.282H353.057V119.691H348.933V131.397H347.345V119.691H343.221ZM355.149 135.085C354.893 135.085 354.665 135.064 354.464 135.021C354.263 134.983 354.125 134.945 354.048 134.906L354.432 133.574C354.799 133.668 355.124 133.702 355.405 133.677C355.687 133.651 355.937 133.525 356.155 133.299C356.377 133.077 356.579 132.716 356.763 132.217L357.045 131.448L353.408 121.561H355.047L357.762 129.399H357.864L360.58 121.561H362.219L358.044 132.831C357.856 133.339 357.623 133.76 357.346 134.093C357.068 134.43 356.746 134.68 356.379 134.842C356.016 135.004 355.606 135.085 355.149 135.085ZM364.214 135.085V121.561H365.674V123.123H365.853C365.964 122.953 366.118 122.735 366.314 122.47C366.515 122.201 366.801 121.962 367.172 121.753C367.548 121.54 368.056 121.433 368.696 121.433C369.525 121.433 370.255 121.64 370.886 122.054C371.518 122.468 372.011 123.055 372.366 123.815C372.72 124.575 372.897 125.471 372.897 126.504C372.897 127.546 372.72 128.449 372.366 129.213C372.011 129.973 371.52 130.562 370.893 130.981C370.265 131.395 369.542 131.602 368.722 131.602C368.09 131.602 367.584 131.497 367.204 131.288C366.824 131.075 366.532 130.833 366.327 130.564C366.122 130.291 365.964 130.065 365.853 129.886H365.725V135.085H364.214ZM365.699 126.479C365.699 127.222 365.808 127.877 366.026 128.445C366.244 129.008 366.562 129.45 366.98 129.77C367.398 130.086 367.911 130.244 368.517 130.244C369.149 130.244 369.676 130.078 370.099 129.745C370.526 129.408 370.846 128.955 371.059 128.387C371.277 127.815 371.386 127.179 371.386 126.479C371.386 125.787 371.279 125.164 371.066 124.609C370.856 124.05 370.538 123.608 370.112 123.283C369.689 122.955 369.157 122.79 368.517 122.79C367.902 122.79 367.386 122.946 366.967 123.258C366.549 123.565 366.233 123.996 366.02 124.551C365.806 125.102 365.699 125.745 365.699 126.479ZM379.326 131.602C378.379 131.602 377.561 131.393 376.874 130.974C376.191 130.552 375.664 129.962 375.292 129.207C374.925 128.447 374.741 127.563 374.741 126.556C374.741 125.548 374.925 124.66 375.292 123.892C375.664 123.119 376.18 122.517 376.842 122.086C377.508 121.651 378.285 121.433 379.173 121.433C379.685 121.433 380.191 121.518 380.69 121.689C381.19 121.86 381.645 122.137 382.054 122.521C382.464 122.901 382.791 123.405 383.034 124.033C383.277 124.66 383.399 125.433 383.399 126.351V126.991H375.817V125.685H381.862C381.862 125.13 381.751 124.635 381.529 124.199C381.312 123.764 381 123.42 380.594 123.168C380.193 122.916 379.719 122.79 379.173 122.79C378.571 122.79 378.05 122.94 377.61 123.239C377.175 123.533 376.84 123.917 376.605 124.391C376.37 124.865 376.253 125.373 376.253 125.915V126.786C376.253 127.529 376.381 128.159 376.637 128.675C376.897 129.188 377.258 129.578 377.719 129.847C378.18 130.112 378.716 130.244 379.326 130.244C379.723 130.244 380.082 130.189 380.402 130.078C380.727 129.962 381.006 129.792 381.241 129.565C381.476 129.335 381.657 129.049 381.785 128.707L383.245 129.117C383.092 129.612 382.833 130.048 382.471 130.424C382.108 130.795 381.659 131.085 381.126 131.294C380.592 131.499 379.992 131.602 379.326 131.602Z" fill="white"/>
<rect x="296.135" y="47.3208" width="101.005" height="38.71" rx="7.95757" stroke="white" stroke-width="2.27359"/>
<path d="M317.125 74.0198H315.46L320.276 60.905H321.915L326.73 74.0198H325.065L321.146 62.9798H321.044L317.125 74.0198ZM317.74 68.8968H324.451V70.3056H317.74V68.8968ZM328.568 74.0198V64.1837H330.028V65.6694H330.131C330.31 65.1827 330.635 64.7878 331.104 64.4847C331.574 64.1816 332.103 64.03 332.692 64.03C332.803 64.03 332.942 64.0322 333.109 64.0364C333.275 64.0407 333.401 64.0471 333.486 64.0556V65.5925C333.435 65.5797 333.318 65.5605 333.134 65.5349C332.955 65.505 332.765 65.4901 332.564 65.4901C332.086 65.4901 331.659 65.5904 331.283 65.791C330.912 65.9874 330.617 66.2606 330.4 66.6107C330.186 66.9565 330.08 67.3514 330.08 67.7954V74.0198H328.568ZM340.172 64.1837V65.4645H335.074V64.1837H340.172ZM336.56 61.8272H338.071V71.2022C338.071 71.6291 338.133 71.9493 338.257 72.1627C338.385 72.3719 338.547 72.5128 338.744 72.5854C338.944 72.6537 339.156 72.6878 339.378 72.6878C339.544 72.6878 339.681 72.6793 339.788 72.6622C339.894 72.6408 339.98 72.6238 340.044 72.611L340.351 73.9685C340.249 74.007 340.106 74.0454 339.922 74.0838C339.738 74.1265 339.506 74.1478 339.224 74.1478C338.797 74.1478 338.379 74.0561 337.969 73.8725C337.563 73.6889 337.226 73.4093 336.957 73.0336C336.692 72.6579 336.56 72.1841 336.56 71.612L336.56 61.8272ZM342.445 74.0198V64.1837H343.956V74.0198H342.445ZM343.214 62.5444C342.919 62.5444 342.665 62.4441 342.451 62.2434C342.242 62.0428 342.138 61.8015 342.138 61.5198C342.138 61.238 342.242 60.9968 342.451 60.7962C342.665 60.5955 342.919 60.4952 343.214 60.4952C343.508 60.4952 343.76 60.5955 343.969 60.7962C344.183 60.9968 344.289 61.238 344.289 61.5198C344.289 61.8015 344.183 62.0428 343.969 62.2434C343.76 62.4441 343.508 62.5444 343.214 62.5444ZM351.104 64.1837V65.4645H345.802V64.1837H351.104ZM347.39 74.0198V62.8261C347.39 62.2626 347.523 61.793 347.787 61.4173C348.052 61.0416 348.396 60.7599 348.818 60.572C349.241 60.3842 349.687 60.2903 350.157 60.2903C350.528 60.2903 350.831 60.3202 351.066 60.3799C351.301 60.4397 351.476 60.4952 351.591 60.5464L351.156 61.8528C351.079 61.8272 350.972 61.7951 350.836 61.7567C350.703 61.7183 350.528 61.6991 350.31 61.6991C349.811 61.6991 349.45 61.825 349.228 62.0769C349.01 62.3288 348.902 62.6981 348.902 63.1847V74.0198H347.39ZM355.835 74.2503C355.212 74.2503 354.646 74.1329 354.138 73.8981C353.63 73.659 353.227 73.3154 352.928 72.8671C352.629 72.4146 352.48 71.8681 352.48 71.2278C352.48 70.6642 352.591 70.2074 352.813 69.8574C353.035 69.503 353.331 69.2256 353.703 69.0249C354.074 68.8243 354.484 68.6748 354.932 68.5766C355.385 68.4742 355.839 68.3931 356.296 68.3333C356.894 68.2565 357.378 68.1988 357.75 68.1604C358.126 68.1177 358.399 68.0473 358.57 67.9491C358.745 67.8509 358.832 67.6801 358.832 67.4368V67.3856C358.832 66.7537 358.659 66.2628 358.313 65.9127C357.972 65.5626 357.453 65.3876 356.757 65.3876C356.036 65.3876 355.47 65.5456 355.06 65.8615C354.651 66.1774 354.362 66.5147 354.196 66.8733L352.761 66.361C353.018 65.7633 353.359 65.298 353.786 64.965C354.217 64.6277 354.687 64.3929 355.195 64.2606C355.707 64.124 356.211 64.0556 356.706 64.0556C357.022 64.0556 357.385 64.0941 357.795 64.1709C358.209 64.2435 358.608 64.395 358.992 64.6256C359.381 64.8561 359.703 65.204 359.959 65.6694C360.215 66.1347 360.343 66.758 360.343 67.5392V74.0198H358.832V72.6878H358.755C358.653 72.9013 358.482 73.1297 358.243 73.373C358.004 73.6163 357.686 73.8234 357.289 73.9942C356.892 74.1649 356.407 74.2503 355.835 74.2503ZM356.066 72.8927C356.663 72.8927 357.167 72.7753 357.577 72.5405C357.991 72.3057 358.303 72.0026 358.512 71.6312C358.725 71.2598 358.832 70.8692 358.832 70.4593V69.0761C358.768 69.153 358.627 69.2234 358.409 69.2875C358.196 69.3472 357.948 69.4006 357.667 69.4475C357.389 69.4902 357.118 69.5287 356.853 69.5628C356.593 69.5927 356.382 69.6183 356.219 69.6397C355.827 69.6909 355.46 69.7741 355.118 69.8894C354.781 70.0004 354.507 70.169 354.298 70.3953C354.093 70.6173 353.991 70.9204 353.991 71.3046C353.991 71.8297 354.185 72.2267 354.574 72.4957C354.966 72.7604 355.464 72.8927 356.066 72.8927ZM367.098 74.2247C366.176 74.2247 365.381 74.007 364.715 73.5715C364.05 73.1361 363.537 72.5363 363.179 71.7721C362.82 71.0079 362.641 70.1349 362.641 69.153C362.641 68.154 362.824 67.2724 363.191 66.5083C363.563 65.7398 364.079 65.14 364.741 64.7088C365.407 64.2734 366.184 64.0556 367.072 64.0556C367.764 64.0556 368.387 64.1837 368.942 64.4399C369.497 64.696 369.952 65.0546 370.306 65.5157C370.66 65.9767 370.88 66.5147 370.965 67.1294H369.454C369.339 66.6812 369.083 66.2841 368.686 65.9383C368.293 65.5883 367.764 65.4132 367.098 65.4132C366.509 65.4132 365.992 65.5669 365.548 65.8743C365.108 66.1774 364.765 66.6064 364.517 67.1614C364.274 67.7121 364.152 68.3589 364.152 69.1017C364.152 69.8617 364.272 70.5234 364.511 71.0869C364.754 71.6504 365.095 72.088 365.535 72.3996C365.979 72.7113 366.5 72.8671 367.098 72.8671C367.49 72.8671 367.847 72.7988 368.167 72.6622C368.487 72.5256 368.758 72.3292 368.98 72.0731C369.202 71.8169 369.36 71.5095 369.454 71.1509H370.965C370.88 71.7315 370.669 72.2545 370.332 72.7198C369.999 73.1809 369.557 73.548 369.006 73.8213C368.46 74.0902 367.823 74.2247 367.098 74.2247ZM377.452 64.1837V65.4645H372.355V64.1837H377.452ZM373.841 61.8272H375.352V71.2022C375.352 71.6291 375.414 71.9493 375.538 72.1627C375.666 72.3719 375.828 72.5128 376.024 72.5854C376.225 72.6537 376.436 72.6878 376.658 72.6878C376.825 72.6878 376.961 72.6793 377.068 72.6622C377.175 72.6408 377.26 72.6238 377.324 72.611L377.632 73.9685C377.529 74.007 377.386 74.0454 377.203 74.0838C377.019 74.1265 376.786 74.1478 376.505 74.1478C376.078 74.1478 375.659 74.0561 375.25 73.8725C374.844 73.6889 374.507 73.4093 374.238 73.0336C373.973 72.6579 373.841 72.1841 373.841 71.612V61.8272Z" fill="white"/>
<rect x="256.689" y="15.2922" width="182.912" height="162.053" stroke="white" stroke-width="1.1368" stroke-dasharray="2.27 2.27"/>
</svg>
