<svg width="397" height="271" viewBox="0 0 397 271" fill="none" xmlns="http://www.w3.org/2000/svg">
<path d="M248.731 21H247.59L250.89 12.0109H252.014L255.315 21H254.173L251.487 13.433H251.417L248.731 21ZM249.152 17.4886H253.752V18.4543H249.152V17.4886ZM256.574 21V14.2582L257.575 14.2582V15.2765H257.645C257.768 14.9429 257.991 14.6722 258.312 14.4645C258.634 14.2567 258.997 14.1528 259.401 14.1528C259.477 14.1528 259.572 14.1543 259.686 14.1572C259.8 14.1602 259.887 14.1645 259.945 14.1704V15.2238C259.91 15.215 259.83 15.2019 259.704 15.1843C259.581 15.1638 259.451 15.1536 259.313 15.1536C258.985 15.1536 258.693 15.2223 258.435 15.3599C258.181 15.4945 257.979 15.6817 257.83 15.9217C257.683 16.1587 257.61 16.4294 257.61 16.7337V21H256.574ZM264.528 14.2582V15.136H261.034V14.2582H264.528ZM262.052 12.643L263.088 12.643V19.0688C263.088 19.3614 263.13 19.5808 263.215 19.7271C263.303 19.8705 263.414 19.9671 263.549 20.0168C263.686 20.0636 263.831 20.087 263.983 20.087C264.097 20.087 264.191 20.0812 264.264 20.0695C264.337 20.0549 264.396 20.0432 264.44 20.0344L264.65 20.9649C264.58 20.9912 264.482 21.0176 264.356 21.0439C264.231 21.0732 264.071 21.0878 263.878 21.0878C263.585 21.0878 263.299 21.0249 263.018 20.899C262.74 20.7732 262.509 20.5816 262.324 20.3241C262.143 20.0666 262.052 19.7418 262.052 19.3497V12.643ZM266.086 21V14.2582H267.122V21H266.086ZM266.612 13.1345C266.411 13.1345 266.236 13.0658 266.09 12.9283C265.947 12.7907 265.875 12.6254 265.875 12.4323C265.875 12.2391 265.947 12.0738 266.09 11.9363C266.236 11.7988 266.411 11.73 266.612 11.73C266.814 11.73 266.987 11.7988 267.13 11.9363C267.277 12.0738 267.35 12.2391 267.35 12.4323C267.35 12.6254 267.277 12.7907 267.13 12.9283C266.987 13.0658 266.814 13.1345 266.612 13.1345ZM272.021 14.2582V15.136H268.387V14.2582H272.021ZM269.475 21V13.3277C269.475 12.9414 269.566 12.6195 269.747 12.362C269.929 12.1045 270.164 11.9114 270.454 11.7827C270.744 11.6539 271.05 11.5895 271.371 11.5895C271.626 11.5895 271.834 11.61 271.995 11.651C272.156 11.692 272.276 11.73 272.355 11.7651L272.056 12.6605C272.003 12.643 271.93 12.621 271.837 12.5947C271.746 12.5683 271.626 12.5552 271.477 12.5552C271.134 12.5552 270.887 12.6415 270.735 12.8141C270.586 12.9868 270.511 13.2399 270.511 13.5735V21H269.475ZM275.264 21.158C274.836 21.158 274.449 21.0775 274.1 20.9166C273.752 20.7527 273.476 20.5172 273.271 20.2099C273.066 19.8998 272.964 19.5252 272.964 19.0863C272.964 18.7001 273.04 18.387 273.192 18.147C273.344 17.9041 273.547 17.7139 273.802 17.5764C274.057 17.4389 274.337 17.3365 274.645 17.2692C274.955 17.1989 275.266 17.1434 275.58 17.1024C275.989 17.0497 276.321 17.0102 276.576 16.9839C276.833 16.9546 277.021 16.9063 277.138 16.839C277.258 16.7717 277.318 16.6547 277.318 16.4879V16.4528C277.318 16.0197 277.199 15.6832 276.962 15.4433C276.728 15.2033 276.373 15.0834 275.896 15.0834C275.401 15.0834 275.013 15.1916 274.732 15.4082C274.452 15.6247 274.254 15.8559 274.14 16.1016L273.157 15.7505C273.332 15.3409 273.566 15.0219 273.859 14.7937C274.155 14.5625 274.476 14.4016 274.825 14.3109C275.176 14.2172 275.521 14.1704 275.861 14.1704C276.077 14.1704 276.326 14.1967 276.607 14.2494C276.891 14.2991 277.164 14.403 277.427 14.561C277.694 14.719 277.915 14.9575 278.09 15.2765C278.266 15.5954 278.354 16.0226 278.354 16.5581V21H277.318V20.087H277.265C277.195 20.2334 277.078 20.3899 276.914 20.5567C276.75 20.7235 276.532 20.8654 276.26 20.9824C275.988 21.0995 275.656 21.158 275.264 21.158ZM275.422 20.2275C275.831 20.2275 276.177 20.147 276.457 19.9861C276.741 19.8252 276.955 19.6174 277.098 19.3628C277.245 19.1083 277.318 18.8405 277.318 18.5596V17.6115C277.274 17.6642 277.177 17.7125 277.028 17.7564C276.882 17.7973 276.712 17.8339 276.519 17.8661C276.329 17.8954 276.143 17.9217 275.961 17.9451C275.783 17.9656 275.638 17.9832 275.527 17.9978C275.258 18.0329 275.006 18.09 274.772 18.169C274.541 18.245 274.354 18.3606 274.21 18.5157C274.07 18.6679 273.999 18.8756 273.999 19.139C273.999 19.4989 274.133 19.771 274.399 19.9554C274.668 20.1368 275.009 20.2275 275.422 20.2275ZM282.983 21.1405C282.351 21.1405 281.807 20.9912 281.35 20.6928C280.894 20.3943 280.543 19.9832 280.297 19.4594C280.051 18.9356 279.928 18.3372 279.928 17.6642C279.928 16.9795 280.054 16.3752 280.306 15.8515C280.56 15.3248 280.914 14.9136 281.368 14.6181C281.824 14.3196 282.357 14.1704 282.966 14.1704C283.44 14.1704 283.867 14.2582 284.247 14.4338C284.628 14.6093 284.939 14.8551 285.182 15.1711C285.425 15.4872 285.576 15.8559 285.634 16.2772H284.598C284.519 15.97 284.344 15.6978 284.072 15.4608C283.802 15.2209 283.44 15.1009 282.983 15.1009C282.579 15.1009 282.225 15.2063 281.921 15.4169C281.62 15.6247 281.384 15.9188 281.214 16.2992C281.047 16.6766 280.964 17.1199 280.964 17.6291C280.964 18.1499 281.046 18.6035 281.21 18.9897C281.377 19.376 281.611 19.6759 281.912 19.8895C282.216 20.1031 282.573 20.2099 282.983 20.2099C283.252 20.2099 283.497 20.1631 283.716 20.0695C283.936 19.9759 284.121 19.8413 284.274 19.6657C284.426 19.4901 284.534 19.2794 284.598 19.0336H285.634C285.576 19.4316 285.431 19.79 285.2 20.109C284.971 20.425 284.669 20.6767 284.291 20.8639C283.917 21.0483 283.481 21.1405 282.983 21.1405ZM290.08 14.2582V15.136H286.587V14.2582H290.08ZM287.605 12.643H288.641V19.0688C288.641 19.3614 288.683 19.5808 288.768 19.7271C288.856 19.8705 288.967 19.9671 289.102 20.0168C289.239 20.0636 289.384 20.087 289.536 20.087C289.65 20.087 289.744 20.0812 289.817 20.0695C289.89 20.0549 289.949 20.0432 289.993 20.0344L290.203 20.9649C290.133 20.9912 290.035 21.0176 289.909 21.0439C289.783 21.0732 289.624 21.0878 289.431 21.0878C289.138 21.0878 288.851 21.0249 288.571 20.899C288.293 20.7732 288.061 20.5816 287.877 20.3241C287.696 20.0666 287.605 19.7418 287.605 19.3497V12.643Z" fill="white"/>
<path d="M187.119 116.07C186.902 116.07 186.717 115.993 186.561 115.838C186.406 115.683 186.329 115.497 186.329 115.28C186.329 115.064 186.406 114.878 186.561 114.723C186.717 114.568 186.902 114.49 187.119 114.49C187.335 114.49 187.521 114.568 187.676 114.723C187.831 114.878 187.909 115.064 187.909 115.28C187.909 115.424 187.872 115.555 187.799 115.675C187.729 115.795 187.634 115.892 187.514 115.965C187.397 116.035 187.265 116.07 187.119 116.07ZM190.523 116.07C190.306 116.07 190.12 115.993 189.965 115.838C189.81 115.683 189.733 115.497 189.733 115.28C189.733 115.064 189.81 114.878 189.965 114.723C190.12 114.568 190.306 114.49 190.523 114.49C190.739 114.49 190.925 114.568 191.08 114.723C191.235 114.878 191.313 115.064 191.313 115.28C191.313 115.424 191.276 115.555 191.203 115.675C191.133 115.795 191.038 115.892 190.918 115.965C190.801 116.035 190.669 116.07 190.523 116.07ZM193.927 116.07C193.71 116.07 193.524 115.993 193.369 115.838C193.214 115.683 193.136 115.497 193.136 115.28C193.136 115.064 193.214 114.878 193.369 114.723C193.524 114.568 193.71 114.49 193.927 114.49C194.143 114.49 194.329 114.568 194.484 114.723C194.639 114.878 194.717 115.064 194.717 115.28C194.717 115.424 194.68 115.555 194.607 115.675C194.537 115.795 194.442 115.892 194.322 115.965C194.205 116.035 194.073 116.07 193.927 116.07Z" fill="white"/>
<path d="M165.672 152V143.011H168.814C169.44 143.011 169.957 143.119 170.364 143.336C170.77 143.549 171.073 143.838 171.272 144.2C171.471 144.56 171.571 144.96 171.571 145.399C171.571 145.785 171.502 146.104 171.364 146.355C171.23 146.607 171.051 146.806 170.829 146.952C170.609 147.099 170.371 147.207 170.113 147.277V147.365C170.388 147.383 170.665 147.479 170.943 147.655C171.221 147.83 171.454 148.082 171.641 148.41C171.828 148.737 171.922 149.138 171.922 149.612C171.922 150.063 171.819 150.468 171.615 150.828C171.41 151.188 171.086 151.473 170.645 151.684C170.203 151.895 169.628 152 168.92 152H165.672ZM166.76 151.034H168.92C169.631 151.034 170.135 150.897 170.434 150.622C170.735 150.344 170.886 150.007 170.886 149.612C170.886 149.308 170.808 149.027 170.653 148.77C170.498 148.509 170.277 148.301 169.991 148.146C169.704 147.988 169.364 147.909 168.972 147.909H166.76V151.034ZM166.76 146.961H168.779C169.107 146.961 169.402 146.897 169.666 146.768C169.932 146.639 170.143 146.458 170.298 146.224C170.456 145.99 170.535 145.715 170.535 145.399C170.535 145.004 170.397 144.669 170.122 144.394C169.847 144.116 169.411 143.977 168.814 143.977H166.76V146.961ZM173.57 152V145.258H174.571V146.276H174.641C174.764 145.943 174.986 145.672 175.308 145.464C175.63 145.257 175.993 145.153 176.397 145.153C176.473 145.153 176.568 145.154 176.682 145.157C176.796 145.16 176.882 145.165 176.941 145.17V146.224C176.906 146.215 176.825 146.202 176.699 146.184C176.577 146.164 176.446 146.154 176.309 146.154C175.981 146.154 175.688 146.222 175.431 146.36C175.176 146.494 174.974 146.682 174.825 146.922C174.679 147.159 174.606 147.429 174.606 147.734V152H173.57ZM180.153 152.158C179.725 152.158 179.338 152.078 178.99 151.917C178.641 151.753 178.365 151.517 178.16 151.21C177.955 150.9 177.853 150.525 177.853 150.086C177.853 149.7 177.929 149.387 178.081 149.147C178.233 148.904 178.436 148.714 178.691 148.576C178.946 148.439 179.227 148.336 179.534 148.269C179.844 148.199 180.156 148.143 180.469 148.102C180.878 148.05 181.21 148.01 181.465 147.984C181.723 147.955 181.91 147.906 182.027 147.839C182.147 147.772 182.207 147.655 182.207 147.488V147.453C182.207 147.02 182.088 146.683 181.851 146.443C181.617 146.203 181.262 146.083 180.785 146.083C180.29 146.083 179.902 146.192 179.622 146.408C179.341 146.625 179.143 146.856 179.029 147.102L178.046 146.751C178.221 146.341 178.455 146.022 178.748 145.794C179.044 145.563 179.366 145.402 179.714 145.311C180.065 145.217 180.41 145.17 180.75 145.17C180.966 145.17 181.215 145.197 181.496 145.249C181.78 145.299 182.053 145.403 182.317 145.561C182.583 145.719 182.804 145.958 182.979 146.276C183.155 146.595 183.243 147.023 183.243 147.558V152H182.207V151.087H182.154C182.084 151.233 181.967 151.39 181.803 151.557C181.639 151.723 181.421 151.865 181.149 151.982C180.877 152.099 180.545 152.158 180.153 152.158ZM180.311 151.228C180.72 151.228 181.066 151.147 181.347 150.986C181.63 150.825 181.844 150.617 181.987 150.363C182.134 150.108 182.207 149.841 182.207 149.56V148.612C182.163 148.664 182.066 148.712 181.917 148.756C181.771 148.797 181.601 148.834 181.408 148.866C181.218 148.895 181.032 148.922 180.851 148.945C180.672 148.966 180.527 148.983 180.416 148.998C180.147 149.033 179.895 149.09 179.661 149.169C179.43 149.245 179.243 149.361 179.099 149.516C178.959 149.668 178.889 149.876 178.889 150.139C178.889 150.499 179.022 150.771 179.288 150.955C179.557 151.137 179.898 151.228 180.311 151.228ZM186.169 147.944V152H185.133V145.258H186.134V146.312H186.222C186.38 145.969 186.62 145.694 186.942 145.486C187.264 145.276 187.679 145.17 188.188 145.17C188.645 145.17 189.044 145.264 189.386 145.451C189.729 145.636 189.995 145.917 190.185 146.294C190.375 146.669 190.471 147.143 190.471 147.716V152H189.435V147.786C189.435 147.257 189.297 146.844 189.022 146.549C188.747 146.25 188.37 146.101 187.89 146.101C187.559 146.101 187.264 146.173 187.003 146.316C186.746 146.459 186.542 146.669 186.393 146.944C186.244 147.219 186.169 147.552 186.169 147.944ZM195.102 152.14C194.47 152.14 193.926 151.991 193.469 151.693C193.013 151.394 192.662 150.983 192.416 150.459C192.17 149.936 192.047 149.337 192.047 148.664C192.047 147.979 192.173 147.375 192.425 146.851C192.679 146.325 193.033 145.914 193.487 145.618C193.944 145.32 194.476 145.17 195.085 145.17C195.559 145.17 195.986 145.258 196.366 145.434C196.747 145.609 197.058 145.855 197.301 146.171C197.544 146.487 197.695 146.856 197.753 147.277H196.718C196.638 146.97 196.463 146.698 196.191 146.461C195.922 146.221 195.559 146.101 195.102 146.101C194.698 146.101 194.344 146.206 194.04 146.417C193.739 146.625 193.503 146.919 193.333 147.299C193.167 147.677 193.083 148.12 193.083 148.629C193.083 149.15 193.165 149.603 193.329 149.99C193.496 150.376 193.73 150.676 194.031 150.89C194.336 151.103 194.693 151.21 195.102 151.21C195.371 151.21 195.616 151.163 195.835 151.069C196.055 150.976 196.241 150.841 196.393 150.666C196.545 150.49 196.653 150.279 196.718 150.034H197.753C197.695 150.432 197.55 150.79 197.319 151.109C197.091 151.425 196.788 151.677 196.41 151.864C196.036 152.048 195.6 152.14 195.102 152.14ZM200.303 147.944V152H199.268V143.011H200.303V146.312H200.391C200.549 145.963 200.786 145.687 201.102 145.482C201.421 145.274 201.846 145.17 202.375 145.17C202.835 145.17 203.237 145.263 203.582 145.447C203.928 145.628 204.195 145.908 204.385 146.285C204.579 146.66 204.675 147.137 204.675 147.716V152H203.639V147.786C203.639 147.251 203.5 146.837 203.222 146.544C202.947 146.249 202.565 146.101 202.077 146.101C201.737 146.101 201.433 146.173 201.164 146.316C200.897 146.459 200.687 146.669 200.532 146.944C200.38 147.219 200.303 147.552 200.303 147.944ZM209.397 152.14C208.747 152.14 208.187 151.997 207.716 151.71C207.248 151.421 206.886 151.017 206.632 150.499C206.38 149.978 206.254 149.372 206.254 148.682C206.254 147.991 206.38 147.383 206.632 146.856C206.886 146.326 207.24 145.914 207.694 145.618C208.15 145.32 208.683 145.17 209.291 145.17C209.643 145.17 209.989 145.229 210.332 145.346C210.674 145.463 210.986 145.653 211.267 145.917C211.548 146.177 211.771 146.522 211.938 146.952C212.105 147.383 212.188 147.912 212.188 148.541V148.98H206.992V148.085H211.135C211.135 147.704 211.059 147.365 210.907 147.067C210.757 146.768 210.544 146.533 210.266 146.36C209.991 146.187 209.666 146.101 209.291 146.101C208.879 146.101 208.522 146.203 208.221 146.408C207.922 146.61 207.692 146.873 207.531 147.198C207.37 147.523 207.29 147.871 207.29 148.243V148.84C207.29 149.349 207.378 149.781 207.553 150.135C207.732 150.486 207.979 150.753 208.295 150.938C208.611 151.119 208.978 151.21 209.397 151.21C209.669 151.21 209.915 151.172 210.134 151.096C210.357 151.017 210.548 150.9 210.709 150.745C210.87 150.587 210.994 150.391 211.082 150.157L212.083 150.437C211.978 150.777 211.801 151.075 211.552 151.333C211.303 151.587 210.996 151.786 210.63 151.93C210.264 152.07 209.853 152.14 209.397 152.14ZM218.54 146.768L217.609 147.031C217.55 146.876 217.464 146.726 217.35 146.579C217.239 146.43 217.087 146.307 216.894 146.211C216.7 146.114 216.453 146.066 216.152 146.066C215.739 146.066 215.395 146.161 215.12 146.351C214.848 146.538 214.712 146.777 214.712 147.067C214.712 147.324 214.806 147.527 214.993 147.677C215.18 147.826 215.473 147.95 215.871 148.05L216.872 148.296C217.474 148.442 217.924 148.666 218.219 148.967C218.515 149.266 218.662 149.65 218.662 150.121C218.662 150.508 218.551 150.853 218.329 151.157C218.109 151.462 217.802 151.702 217.407 151.877C217.012 152.053 216.553 152.14 216.029 152.14C215.341 152.14 214.772 151.991 214.322 151.693C213.871 151.394 213.586 150.958 213.466 150.385L214.449 150.139C214.542 150.502 214.719 150.774 214.98 150.955C215.243 151.137 215.587 151.228 216.011 151.228C216.494 151.228 216.877 151.125 217.161 150.92C217.448 150.713 217.591 150.464 217.591 150.174C217.591 149.94 217.51 149.744 217.346 149.586C217.182 149.425 216.93 149.305 216.591 149.226L215.467 148.963C214.85 148.816 214.396 148.59 214.106 148.282C213.82 147.972 213.676 147.584 213.676 147.119C213.676 146.739 213.783 146.402 213.997 146.11C214.213 145.817 214.507 145.587 214.879 145.421C215.253 145.254 215.678 145.17 216.152 145.17C216.819 145.17 217.343 145.317 217.723 145.609C218.106 145.902 218.379 146.288 218.54 146.768Z" fill="white"/>
<path d="M171.782 270V261.011H172.871V269.034H177.049V270H171.782ZM181.421 270.14C180.771 270.14 180.211 269.997 179.74 269.71C179.272 269.421 178.91 269.017 178.656 268.499C178.404 267.978 178.278 267.372 178.278 266.682C178.278 265.991 178.404 265.383 178.656 264.856C178.91 264.326 179.264 263.914 179.718 263.618C180.174 263.32 180.707 263.17 181.316 263.17C181.667 263.17 182.013 263.229 182.356 263.346C182.698 263.463 183.01 263.653 183.291 263.917C183.572 264.177 183.796 264.522 183.962 264.952C184.129 265.383 184.212 265.912 184.212 266.541V266.98H179.016V266.085H183.159C183.159 265.704 183.083 265.365 182.931 265.067C182.782 264.768 182.568 264.533 182.29 264.36C182.015 264.187 181.69 264.101 181.316 264.101C180.903 264.101 180.546 264.203 180.245 264.408C179.946 264.61 179.716 264.873 179.556 265.198C179.395 265.523 179.314 265.871 179.314 266.243V266.84C179.314 267.349 179.402 267.781 179.577 268.135C179.756 268.486 180.003 268.753 180.319 268.938C180.635 269.119 181.003 269.21 181.421 269.21C181.693 269.21 181.939 269.172 182.158 269.096C182.381 269.017 182.572 268.9 182.733 268.745C182.894 268.587 183.019 268.391 183.106 268.157L184.107 268.437C184.002 268.777 183.825 269.075 183.576 269.333C183.327 269.587 183.02 269.786 182.654 269.93C182.289 270.07 181.877 270.14 181.421 270.14ZM187.772 270.158C187.345 270.158 186.957 270.078 186.609 269.917C186.261 269.753 185.984 269.517 185.779 269.21C185.575 268.9 185.472 268.525 185.472 268.086C185.472 267.7 185.548 267.387 185.7 267.147C185.853 266.904 186.056 266.714 186.311 266.576C186.565 266.439 186.846 266.336 187.153 266.269C187.463 266.199 187.775 266.143 188.088 266.102C188.498 266.05 188.83 266.01 189.085 265.984C189.342 265.955 189.529 265.906 189.646 265.839C189.766 265.772 189.826 265.655 189.826 265.488V265.453C189.826 265.02 189.708 264.683 189.471 264.443C189.237 264.203 188.881 264.083 188.404 264.083C187.91 264.083 187.522 264.192 187.241 264.408C186.96 264.625 186.763 264.856 186.648 265.102L185.665 264.751C185.841 264.341 186.075 264.022 186.368 263.794C186.663 263.563 186.985 263.402 187.333 263.311C187.684 263.217 188.03 263.17 188.369 263.17C188.586 263.17 188.834 263.197 189.115 263.249C189.399 263.299 189.673 263.403 189.936 263.561C190.202 263.719 190.423 263.958 190.599 264.276C190.774 264.595 190.862 265.023 190.862 265.558V270H189.826V269.087H189.774C189.703 269.233 189.586 269.39 189.422 269.557C189.259 269.723 189.041 269.865 188.768 269.982C188.496 270.099 188.164 270.158 187.772 270.158ZM187.93 269.228C188.34 269.228 188.685 269.147 188.966 268.986C189.25 268.825 189.463 268.617 189.607 268.363C189.753 268.108 189.826 267.841 189.826 267.56V266.612C189.782 266.664 189.686 266.712 189.537 266.756C189.39 266.797 189.221 266.834 189.027 266.866C188.837 266.895 188.651 266.922 188.47 266.945C188.292 266.966 188.147 266.983 188.035 266.998C187.766 267.033 187.515 267.09 187.281 267.169C187.049 267.245 186.862 267.361 186.719 267.516C186.578 267.668 186.508 267.876 186.508 268.139C186.508 268.499 186.641 268.771 186.907 268.955C187.177 269.137 187.518 269.228 187.93 269.228ZM198.024 263.258L195.531 270H194.478L191.985 263.258H193.108L194.969 268.631H195.04L196.901 263.258H198.024ZM201.977 270.14C201.327 270.14 200.767 269.997 200.296 269.71C199.827 269.421 199.466 269.017 199.211 268.499C198.96 267.978 198.834 267.372 198.834 266.682C198.834 265.991 198.96 265.383 199.211 264.856C199.466 264.326 199.82 263.914 200.274 263.618C200.73 263.32 201.263 263.17 201.871 263.17C202.222 263.17 202.569 263.229 202.912 263.346C203.254 263.463 203.566 263.653 203.846 263.917C204.127 264.177 204.351 264.522 204.518 264.952C204.685 265.383 204.768 265.912 204.768 266.541V266.98H199.571V266.085H203.715C203.715 265.704 203.639 265.365 203.487 265.067C203.337 264.768 203.124 264.533 202.846 264.36C202.571 264.187 202.246 264.101 201.871 264.101C201.459 264.101 201.102 264.203 200.8 264.408C200.502 264.61 200.272 264.873 200.111 265.198C199.95 265.523 199.87 265.871 199.87 266.243V266.84C199.87 267.349 199.958 267.781 200.133 268.135C200.312 268.486 200.559 268.753 200.875 268.938C201.191 269.119 201.558 269.21 201.977 269.21C202.249 269.21 202.495 269.172 202.714 269.096C202.936 269.017 203.128 268.9 203.289 268.745C203.45 268.587 203.574 268.391 203.662 268.157L204.663 268.437C204.558 268.777 204.381 269.075 204.132 269.333C203.883 269.587 203.576 269.786 203.21 269.93C202.844 270.07 202.433 270.14 201.977 270.14ZM211.119 264.768L210.189 265.031C210.13 264.876 210.044 264.726 209.93 264.579C209.819 264.43 209.667 264.307 209.473 264.211C209.28 264.114 209.033 264.066 208.732 264.066C208.319 264.066 207.975 264.161 207.7 264.351C207.428 264.538 207.292 264.777 207.292 265.067C207.292 265.324 207.386 265.527 207.573 265.677C207.76 265.826 208.053 265.95 208.451 266.05L209.452 266.296C210.054 266.442 210.503 266.666 210.799 266.967C211.095 267.266 211.242 267.65 211.242 268.121C211.242 268.508 211.131 268.853 210.909 269.157C210.689 269.462 210.382 269.702 209.987 269.877C209.592 270.053 209.133 270.14 208.609 270.14C207.921 270.14 207.352 269.991 206.901 269.693C206.451 269.394 206.165 268.958 206.045 268.385L207.029 268.139C207.122 268.502 207.299 268.774 207.56 268.955C207.823 269.137 208.167 269.228 208.591 269.228C209.074 269.228 209.457 269.125 209.741 268.92C210.028 268.713 210.171 268.464 210.171 268.174C210.171 267.94 210.089 267.744 209.926 267.586C209.762 267.425 209.51 267.305 209.171 267.226L208.047 266.963C207.43 266.816 206.976 266.59 206.686 266.282C206.4 265.972 206.256 265.584 206.256 265.119C206.256 264.739 206.363 264.402 206.577 264.11C206.793 263.817 207.087 263.587 207.459 263.421C207.833 263.254 208.258 263.17 208.732 263.17C209.399 263.17 209.923 263.317 210.303 263.609C210.686 263.902 210.958 264.288 211.119 264.768Z" fill="white"/>
<line x1="190.27" y1="37.608" x2="190.27" y2="57.384" stroke="white" stroke-width="2.472"/>
<line x1="66.6696" y1="175.264" x2="66.6696" y2="195.04" stroke="white" stroke-width="2.472"/>
<line x1="190.27" y1="175.264" x2="190.27" y2="195.04" stroke="white" stroke-width="2.472"/>
<line x1="190.27" y1="59.8561" x2="190.27" y2="79.6321" stroke="white" stroke-width="2.472"/>
<line x1="66.6696" y1="192.568" x2="66.6696" y2="212.344" stroke="white" stroke-width="2.472"/>
<line x1="190.27" y1="192.568" x2="190.27" y2="212.344" stroke="white" stroke-width="2.472"/>
<line x1="65.4336" y1="58.6201" x2="312.634" y2="58.6201" stroke="white" stroke-width="2.472"/>
<line x1="66.6696" y1="57.3839" x2="66.6696" y2="77.1599" stroke="white" stroke-width="2.472"/>
<line x1="313.87" y1="57.3839" x2="313.87" y2="77.1599" stroke="white" stroke-width="2.472"/>
<line x1="25.8817" y1="196.276" x2="107.458" y2="196.276" stroke="white" stroke-width="2.472"/>
<line x1="27.1177" y1="195.04" x2="27.1177" y2="214.816" stroke="white" stroke-width="2.472"/>
<line x1="108.694" y1="195.04" x2="108.694" y2="214.816" stroke="white" stroke-width="2.472"/>
<line x1="149.482" y1="196.276" x2="231.058" y2="196.276" stroke="white" stroke-width="2.472"/>
<line x1="150.718" y1="195.04" x2="150.718" y2="214.816" stroke="white" stroke-width="2.472"/>
<line x1="232.294" y1="195.04" x2="232.294" y2="214.816" stroke="white" stroke-width="2.472"/>
<path d="M39.4597 120.934H26.1636C22.6677 120.934 20.9197 120.934 19.8337 119.848C18.7476 118.762 18.7476 117.014 18.7476 113.518V94.978C18.7476 91.482 18.7476 89.7341 19.8337 88.648C20.9197 87.562 22.6677 87.562 26.1636 87.562H44.7036C48.1995 87.562 49.9475 87.562 51.0336 88.648C52.1196 89.7341 52.1196 91.482 52.1196 94.978V108.274C52.1196 109.032 52.1196 109.411 51.9785 109.752C51.8374 110.092 51.5694 110.36 51.0336 110.896L42.0817 119.848C41.5458 120.384 41.2779 120.652 40.9372 120.793C40.5964 120.934 40.2175 120.934 39.4597 120.934Z" stroke="#F2F2F7" stroke-width="2.472"/>
<path d="M39.1416 120.934V112.282C39.1416 110.243 39.1416 109.223 39.7751 108.589C40.4087 107.956 41.4283 107.956 43.4676 107.956H52.1196" stroke="#F2F2F7" stroke-width="2.472"/>
<path d="M283.46 120.934H270.164C266.668 120.934 264.92 120.934 263.834 119.848C262.748 118.762 262.748 117.014 262.748 113.518V94.978C262.748 91.482 262.748 89.7341 263.834 88.648C264.92 87.562 266.668 87.562 270.164 87.562H288.704C292.2 87.562 293.948 87.562 295.034 88.648C296.12 89.7341 296.12 91.482 296.12 94.978V108.274C296.12 109.032 296.12 109.411 295.978 109.752C295.837 110.092 295.569 110.36 295.034 110.896L286.082 119.848C285.546 120.384 285.278 120.652 284.937 120.793C284.596 120.934 284.218 120.934 283.46 120.934Z" stroke="#F2F2F7" stroke-width="2.472"/>
<path d="M283.142 120.934V112.282C283.142 110.243 283.142 109.223 283.775 108.589C284.409 107.956 285.428 107.956 287.468 107.956H296.12" stroke="#F2F2F7" stroke-width="2.472"/>
<path d="M29.5779 243.553H21.4525C19.3161 243.553 18.2479 243.553 17.5842 242.889C16.9205 242.225 16.9205 241.157 16.9205 239.021V227.691C16.9205 225.554 16.9205 224.486 17.5842 223.822C18.2479 223.159 19.3161 223.159 21.4525 223.159H32.7825C34.9189 223.159 35.9871 223.159 36.6508 223.822C37.3145 224.486 37.3145 225.554 37.3145 227.691V235.816C37.3145 236.279 37.3145 236.511 37.2283 236.719C37.142 236.927 36.9783 237.091 36.6508 237.418L31.1802 242.889C30.8528 243.217 30.689 243.38 30.4808 243.466C30.2726 243.553 30.041 243.553 29.5779 243.553Z" stroke="#F2F2F7" stroke-width="2.472"/>
<path d="M29.3835 243.553V238.265C29.3835 237.019 29.3835 236.396 29.7707 236.009C30.1579 235.622 30.781 235.622 32.0272 235.622H37.3145" stroke="#F2F2F7" stroke-width="2.472"/>
<path d="M111.154 243.553H103.029C100.892 243.553 99.824 243.553 99.1603 242.889C98.4966 242.225 98.4966 241.157 98.4966 239.021V227.691C98.4966 225.554 98.4966 224.486 99.1603 223.822C99.824 223.159 100.892 223.159 103.029 223.159H114.359C116.495 223.159 117.563 223.159 118.227 223.822C118.891 224.486 118.891 225.554 118.891 227.691V235.816C118.891 236.279 118.891 236.511 118.804 236.719C118.718 236.927 118.554 237.091 118.227 237.418L112.756 242.889C112.429 243.217 112.265 243.38 112.057 243.466C111.849 243.553 111.617 243.553 111.154 243.553Z" stroke="#F2F2F7" stroke-width="2.472"/>
<path d="M110.96 243.553V238.265C110.96 237.019 110.96 236.396 111.347 236.009C111.734 235.622 112.357 235.622 113.603 235.622H118.891" stroke="#F2F2F7" stroke-width="2.472"/>
<path d="M57.9535 124L59.5405 114.419L57.2712 115.991L56.6928 115.234L59.7482 113.098H60.9051L59.1104 124H57.9535Z" fill="white"/>
<path d="M303.511 124.119C303.283 124.119 303.061 124.094 302.843 124.044C302.636 123.995 302.443 123.911 302.265 123.792C302.097 123.664 301.958 123.511 301.85 123.333C301.741 123.145 301.662 122.947 301.612 122.739C301.563 122.522 301.543 122.299 301.553 122.072C301.563 121.844 301.588 121.622 301.627 121.404L302.295 117.326H300.337L300.352 116.287H303.63L302.754 121.568C302.725 121.746 302.71 121.924 302.71 122.102C302.72 122.279 302.759 122.448 302.829 122.606C302.898 122.754 303.007 122.873 303.155 122.962C303.303 123.041 303.466 123.08 303.644 123.08C303.822 123.08 303.99 123.036 304.149 122.947C304.317 122.848 304.455 122.724 304.564 122.576C304.683 122.428 304.772 122.27 304.831 122.102C304.9 121.924 304.955 121.75 304.994 121.582L306.017 121.716C305.978 121.914 305.919 122.111 305.839 122.309C305.77 122.507 305.681 122.7 305.573 122.888C305.474 123.066 305.35 123.239 305.202 123.407C305.053 123.565 304.885 123.698 304.697 123.807C304.519 123.916 304.327 123.995 304.119 124.044C303.921 124.094 303.719 124.119 303.511 124.119ZM303.481 114.982C303.343 114.982 303.204 114.957 303.066 114.908C302.927 114.859 302.819 114.779 302.74 114.671C302.661 114.562 302.606 114.433 302.576 114.285C302.557 114.137 302.557 113.988 302.576 113.84C302.596 113.741 302.631 113.642 302.68 113.543C302.74 113.445 302.809 113.365 302.888 113.306C302.977 113.237 303.071 113.192 303.17 113.173C303.279 113.143 303.387 113.128 303.496 113.128C303.634 113.128 303.773 113.158 303.911 113.217C304.05 113.267 304.159 113.346 304.238 113.454C304.327 113.563 304.381 113.692 304.401 113.84C304.43 113.988 304.43 114.137 304.401 114.285C304.381 114.384 304.341 114.483 304.282 114.582C304.233 114.681 304.163 114.765 304.074 114.834C303.995 114.893 303.901 114.933 303.793 114.952C303.694 114.972 303.59 114.982 303.481 114.982Z" fill="white"/>
<path d="M37.5989 249.536L38.6569 243.148L37.144 244.196L36.7584 243.692L38.7953 242.268H39.5666L38.3701 249.536H37.5989ZM42.5429 249.536L43.6009 243.148L42.088 244.196L41.7024 243.692L43.7393 242.268H44.5106L43.3141 249.536H42.5429Z" fill="white"/>
<path d="M63.1099 239.727C62.9913 239.727 62.8759 239.704 62.7638 239.658C62.6518 239.618 62.5595 239.552 62.487 239.46C62.4145 239.368 62.3683 239.262 62.3485 239.144C62.3288 239.018 62.3288 238.893 62.3485 238.768C62.3683 238.682 62.4013 238.6 62.4474 238.521C62.4936 238.442 62.5496 238.376 62.6155 238.323C62.688 238.27 62.7671 238.234 62.8528 238.214C62.9385 238.194 63.0242 238.185 63.1099 238.185C63.2286 238.185 63.3439 238.208 63.456 238.254C63.5746 238.293 63.6669 238.359 63.7329 238.452C63.8054 238.544 63.8515 238.653 63.8713 238.778C63.8911 238.896 63.8911 239.018 63.8713 239.144C63.8581 239.229 63.8284 239.312 63.7823 239.391C63.7362 239.47 63.6768 239.536 63.6043 239.589C63.5318 239.641 63.4527 239.678 63.367 239.697C63.2813 239.717 63.1956 239.727 63.1099 239.727ZM67.4606 239.727C67.342 239.727 67.2266 239.704 67.1146 239.658C67.0025 239.618 66.9102 239.552 66.8377 239.46C66.7652 239.368 66.719 239.262 66.6993 239.144C66.6795 239.018 66.6795 238.893 66.6993 238.768C66.719 238.682 66.752 238.6 66.7981 238.521C66.8443 238.442 66.9003 238.376 66.9662 238.323C67.0387 238.27 67.1178 238.234 67.2035 238.214C67.2892 238.194 67.3749 238.185 67.4606 238.185C67.5793 238.185 67.6946 238.208 67.8067 238.254C67.9254 238.293 68.0177 238.359 68.0836 238.452C68.1561 238.544 68.2022 238.653 68.222 238.778C68.2418 238.896 68.2418 239.018 68.222 239.144C68.2088 239.229 68.1792 239.312 68.133 239.391C68.0869 239.47 68.0275 239.536 67.955 239.589C67.8825 239.641 67.8034 239.678 67.7177 239.697C67.632 239.717 67.5463 239.727 67.4606 239.727ZM71.8114 239.727C71.6927 239.727 71.5773 239.704 71.4653 239.658C71.3532 239.618 71.2609 239.552 71.1884 239.46C71.1159 239.368 71.0698 239.262 71.05 239.144C71.0302 239.018 71.0302 238.893 71.05 238.768C71.0698 238.682 71.1027 238.6 71.1489 238.521C71.195 238.442 71.251 238.376 71.317 238.323C71.3895 238.27 71.4686 238.234 71.5543 238.214C71.64 238.194 71.7257 238.185 71.8114 238.185C71.93 238.185 72.0454 238.208 72.1574 238.254C72.2761 238.293 72.3684 238.359 72.4343 238.452C72.5068 238.544 72.553 238.653 72.5727 238.778C72.5925 238.896 72.5925 239.018 72.5727 239.144C72.5595 239.229 72.5299 239.312 72.4837 239.391C72.4376 239.47 72.3783 239.536 72.3058 239.589C72.2332 239.641 72.1541 239.678 72.0684 239.697C71.9827 239.717 71.897 239.727 71.8114 239.727Z" fill="white"/>
<path d="M186.71 239.727C186.591 239.727 186.476 239.704 186.364 239.658C186.252 239.618 186.159 239.552 186.087 239.46C186.014 239.368 185.968 239.262 185.949 239.144C185.929 239.018 185.929 238.893 185.949 238.768C185.968 238.682 186.001 238.6 186.047 238.521C186.094 238.442 186.15 238.376 186.215 238.323C186.288 238.27 186.367 238.234 186.453 238.214C186.538 238.194 186.624 238.185 186.71 238.185C186.829 238.185 186.944 238.208 187.056 238.254C187.175 238.293 187.267 238.359 187.333 238.452C187.405 238.544 187.451 238.653 187.471 238.778C187.491 238.896 187.491 239.018 187.471 239.144C187.458 239.229 187.428 239.312 187.382 239.391C187.336 239.47 187.277 239.536 187.204 239.589C187.132 239.641 187.053 239.678 186.967 239.697C186.881 239.717 186.796 239.727 186.71 239.727ZM191.061 239.727C190.942 239.727 190.827 239.704 190.715 239.658C190.602 239.618 190.51 239.552 190.438 239.46C190.365 239.368 190.319 239.262 190.299 239.144C190.279 239.018 190.279 238.893 190.299 238.768C190.319 238.682 190.352 238.6 190.398 238.521C190.444 238.442 190.5 238.376 190.566 238.323C190.639 238.27 190.718 238.234 190.804 238.214C190.889 238.194 190.975 238.185 191.061 238.185C191.179 238.185 191.295 238.208 191.407 238.254C191.525 238.293 191.618 238.359 191.684 238.452C191.756 238.544 191.802 238.653 191.822 238.778C191.842 238.896 191.842 239.018 191.822 239.144C191.809 239.229 191.779 239.312 191.733 239.391C191.687 239.47 191.628 239.536 191.555 239.589C191.482 239.641 191.403 239.678 191.318 239.697C191.232 239.717 191.146 239.727 191.061 239.727ZM195.411 239.727C195.293 239.727 195.177 239.704 195.065 239.658C194.953 239.618 194.861 239.552 194.788 239.46C194.716 239.368 194.67 239.262 194.65 239.144C194.63 239.018 194.63 238.893 194.65 238.768C194.67 238.682 194.703 238.6 194.749 238.521C194.795 238.442 194.851 238.376 194.917 238.323C194.989 238.27 195.069 238.234 195.154 238.214C195.24 238.194 195.326 238.185 195.411 238.185C195.53 238.185 195.645 238.208 195.757 238.254C195.876 238.293 195.968 238.359 196.034 238.452C196.107 238.544 196.153 238.653 196.173 238.778C196.192 238.896 196.192 239.018 196.173 239.144C196.16 239.229 196.13 239.312 196.084 239.391C196.038 239.47 195.978 239.536 195.906 239.589C195.833 239.641 195.754 239.678 195.668 239.697C195.583 239.717 195.497 239.727 195.411 239.727Z" fill="white"/>
<path d="M119.175 249.536L120.233 243.148L118.72 244.196L118.334 243.692L120.371 242.268H121.143L119.946 249.536H119.175ZM122.369 249.536L123.565 242.268H124.485L125.572 248.32C125.638 247.799 125.701 247.278 125.76 246.757C125.82 246.23 125.895 245.703 125.988 245.175L126.462 242.268H127.243L126.047 249.536H125.127L124.04 243.484C123.974 244.005 123.911 244.529 123.852 245.057C123.793 245.577 123.717 246.101 123.624 246.629L123.15 249.536H122.369Z" fill="white"/>
<line x1="313.87" y1="175" x2="313.87" y2="194.776" stroke="white" stroke-width="2.472"/>
<line x1="313.87" y1="192.304" x2="313.87" y2="212.08" stroke="white" stroke-width="2.472"/>
<line x1="273.082" y1="196.012" x2="354.658" y2="196.012" stroke="white" stroke-width="2.472"/>
<line x1="274.318" y1="194.776" x2="274.318" y2="214.552" stroke="white" stroke-width="2.472"/>
<line x1="355.894" y1="194.776" x2="355.894" y2="214.552" stroke="white" stroke-width="2.472"/>
<path d="M276.778 243.289H268.653C266.516 243.289 265.448 243.289 264.784 242.625C264.121 241.961 264.121 240.893 264.121 238.757V227.427C264.121 225.29 264.121 224.222 264.784 223.559C265.448 222.895 266.516 222.895 268.653 222.895H279.983C282.119 222.895 283.187 222.895 283.851 223.559C284.515 224.222 284.515 225.29 284.515 227.427V235.552C284.515 236.015 284.515 236.247 284.428 236.455C284.342 236.663 284.178 236.827 283.851 237.155L278.38 242.625C278.053 242.953 277.889 243.116 277.681 243.203C277.473 243.289 277.241 243.289 276.778 243.289Z" stroke="#F2F2F7" stroke-width="2.472"/>
<path d="M276.584 243.289V238.001C276.584 236.755 276.584 236.132 276.971 235.745C277.358 235.358 277.981 235.358 279.227 235.358H284.515" stroke="#F2F2F7" stroke-width="2.472"/>
<path d="M358.354 243.289H350.229C348.092 243.289 347.024 243.289 346.36 242.625C345.697 241.961 345.697 240.893 345.697 238.757V227.427C345.697 225.29 345.697 224.222 346.36 223.559C347.024 222.895 348.092 222.895 350.229 222.895H361.559C363.695 222.895 364.763 222.895 365.427 223.559C366.091 224.222 366.091 225.29 366.091 227.427V235.552C366.091 236.015 366.091 236.247 366.004 236.455C365.918 236.663 365.754 236.827 365.427 237.155L359.956 242.625C359.629 242.953 359.465 243.116 359.257 243.203C359.049 243.289 358.817 243.289 358.354 243.289Z" stroke="#F2F2F7" stroke-width="2.472"/>
<path d="M358.16 243.289V238.001C358.16 236.755 358.16 236.132 358.547 235.745C358.934 235.358 359.557 235.358 360.803 235.358H366.091" stroke="#F2F2F7" stroke-width="2.472"/>
<path d="M285.837 249.351C285.685 249.351 285.537 249.335 285.392 249.302C285.254 249.269 285.125 249.213 285.006 249.134C284.894 249.048 284.802 248.946 284.73 248.827C284.657 248.702 284.604 248.57 284.571 248.431C284.538 248.286 284.525 248.138 284.532 247.987C284.538 247.835 284.555 247.687 284.581 247.542L285.026 244.822H283.721L283.731 244.13H285.916L285.333 247.65C285.313 247.769 285.303 247.888 285.303 248.006C285.31 248.125 285.336 248.237 285.382 248.343C285.428 248.441 285.501 248.52 285.6 248.58C285.699 248.633 285.807 248.659 285.926 248.659C286.045 248.659 286.157 248.629 286.262 248.57C286.374 248.504 286.467 248.422 286.539 248.323C286.618 248.224 286.678 248.118 286.717 248.006C286.763 247.888 286.799 247.772 286.826 247.66L287.508 247.749C287.482 247.881 287.442 248.013 287.389 248.145C287.343 248.277 287.284 248.405 287.211 248.53C287.146 248.649 287.063 248.764 286.964 248.876C286.865 248.982 286.753 249.071 286.628 249.143C286.509 249.216 286.381 249.269 286.242 249.302C286.111 249.335 285.975 249.351 285.837 249.351ZM285.817 243.26C285.725 243.26 285.633 243.244 285.54 243.211C285.448 243.178 285.376 243.125 285.323 243.052C285.27 242.98 285.234 242.894 285.214 242.795C285.201 242.696 285.201 242.598 285.214 242.499C285.227 242.433 285.25 242.367 285.283 242.301C285.323 242.235 285.369 242.182 285.422 242.143C285.481 242.097 285.544 242.067 285.61 242.054C285.682 242.034 285.755 242.024 285.827 242.024C285.919 242.024 286.012 242.044 286.104 242.083C286.196 242.116 286.269 242.169 286.322 242.242C286.381 242.314 286.417 242.4 286.43 242.499C286.45 242.598 286.45 242.696 286.43 242.795C286.417 242.861 286.391 242.927 286.351 242.993C286.318 243.059 286.272 243.115 286.213 243.161C286.16 243.201 286.097 243.227 286.025 243.24C285.959 243.253 285.89 243.26 285.817 243.26ZM289.743 249.272L290.801 242.884L289.288 243.932L288.902 243.428L290.939 242.004H291.711L290.514 249.272H289.743Z" fill="white"/>
<path d="M310.31 239.463C310.191 239.463 310.076 239.44 309.964 239.394C309.852 239.354 309.759 239.288 309.687 239.196C309.614 239.104 309.568 238.998 309.549 238.88C309.529 238.754 309.529 238.629 309.549 238.504C309.568 238.418 309.601 238.336 309.647 238.257C309.694 238.178 309.75 238.112 309.815 238.059C309.888 238.006 309.967 237.97 310.053 237.95C310.139 237.93 310.224 237.921 310.31 237.921C310.429 237.921 310.544 237.944 310.656 237.99C310.775 238.029 310.867 238.095 310.933 238.188C311.005 238.28 311.051 238.389 311.071 238.514C311.091 238.633 311.091 238.754 311.071 238.88C311.058 238.965 311.028 239.048 310.982 239.127C310.936 239.206 310.877 239.272 310.804 239.325C310.732 239.377 310.653 239.414 310.567 239.433C310.481 239.453 310.396 239.463 310.31 239.463ZM314.661 239.463C314.542 239.463 314.427 239.44 314.315 239.394C314.202 239.354 314.11 239.288 314.038 239.196C313.965 239.104 313.919 238.998 313.899 238.88C313.879 238.754 313.879 238.629 313.899 238.504C313.919 238.418 313.952 238.336 313.998 238.257C314.044 238.178 314.1 238.112 314.166 238.059C314.239 238.006 314.318 237.97 314.404 237.95C314.489 237.93 314.575 237.921 314.661 237.921C314.779 237.921 314.895 237.944 315.007 237.99C315.125 238.029 315.218 238.095 315.284 238.188C315.356 238.28 315.402 238.389 315.422 238.514C315.442 238.633 315.442 238.754 315.422 238.88C315.409 238.965 315.379 239.048 315.333 239.127C315.287 239.206 315.228 239.272 315.155 239.325C315.083 239.377 315.003 239.414 314.918 239.433C314.832 239.453 314.746 239.463 314.661 239.463ZM319.011 239.463C318.893 239.463 318.777 239.44 318.665 239.394C318.553 239.354 318.461 239.288 318.388 239.196C318.316 239.104 318.27 238.998 318.25 238.88C318.23 238.754 318.23 238.629 318.25 238.504C318.27 238.418 318.303 238.336 318.349 238.257C318.395 238.178 318.451 238.112 318.517 238.059C318.589 238.006 318.669 237.97 318.754 237.95C318.84 237.93 318.926 237.921 319.011 237.921C319.13 237.921 319.245 237.944 319.357 237.99C319.476 238.029 319.568 238.095 319.634 238.188C319.707 238.28 319.753 238.389 319.773 238.514C319.792 238.633 319.792 238.754 319.773 238.88C319.76 238.965 319.73 239.048 319.684 239.127C319.638 239.206 319.578 239.272 319.506 239.325C319.433 239.377 319.354 239.414 319.268 239.433C319.183 239.453 319.097 239.463 319.011 239.463Z" fill="white"/>
<path d="M367.413 249.351C367.261 249.351 367.113 249.335 366.968 249.302C366.83 249.269 366.701 249.213 366.582 249.134C366.47 249.048 366.378 248.946 366.306 248.827C366.233 248.702 366.18 248.57 366.147 248.431C366.114 248.286 366.101 248.138 366.108 247.987C366.114 247.835 366.131 247.687 366.157 247.542L366.602 244.822H365.297L365.307 244.13H367.492L366.909 247.65C366.889 247.769 366.879 247.888 366.879 248.006C366.886 248.125 366.912 248.237 366.958 248.343C367.004 248.441 367.077 248.52 367.176 248.58C367.275 248.633 367.383 248.659 367.502 248.659C367.621 248.659 367.733 248.629 367.838 248.57C367.95 248.504 368.043 248.422 368.115 248.323C368.194 248.224 368.254 248.118 368.293 248.006C368.339 247.888 368.376 247.772 368.402 247.66L369.084 247.749C369.058 247.881 369.018 248.013 368.965 248.145C368.919 248.277 368.86 248.405 368.788 248.53C368.722 248.649 368.639 248.764 368.54 248.876C368.441 248.982 368.329 249.071 368.204 249.143C368.085 249.216 367.957 249.269 367.818 249.302C367.687 249.335 367.552 249.351 367.413 249.351ZM367.393 243.26C367.301 243.26 367.209 243.244 367.116 243.211C367.024 243.178 366.952 243.125 366.899 243.052C366.846 242.98 366.81 242.894 366.79 242.795C366.777 242.696 366.777 242.598 366.79 242.499C366.803 242.433 366.826 242.367 366.859 242.301C366.899 242.235 366.945 242.182 366.998 242.143C367.057 242.097 367.12 242.067 367.186 242.054C367.258 242.034 367.331 242.024 367.403 242.024C367.495 242.024 367.588 242.044 367.68 242.083C367.772 242.116 367.845 242.169 367.898 242.242C367.957 242.314 367.993 242.4 368.006 242.499C368.026 242.598 368.026 242.696 368.006 242.795C367.993 242.861 367.967 242.927 367.927 242.993C367.894 243.059 367.848 243.115 367.789 243.161C367.736 243.201 367.673 243.227 367.601 243.24C367.535 243.253 367.466 243.26 367.393 243.26ZM369.569 249.272L370.765 242.004H371.685L372.772 248.056C372.838 247.535 372.901 247.014 372.96 246.493C373.02 245.966 373.095 245.439 373.188 244.911L373.662 242.004H374.443L373.247 249.272H372.327L371.24 243.221C371.174 243.741 371.111 244.265 371.052 244.793C370.993 245.313 370.917 245.838 370.824 246.365L370.35 249.272H369.569Z" fill="white"/>
<path d="M164.167 8.62142C164.167 7.09128 164.167 6.32621 164.464 5.74178C164.726 5.22769 165.144 4.80973 165.658 4.54779C166.243 4.25 167.008 4.25 168.538 4.25H172.07C172.738 4.25 173.072 4.25 173.387 4.32549C173.666 4.39242 173.932 4.50281 174.177 4.65261C174.452 4.82157 174.689 5.05783 175.161 5.53036L178.672 9.04107C179.144 9.5136 179.381 9.74986 179.55 10.0256C179.699 10.27 179.81 10.5365 179.877 10.8153C179.952 11.1297 179.952 11.4639 179.952 12.1321V20.5214C179.952 22.0516 179.952 22.8166 179.654 23.4011C179.392 23.9152 178.975 24.3331 178.46 24.5951C177.876 24.8929 177.111 24.8929 175.581 24.8929H168.538C167.008 24.8929 166.243 24.8929 165.658 24.5951C165.144 24.3331 164.726 23.9152 164.464 23.4011C164.167 22.8166 164.167 22.0516 164.167 20.5214V8.62142Z" stroke="white" stroke-width="1.82143"/>
<path d="M172.667 4.25V7.16429C172.667 8.69443 172.667 9.4595 172.964 10.0439C173.226 10.558 173.644 10.976 174.158 11.2379C174.743 11.5357 175.508 11.5357 177.038 11.5357H179.952" stroke="white" stroke-width="1.82143"/>
<path d="M150.815 15.1203V13.9173C151.896 13.9173 152.649 13.6909 153.076 13.2381C153.509 12.7853 153.726 12.0286 153.726 10.9678V7.86308C153.726 6.97047 153.81 6.19753 153.978 5.54425C154.153 4.89097 154.434 4.35088 154.822 3.92398C155.211 3.49708 155.728 3.18014 156.375 2.97316C157.022 2.76618 157.82 2.66269 158.771 2.66269V4.56432C158.021 4.56432 157.429 4.68075 156.996 4.9136C156.569 5.14646 156.265 5.50867 156.084 6.00025C155.909 6.48536 155.822 7.1063 155.822 7.86308V11.744C155.822 12.2485 155.754 12.7077 155.618 13.1217C155.489 13.5356 155.246 13.8914 154.89 14.1889C154.535 14.4865 154.027 14.7161 153.367 14.8778C152.714 15.0395 151.863 15.1203 150.815 15.1203ZM158.771 27.5004C157.82 27.5004 157.022 27.3969 156.375 27.1899C155.728 26.9829 155.211 26.666 154.822 26.2391C154.434 25.8122 154.153 25.2721 153.978 24.6188C153.81 23.9655 153.726 23.1926 153.726 22.3V19.1953C153.726 18.1345 153.509 17.3777 153.076 16.9249C152.649 16.4722 151.896 16.2458 150.815 16.2458V15.0427C151.863 15.0427 152.714 15.1236 153.367 15.2853C154.027 15.447 154.535 15.6766 154.89 15.9741C155.246 16.2717 155.489 16.6274 155.618 17.0414C155.754 17.4553 155.822 17.9146 155.822 18.4191V22.3C155.822 23.0567 155.909 23.6777 156.084 24.1628C156.265 24.6479 156.569 25.0069 156.996 25.2397C157.429 25.4791 158.021 25.5987 158.771 25.5987V27.5004ZM150.815 16.2458V13.9173H153.105V16.2458H150.815Z" fill="white"/>
<path d="M229.732 15.1203V13.9173C228.652 13.9173 227.898 13.6909 227.471 13.2381C227.038 12.7853 226.821 12.0286 226.821 10.9678V7.86308C226.821 6.97047 226.737 6.19753 226.569 5.54425C226.394 4.89097 226.113 4.35088 225.725 3.92398C225.337 3.49708 224.819 3.18014 224.172 2.97316C223.526 2.76618 222.727 2.66269 221.776 2.66269V4.56432C222.526 4.56432 223.118 4.68075 223.552 4.9136C223.978 5.14646 224.282 5.50867 224.464 6.00025C224.638 6.48536 224.725 7.1063 224.725 7.86308V11.744C224.725 12.2485 224.793 12.7077 224.929 13.1217C225.059 13.5356 225.301 13.8914 225.657 14.1889C226.013 14.4865 226.52 14.7161 227.18 14.8778C227.833 15.0395 228.684 15.1203 229.732 15.1203ZM221.776 27.5004C222.727 27.5004 223.526 27.3969 224.172 27.1899C224.819 26.9829 225.337 26.666 225.725 26.2391C226.113 25.8122 226.394 25.2721 226.569 24.6188C226.737 23.9655 226.821 23.1926 226.821 22.3V19.1953C226.821 18.1345 227.038 17.3777 227.471 16.9249C227.898 16.4722 228.652 16.2458 229.732 16.2458V15.0427C228.684 15.0427 227.833 15.1236 227.18 15.2853C226.52 15.447 226.013 15.6766 225.657 15.9741C225.301 16.2717 225.059 16.6274 224.929 17.0414C224.793 17.4553 224.725 17.9146 224.725 18.4191V22.3C224.725 23.0567 224.638 23.6777 224.464 24.1628C224.282 24.6479 223.978 25.0069 223.552 25.2397C223.118 25.4791 222.526 25.5987 221.776 25.5987V27.5004ZM229.732 16.2458V13.9173H227.442V16.2458H229.732Z" fill="white"/>
<path d="M189.224 22.5691L189.068 23.617C188.958 24.3544 188.79 25.1435 188.564 25.9843C188.344 26.8252 188.114 27.6175 187.875 28.3614C187.636 29.1052 187.438 29.697 187.283 30.1369H185.537C185.621 29.7229 185.731 29.1764 185.867 28.4972C186.002 27.818 186.138 27.058 186.274 26.2172C186.416 25.3828 186.533 24.529 186.623 23.6558L186.74 22.5691H189.224Z" fill="white"/>
<path d="M212.924 14.151C212.924 14.654 213.332 15.0617 213.835 15.0617C214.338 15.0617 214.745 14.654 214.745 14.151H213.835H212.924ZM207.372 22.6277C207.875 22.6277 208.282 22.2199 208.282 21.7169C208.282 21.214 207.875 20.8062 207.372 20.8062V21.7169V22.6277ZM196.02 20.3399L196.827 19.9183L196.827 19.9183L196.02 20.3399ZM197.149 21.4421L197.555 20.6265H197.555L197.149 21.4421ZM212.423 9.38193L212.018 10.1975V10.1975L212.423 9.38193ZM213.553 10.4841L212.746 10.9057V10.9057L213.553 10.4841ZM197.149 9.38193L196.744 8.56641V8.56641L197.149 9.38193ZM196.02 10.4841L195.212 10.0625L195.212 10.0625L196.02 10.4841ZM199.616 17.0233C199.113 17.0233 198.705 17.431 198.705 17.934C198.705 18.437 199.113 18.8447 199.616 18.8447V17.934V17.0233ZM204.786 18.8447C205.289 18.8447 205.697 18.437 205.697 17.934C205.697 17.431 205.289 17.0233 204.786 17.0233V17.934V18.8447ZM199.616 11.9793C199.113 11.9793 198.705 12.387 198.705 12.89C198.705 13.393 199.113 13.8007 199.616 13.8007V12.89V11.9793ZM208.664 13.8007C209.167 13.8007 209.575 13.393 209.575 12.89C209.575 12.387 209.167 11.9793 208.664 11.9793V12.89V13.8007ZM214.317 25.9153C214.546 26.3629 215.095 26.5398 215.543 26.3104C215.99 26.081 216.167 25.5321 215.938 25.0845L215.127 25.4999L214.317 25.9153ZM209.146 25.0845C208.917 25.5321 209.094 26.081 209.541 26.3104C209.989 26.5398 210.538 26.3629 210.767 25.9153L209.957 25.4999L209.146 25.0845ZM199.874 9.10706V10.0178H209.698V9.10706V8.19634H199.874V9.10706ZM195.738 17.6818H196.649V13.1422H195.738H194.827V17.6818H195.738ZM213.835 13.1422H212.924V14.151H213.835H214.745V13.1422H213.835ZM207.372 21.7169V20.8062H199.874V21.7169V22.6277H207.372V21.7169ZM195.738 17.6818H194.827C194.827 18.3726 194.826 18.9469 194.866 19.4142C194.906 19.8929 194.992 20.3401 195.212 20.7615L196.02 20.3399L196.827 19.9183C196.765 19.8003 196.711 19.6246 196.681 19.2622C196.649 18.8885 196.649 18.4034 196.649 17.6818H195.738ZM199.874 21.7169V20.8062C199.136 20.8062 198.635 20.8056 198.249 20.7748C197.872 20.7447 197.684 20.6905 197.555 20.6265L197.149 21.4421L196.744 22.2576C197.168 22.4685 197.618 22.5517 198.104 22.5904C198.58 22.6283 199.165 22.6277 199.874 22.6277V21.7169ZM196.02 20.3399L195.212 20.7615C195.551 21.4092 196.088 21.9316 196.744 22.2576L197.149 21.4421L197.555 20.6265C197.238 20.469 196.984 20.2197 196.827 19.9183L196.02 20.3399ZM209.698 9.10706V10.0178C210.437 10.0178 210.937 10.0184 211.324 10.0493C211.7 10.0793 211.889 10.1335 212.018 10.1975L212.423 9.38193L212.828 8.56641C212.404 8.35552 211.954 8.27229 211.469 8.23358C210.993 8.19567 210.408 8.19634 209.698 8.19634V9.10706ZM213.835 13.1422H214.745C214.745 12.4514 214.746 11.8771 214.707 11.4098C214.667 10.9311 214.58 10.4839 214.36 10.0625L213.553 10.4841L212.746 10.9057C212.807 11.0237 212.862 11.1994 212.892 11.5618C212.923 11.9355 212.924 12.4206 212.924 13.1422H213.835ZM212.423 9.38193L212.018 10.1975C212.335 10.355 212.588 10.6043 212.746 10.9057L213.553 10.4841L214.36 10.0625C214.022 9.41481 213.484 8.89243 212.828 8.56641L212.423 9.38193ZM199.874 9.10706V8.19634C199.165 8.19634 198.58 8.19567 198.104 8.23358C197.618 8.27229 197.168 8.35552 196.744 8.56641L197.149 9.38193L197.555 10.1975C197.684 10.1335 197.872 10.0793 198.249 10.0493C198.635 10.0184 199.136 10.0178 199.874 10.0178V9.10706ZM195.738 13.1422H196.649C196.649 12.4206 196.649 11.9355 196.681 11.5618C196.711 11.1994 196.765 11.0237 196.827 10.9057L196.02 10.4841L195.212 10.0625C194.992 10.4839 194.906 10.9311 194.866 11.4098C194.826 11.8771 194.827 12.4514 194.827 13.1422H195.738ZM197.149 9.38193L196.744 8.56641C196.088 8.89243 195.551 9.41481 195.212 10.0625L196.02 10.4841L196.827 10.9057C196.984 10.6043 197.238 10.355 197.555 10.1975L197.149 9.38193ZM199.616 17.934V18.8447H204.786V17.934V17.0233H199.616V17.934ZM199.616 12.89V13.8007H208.664V12.89V11.9793H199.616V12.89ZM215.774 19.195H214.863C214.863 20.4119 213.845 21.4367 212.542 21.4367V22.3474V23.2582C214.808 23.2582 216.684 21.4601 216.684 19.195H215.774ZM212.542 22.3474V21.4367C211.239 21.4367 210.221 20.4119 210.221 19.195H209.31H208.4C208.4 21.4601 210.276 23.2582 212.542 23.2582V22.3474ZM209.31 19.195H210.221C210.221 17.978 211.239 16.9532 212.542 16.9532V16.0425V15.1318C210.276 15.1318 208.4 16.9298 208.4 19.195H209.31ZM212.542 16.0425V16.9532C213.845 16.9532 214.863 17.978 214.863 19.195H215.774H216.684C216.684 16.9298 214.808 15.1318 212.542 15.1318V16.0425ZM215.127 25.4999C215.938 25.0845 215.938 25.084 215.937 25.0835C215.937 25.0834 215.937 25.0829 215.937 25.0825C215.936 25.0818 215.936 25.0811 215.936 25.0804C215.935 25.079 215.934 25.0774 215.933 25.0758C215.932 25.0726 215.93 25.0691 215.928 25.0652C215.923 25.0575 215.919 25.0486 215.913 25.0385C215.902 25.0183 215.887 24.9934 215.869 24.9645C215.833 24.9068 215.783 24.8327 215.718 24.7478C215.588 24.5784 215.394 24.3633 215.122 24.1515C214.568 23.7189 213.727 23.3282 212.542 23.3282V24.2389V25.1496C213.296 25.1496 213.748 25.3894 214.001 25.5874C214.134 25.6908 214.223 25.7909 214.274 25.858C214.3 25.8913 214.316 25.9157 214.323 25.9269C214.326 25.9325 214.327 25.9347 214.326 25.933C214.326 25.9322 214.325 25.9303 214.323 25.9274C214.322 25.9259 214.321 25.9242 214.32 25.9222C214.32 25.9212 214.319 25.9201 214.319 25.919C214.318 25.9184 214.318 25.9178 214.318 25.9172C214.318 25.9169 214.317 25.9164 214.317 25.9163C214.317 25.9158 214.317 25.9153 215.127 25.4999ZM212.542 24.2389V23.3282C211.357 23.3282 210.516 23.7189 209.962 24.1515C209.691 24.3633 209.496 24.5784 209.366 24.7478C209.301 24.8327 209.251 24.9068 209.215 24.9645C209.197 24.9934 209.183 25.0183 209.171 25.0385C209.166 25.0486 209.161 25.0575 209.156 25.0652C209.154 25.0691 209.153 25.0726 209.151 25.0758C209.15 25.0774 209.149 25.079 209.148 25.0804C209.148 25.0811 209.148 25.0818 209.147 25.0825C209.147 25.0829 209.147 25.0834 209.147 25.0835C209.147 25.084 209.146 25.0845 209.957 25.4999C210.767 25.9153 210.767 25.9158 210.767 25.9163C210.767 25.9164 210.766 25.9169 210.766 25.9172C210.766 25.9178 210.766 25.9184 210.765 25.919C210.765 25.9201 210.764 25.9212 210.764 25.9222C210.763 25.9242 210.762 25.9259 210.761 25.9274C210.759 25.9303 210.758 25.9322 210.758 25.933C210.757 25.9347 210.758 25.9325 210.762 25.9269C210.769 25.9157 210.784 25.8913 210.81 25.858C210.862 25.7909 210.95 25.6908 211.083 25.5874C211.336 25.3894 211.788 25.1496 212.542 25.1496V24.2389Z" fill="white"/>
<path d="M2.66966e-05 105.908V104.165C1.56542 104.165 2.65745 103.836 3.27611 103.18C3.90414 102.524 4.21816 101.427 4.21816 99.8902L4.21816 95.3908C4.21816 94.0973 4.34001 92.9771 4.58373 92.0304C4.83682 91.0836 5.24457 90.3009 5.80699 89.6823C6.3694 89.0636 7.11929 88.6043 8.05665 88.3044C8.99402 88.0044 10.1517 87.8544 11.5296 87.8544V90.6103C10.4422 90.6103 9.58455 90.779 8.95652 91.1165C8.33786 91.4539 7.8973 91.9788 7.63484 92.6912C7.38175 93.3942 7.25521 94.2941 7.25521 95.3908L7.25521 101.015C7.25521 101.746 7.15679 102.412 6.95994 103.012C6.77247 103.611 6.42096 104.127 5.90541 104.558C5.38986 104.989 4.65403 105.322 3.69792 105.557C2.75118 105.791 1.51855 105.908 2.66966e-05 105.908ZM11.5296 123.849C10.1517 123.849 8.99402 123.699 8.05665 123.399C7.11929 123.099 6.3694 122.64 5.80699 122.021C5.24457 121.403 4.83682 120.62 4.58373 119.673C4.34001 118.726 4.21816 117.606 4.21816 116.313V111.813C4.21816 110.276 3.90414 109.179 3.27611 108.523C2.65745 107.867 1.56542 107.539 2.66966e-05 107.539V105.796C1.51855 105.796 2.75118 105.913 3.69792 106.147C4.65403 106.381 5.38986 106.714 5.90541 107.145C6.42096 107.577 6.77247 108.092 6.95994 108.692C7.15679 109.292 7.25521 109.957 7.25521 110.689V116.313C7.25521 117.409 7.38175 118.309 7.63484 119.012C7.8973 119.715 8.33786 120.236 8.95652 120.573C9.58455 120.92 10.4422 121.093 11.5296 121.093L11.5296 123.849ZM2.66966e-05 107.539V104.165H3.31829V107.539H2.66966e-05Z" fill="white"/>
<path d="M244 105.908V104.165C245.565 104.165 246.657 103.836 247.276 103.18C247.904 102.524 248.218 101.427 248.218 99.8902V95.3908C248.218 94.0973 248.34 92.9771 248.584 92.0304C248.837 91.0836 249.245 90.3009 249.807 89.6823C250.369 89.0636 251.119 88.6043 252.057 88.3044C252.994 88.0044 254.152 87.8544 255.53 87.8544V90.6103C254.442 90.6103 253.585 90.779 252.957 91.1165C252.338 91.4539 251.897 91.9788 251.635 92.6912C251.382 93.3942 251.255 94.2941 251.255 95.3908V101.015C251.255 101.746 251.157 102.412 250.96 103.012C250.772 103.611 250.421 104.127 249.905 104.558C249.39 104.989 248.654 105.322 247.698 105.557C246.751 105.791 245.519 105.908 244 105.908ZM255.53 123.849C254.152 123.849 252.994 123.699 252.057 123.399C251.119 123.099 250.369 122.64 249.807 122.021C249.245 121.403 248.837 120.62 248.584 119.673C248.34 118.726 248.218 117.606 248.218 116.313V111.813C248.218 110.276 247.904 109.179 247.276 108.523C246.657 107.867 245.565 107.539 244 107.539V105.796C245.519 105.796 246.751 105.913 247.698 106.147C248.654 106.381 249.39 106.714 249.905 107.145C250.421 107.577 250.772 108.092 250.96 108.692C251.157 109.292 251.255 109.957 251.255 110.689V116.313C251.255 117.409 251.382 118.309 251.635 119.012C251.897 119.715 252.338 120.236 252.957 120.573C253.585 120.92 254.442 121.093 255.53 121.093V123.849ZM244 107.539V104.165H247.318V107.539H244Z" fill="white"/>
<path d="M135.852 103.908V102.165C134.287 102.165 133.195 101.836 132.576 101.18C131.948 100.524 131.634 99.4274 131.634 97.8902V93.3908C131.634 92.0973 131.512 90.9771 131.269 90.0304C131.016 89.0836 130.608 88.3009 130.045 87.6823C129.483 87.0636 128.733 86.6043 127.796 86.3044C126.858 86.0044 125.701 85.8544 124.323 85.8544V88.6103C125.41 88.6103 126.268 88.779 126.896 89.1165C127.515 89.4539 127.955 89.9788 128.218 90.6912C128.471 91.3942 128.597 92.2941 128.597 93.3908V99.015C128.597 99.7461 128.696 100.412 128.892 101.012C129.08 101.611 129.431 102.127 129.947 102.558C130.463 102.989 131.198 103.322 132.154 103.557C133.101 103.791 134.334 103.908 135.852 103.908ZM124.323 121.849C125.701 121.849 126.858 121.699 127.796 121.399C128.733 121.099 129.483 120.64 130.045 120.021C130.608 119.403 131.016 118.62 131.269 117.673C131.512 116.726 131.634 115.606 131.634 114.313V109.813C131.634 108.276 131.948 107.179 132.576 106.523C133.195 105.867 134.287 105.539 135.852 105.539V103.796C134.334 103.796 133.101 103.913 132.154 104.147C131.198 104.381 130.463 104.714 129.947 105.145C129.431 105.577 129.08 106.092 128.892 106.692C128.696 107.292 128.597 107.957 128.597 108.689V114.313C128.597 115.409 128.471 116.309 128.218 117.012C127.955 117.715 127.515 118.236 126.896 118.573C126.268 118.92 125.41 119.093 124.323 119.093L124.323 121.849ZM135.852 105.539V102.165H132.534V105.539H135.852Z" fill="white"/>
<path d="M77.148 114.703L76.9231 116.221C76.7637 117.29 76.52 118.434 76.1919 119.652C75.8732 120.871 75.5405 122.019 75.1936 123.097C74.8468 124.175 74.5609 125.033 74.336 125.67H71.8051C71.9269 125.07 72.0863 124.278 72.2831 123.294C72.48 122.31 72.6768 121.208 72.8737 119.99C73.0799 118.78 73.2486 117.543 73.3799 116.278L73.5486 114.703H77.148Z" fill="white"/>
<path d="M111.495 102.589C111.495 103.318 112.085 103.909 112.814 103.909C113.543 103.909 114.134 103.318 114.134 102.589H112.814H111.495ZM103.448 114.873C104.177 114.873 104.768 114.282 104.768 113.553C104.768 112.825 104.177 112.234 103.448 112.234V113.553V114.873ZM86.9969 111.558L88.1667 110.947L88.1667 110.947L86.9969 111.558ZM88.6342 113.155L89.2216 111.973H89.2216L88.6342 113.155ZM110.769 95.6775L110.181 96.8594L110.181 96.8594L110.769 95.6775ZM112.406 97.2748L111.236 97.8858V97.8858L112.406 97.2748ZM88.6342 95.6775L88.0467 94.4957L88.0467 94.4957L88.6342 95.6775ZM86.9969 97.2748L85.827 96.6637L85.827 96.6637L86.9969 97.2748ZM92.2083 106.751C91.4794 106.751 90.8885 107.342 90.8885 108.071C90.8885 108.8 91.4794 109.391 92.2083 109.391V108.071V106.751ZM99.7014 109.391C100.43 109.391 101.021 108.8 101.021 108.071C101.021 107.342 100.43 106.751 99.7014 106.751V108.071V109.391ZM92.2083 99.4416C91.4794 99.4416 90.8885 100.033 90.8885 100.761C90.8885 101.49 91.4794 102.081 92.2083 102.081V100.761V99.4416ZM105.321 102.081C106.05 102.081 106.641 101.49 106.641 100.761C106.641 100.033 106.05 99.4416 105.321 99.4416V100.761V102.081ZM113.513 119.638C113.846 120.286 114.641 120.543 115.29 120.21C115.938 119.878 116.195 119.082 115.862 118.434L114.688 119.036L113.513 119.638ZM106.02 118.434C105.688 119.082 105.944 119.878 106.593 120.21C107.241 120.543 108.037 120.286 108.369 119.638L107.195 119.036L106.02 118.434ZM92.583 95.2792V96.599H106.82V95.2792V93.9594H92.583V95.2792ZM86.5885 107.706H87.9083V101.127H86.5885H85.2687V107.706H86.5885ZM112.814 101.127H111.495V102.589H112.814H114.134V101.127H112.814ZM103.448 113.553V112.234H92.583V113.553V114.873H103.448V113.553ZM86.5885 107.706H85.2687C85.2687 108.707 85.2676 109.539 85.3243 110.216C85.3824 110.91 85.508 111.558 85.827 112.169L86.9969 111.558L88.1667 110.947C88.0774 110.776 87.9987 110.521 87.9547 109.996C87.9094 109.454 87.9083 108.751 87.9083 107.706H86.5885ZM92.583 113.553V112.234C91.5126 112.234 90.7872 112.233 90.2271 112.188C89.6814 112.144 89.4082 112.066 89.2216 111.973L88.6342 113.155L88.0467 114.337C88.6616 114.643 89.3136 114.763 90.0174 114.819C90.7067 114.874 91.5551 114.873 92.583 114.873V113.553ZM86.9969 111.558L85.827 112.169C86.3172 113.107 87.0962 113.864 88.0467 114.337L88.6342 113.155L89.2216 111.973C88.7622 111.745 88.3949 111.384 88.1667 110.947L86.9969 111.558ZM106.82 95.2792V96.599C107.89 96.599 108.616 96.6 109.176 96.6446C109.721 96.6881 109.995 96.7667 110.181 96.8594L110.769 95.6775L111.356 94.4957C110.741 94.1901 110.089 94.0694 109.385 94.0133C108.696 93.9584 107.848 93.9594 106.82 93.9594V95.2792ZM112.814 101.127H114.134C114.134 100.126 114.135 99.2936 114.078 98.6163C114.02 97.9226 113.895 97.2746 113.576 96.6637L112.406 97.2748L111.236 97.8858C111.325 98.0568 111.404 98.3114 111.448 98.8366C111.493 99.3782 111.495 100.081 111.495 101.127H112.814ZM110.769 95.6775L110.181 96.8594C110.641 97.0877 111.008 97.4489 111.236 97.8858L112.406 97.2748L113.576 96.6637C113.086 95.7252 112.307 94.9681 111.356 94.4957L110.769 95.6775ZM92.583 95.2792V93.9594C91.5551 93.9594 90.7067 93.9584 90.0174 94.0133C89.3136 94.0694 88.6616 94.1901 88.0467 94.4957L88.6342 95.6775L89.2216 96.8594C89.4082 96.7667 89.6814 96.6881 90.2271 96.6446C90.7872 96.6 91.5126 96.599 92.583 96.599V95.2792ZM86.5885 101.127H87.9083C87.9083 100.081 87.9094 99.3782 87.9547 98.8366C87.9987 98.3114 88.0774 98.0568 88.1667 97.8858L86.9969 97.2748L85.827 96.6637C85.508 97.2746 85.3824 97.9226 85.3243 98.6163C85.2676 99.2936 85.2687 100.126 85.2687 101.127H86.5885ZM88.6342 95.6775L88.0467 94.4957C87.0962 94.9681 86.3172 95.7252 85.827 96.6637L86.9969 97.2748L88.1667 97.8858C88.3949 97.4489 88.7622 97.0877 89.2216 96.8594L88.6342 95.6775ZM92.2083 108.071V109.391H99.7014V108.071V106.751H92.2083V108.071ZM92.2083 100.761V102.081H105.321V100.761V99.4416H92.2083V100.761ZM115.624 109.899H114.304C114.304 111.662 112.83 113.147 110.941 113.147V114.467V115.787C114.225 115.787 116.944 113.181 116.944 109.899H115.624ZM110.941 114.467V113.147C109.052 113.147 107.578 111.662 107.578 109.899H106.258H104.938C104.938 113.181 107.657 115.787 110.941 115.787V114.467ZM106.258 109.899H107.578C107.578 108.135 109.052 106.65 110.941 106.65V105.33V104.01C107.657 104.01 104.938 106.616 104.938 109.899H106.258ZM110.941 105.33V106.65C112.83 106.65 114.304 108.135 114.304 109.899H115.624H116.944C116.944 106.616 114.225 104.01 110.941 104.01V105.33ZM114.688 119.036C115.862 118.434 115.862 118.433 115.861 118.432C115.861 118.432 115.861 118.431 115.861 118.431C115.86 118.43 115.86 118.429 115.859 118.428C115.858 118.426 115.857 118.423 115.856 118.421C115.853 118.416 115.85 118.411 115.847 118.406C115.841 118.395 115.834 118.382 115.826 118.367C115.81 118.338 115.788 118.302 115.762 118.26C115.71 118.176 115.638 118.069 115.544 117.946C115.355 117.7 115.073 117.389 114.68 117.082C113.877 116.455 112.658 115.888 110.941 115.888V117.208V118.528C112.034 118.528 112.688 118.876 113.056 119.162C113.248 119.312 113.376 119.457 113.451 119.555C113.488 119.603 113.511 119.638 113.521 119.655C113.526 119.663 113.528 119.666 113.527 119.663C113.526 119.662 113.525 119.659 113.522 119.655C113.521 119.653 113.52 119.651 113.518 119.648C113.517 119.646 113.517 119.645 113.516 119.643C113.515 119.642 113.515 119.641 113.514 119.64C113.514 119.64 113.514 119.639 113.514 119.639C113.513 119.638 113.513 119.638 114.688 119.036ZM110.941 117.208V115.888C109.224 115.888 108.005 116.455 107.202 117.082C106.809 117.389 106.527 117.7 106.338 117.946C106.244 118.069 106.172 118.176 106.12 118.26C106.094 118.302 106.073 118.338 106.056 118.367C106.048 118.382 106.041 118.395 106.035 118.406C106.032 118.411 106.029 118.416 106.027 118.421C106.025 118.423 106.024 118.426 106.023 118.428C106.023 118.429 106.022 118.43 106.021 118.431C106.021 118.431 106.021 118.432 106.021 118.432C106.02 118.433 106.02 118.434 107.195 119.036C108.369 119.638 108.369 119.638 108.368 119.639C108.368 119.639 108.368 119.64 108.368 119.64C108.367 119.641 108.367 119.642 108.366 119.643C108.365 119.645 108.365 119.646 108.364 119.648C108.362 119.651 108.361 119.653 108.36 119.655C108.358 119.659 108.356 119.662 108.355 119.663C108.354 119.666 108.356 119.663 108.361 119.655C108.371 119.638 108.394 119.603 108.431 119.555C108.506 119.457 108.634 119.312 108.826 119.162C109.194 118.876 109.848 118.528 110.941 118.528V117.208Z" fill="white"/>
<path d="M379.852 103.908V102.165C378.287 102.165 377.195 101.836 376.576 101.18C375.948 100.524 375.634 99.4274 375.634 97.8902V93.3908C375.634 92.0973 375.512 90.9771 375.269 90.0304C375.016 89.0836 374.608 88.3009 374.045 87.6823C373.483 87.0636 372.733 86.6043 371.796 86.3044C370.858 86.0044 369.701 85.8544 368.323 85.8544V88.6103C369.41 88.6103 370.268 88.779 370.896 89.1165C371.515 89.4539 371.955 89.9788 372.218 90.6912C372.471 91.3942 372.597 92.2941 372.597 93.3908V99.015C372.597 99.7461 372.696 100.412 372.892 101.012C373.08 101.611 373.431 102.127 373.947 102.558C374.463 102.989 375.198 103.322 376.154 103.557C377.101 103.791 378.334 103.908 379.852 103.908ZM368.323 121.849C369.701 121.849 370.858 121.699 371.796 121.399C372.733 121.099 373.483 120.64 374.045 120.021C374.608 119.403 375.016 118.62 375.269 117.673C375.512 116.726 375.634 115.606 375.634 114.313V109.813C375.634 108.276 375.948 107.179 376.576 106.523C377.195 105.867 378.287 105.539 379.852 105.539V103.796C378.334 103.796 377.101 103.913 376.154 104.147C375.198 104.381 374.463 104.714 373.947 105.145C373.431 105.577 373.08 106.092 372.892 106.692C372.696 107.292 372.597 107.957 372.597 108.689V114.313C372.597 115.409 372.471 116.309 372.218 117.012C371.955 117.715 371.515 118.236 370.896 118.573C370.268 118.92 369.41 119.093 368.323 119.093V121.849ZM379.852 105.539V102.165H376.534V105.539H379.852Z" fill="white"/>
<path d="M321.148 114.703L320.923 116.221C320.764 117.29 320.52 118.434 320.192 119.652C319.873 120.871 319.54 122.019 319.194 123.097C318.847 124.175 318.561 125.033 318.336 125.67H315.805C315.927 125.07 316.086 124.278 316.283 123.294C316.48 122.31 316.677 121.208 316.874 119.99C317.08 118.78 317.249 117.543 317.38 116.278L317.549 114.703H321.148Z" fill="white"/>
<path d="M355.495 102.589C355.495 103.318 356.085 103.909 356.814 103.909C357.543 103.909 358.134 103.318 358.134 102.589H356.814H355.495ZM347.448 114.873C348.177 114.873 348.768 114.282 348.768 113.553C348.768 112.825 348.177 112.234 347.448 112.234V113.553V114.873ZM330.997 111.558L332.167 110.947L332.167 110.947L330.997 111.558ZM332.634 113.155L333.222 111.973H333.222L332.634 113.155ZM354.769 95.6775L354.181 96.8594L354.181 96.8594L354.769 95.6775ZM356.406 97.2748L355.236 97.8858V97.8858L356.406 97.2748ZM332.634 95.6775L332.047 94.4957L332.047 94.4957L332.634 95.6775ZM330.997 97.2748L329.827 96.6637L329.827 96.6637L330.997 97.2748ZM336.208 106.751C335.479 106.751 334.889 107.342 334.889 108.071C334.889 108.8 335.479 109.391 336.208 109.391V108.071V106.751ZM343.701 109.391C344.43 109.391 345.021 108.8 345.021 108.071C345.021 107.342 344.43 106.751 343.701 106.751V108.071V109.391ZM336.208 99.4416C335.479 99.4416 334.889 100.033 334.889 100.761C334.889 101.49 335.479 102.081 336.208 102.081V100.761V99.4416ZM349.321 102.081C350.05 102.081 350.641 101.49 350.641 100.761C350.641 100.033 350.05 99.4416 349.321 99.4416V100.761V102.081ZM357.513 119.638C357.846 120.286 358.641 120.543 359.29 120.21C359.938 119.878 360.195 119.082 359.862 118.434L358.688 119.036L357.513 119.638ZM350.02 118.434C349.688 119.082 349.944 119.878 350.593 120.21C351.241 120.543 352.037 120.286 352.369 119.638L351.195 119.036L350.02 118.434ZM336.583 95.2792V96.599H350.82V95.2792V93.9594H336.583V95.2792ZM330.589 107.706H331.908V101.127H330.589H329.269V107.706H330.589ZM356.814 101.127H355.495V102.589H356.814H358.134V101.127H356.814ZM347.448 113.553V112.234H336.583V113.553V114.873H347.448V113.553ZM330.589 107.706H329.269C329.269 108.707 329.268 109.539 329.324 110.216C329.382 110.91 329.508 111.558 329.827 112.169L330.997 111.558L332.167 110.947C332.077 110.776 331.999 110.521 331.955 109.996C331.909 109.454 331.908 108.751 331.908 107.706H330.589ZM336.583 113.553V112.234C335.513 112.234 334.787 112.233 334.227 112.188C333.681 112.144 333.408 112.066 333.222 111.973L332.634 113.155L332.047 114.337C332.662 114.643 333.314 114.763 334.017 114.819C334.707 114.874 335.555 114.873 336.583 114.873V113.553ZM330.997 111.558L329.827 112.169C330.317 113.107 331.096 113.864 332.047 114.337L332.634 113.155L333.222 111.973C332.762 111.745 332.395 111.384 332.167 110.947L330.997 111.558ZM350.82 95.2792V96.599C351.89 96.599 352.616 96.6 353.176 96.6446C353.721 96.6881 353.995 96.7667 354.181 96.8594L354.769 95.6775L355.356 94.4957C354.741 94.1901 354.089 94.0694 353.385 94.0133C352.696 93.9584 351.848 93.9594 350.82 93.9594V95.2792ZM356.814 101.127H358.134C358.134 100.126 358.135 99.2936 358.078 98.6163C358.02 97.9226 357.895 97.2746 357.576 96.6637L356.406 97.2748L355.236 97.8858C355.325 98.0568 355.404 98.3114 355.448 98.8366C355.493 99.3782 355.495 100.081 355.495 101.127H356.814ZM354.769 95.6775L354.181 96.8594C354.641 97.0877 355.008 97.4489 355.236 97.8858L356.406 97.2748L357.576 96.6637C357.086 95.7252 356.307 94.9681 355.356 94.4957L354.769 95.6775ZM336.583 95.2792V93.9594C335.555 93.9594 334.707 93.9584 334.017 94.0133C333.314 94.0694 332.662 94.1901 332.047 94.4957L332.634 95.6775L333.222 96.8594C333.408 96.7667 333.681 96.6881 334.227 96.6446C334.787 96.6 335.513 96.599 336.583 96.599V95.2792ZM330.589 101.127H331.908C331.908 100.081 331.909 99.3782 331.955 98.8366C331.999 98.3114 332.077 98.0568 332.167 97.8858L330.997 97.2748L329.827 96.6637C329.508 97.2746 329.382 97.9226 329.324 98.6163C329.268 99.2936 329.269 100.126 329.269 101.127H330.589ZM332.634 95.6775L332.047 94.4957C331.096 94.9681 330.317 95.7252 329.827 96.6637L330.997 97.2748L332.167 97.8858C332.395 97.4489 332.762 97.0877 333.222 96.8594L332.634 95.6775ZM336.208 108.071V109.391H343.701V108.071V106.751H336.208V108.071ZM336.208 100.761V102.081H349.321V100.761V99.4416H336.208V100.761ZM359.624 109.899H358.304C358.304 111.662 356.83 113.147 354.941 113.147V114.467V115.787C358.225 115.787 360.944 113.181 360.944 109.899H359.624ZM354.941 114.467V113.147C353.052 113.147 351.578 111.662 351.578 109.899H350.258H348.938C348.938 113.181 351.657 115.787 354.941 115.787V114.467ZM350.258 109.899H351.578C351.578 108.135 353.052 106.65 354.941 106.65V105.33V104.01C351.657 104.01 348.938 106.616 348.938 109.899H350.258ZM354.941 105.33V106.65C356.83 106.65 358.304 108.135 358.304 109.899H359.624H360.944C360.944 106.616 358.225 104.01 354.941 104.01V105.33ZM358.688 119.036C359.862 118.434 359.862 118.433 359.861 118.432C359.861 118.432 359.861 118.431 359.861 118.431C359.86 118.43 359.86 118.429 359.859 118.428C359.858 118.426 359.857 118.423 359.856 118.421C359.853 118.416 359.85 118.411 359.847 118.406C359.841 118.395 359.834 118.382 359.826 118.367C359.81 118.338 359.788 118.302 359.762 118.26C359.71 118.176 359.638 118.069 359.544 117.946C359.355 117.7 359.073 117.389 358.68 117.082C357.877 116.455 356.658 115.888 354.941 115.888V117.208V118.528C356.034 118.528 356.688 118.876 357.056 119.162C357.248 119.312 357.376 119.457 357.451 119.555C357.488 119.603 357.511 119.638 357.521 119.655C357.526 119.663 357.528 119.666 357.527 119.663C357.526 119.662 357.525 119.659 357.522 119.655C357.521 119.653 357.52 119.651 357.518 119.648C357.517 119.646 357.517 119.645 357.516 119.643C357.515 119.642 357.515 119.641 357.514 119.64C357.514 119.64 357.514 119.639 357.514 119.639C357.513 119.638 357.513 119.638 358.688 119.036ZM354.941 117.208V115.888C353.224 115.888 352.005 116.455 351.202 117.082C350.809 117.389 350.527 117.7 350.338 117.946C350.244 118.069 350.172 118.176 350.12 118.26C350.094 118.302 350.073 118.338 350.056 118.367C350.048 118.382 350.041 118.395 350.035 118.406C350.032 118.411 350.029 118.416 350.027 118.421C350.025 118.423 350.024 118.426 350.023 118.428C350.023 118.429 350.022 118.43 350.021 118.431C350.021 118.431 350.021 118.432 350.021 118.432C350.02 118.433 350.02 118.434 351.195 119.036C352.369 119.638 352.369 119.638 352.368 119.639C352.368 119.639 352.368 119.64 352.368 119.64C352.367 119.641 352.367 119.642 352.366 119.643C352.365 119.645 352.365 119.646 352.364 119.648C352.362 119.651 352.361 119.653 352.36 119.655C352.358 119.659 352.356 119.662 352.355 119.663C352.354 119.666 352.356 119.663 352.361 119.655C352.371 119.638 352.394 119.603 352.431 119.555C352.506 119.457 352.634 119.312 352.826 119.162C353.194 118.876 353.848 118.528 354.941 118.528V117.208Z" fill="white"/>
</svg>
