<svg width="450" height="265" viewBox="0 0 450 265" fill="none" xmlns="http://www.w3.org/2000/svg">
<path d="M357.978 121.923C359.929 121.923 361.314 122.567 362.227 123.279C362.674 123.628 362.994 123.983 363.208 124.262C363.316 124.401 363.398 124.523 363.457 124.618C363.487 124.666 363.511 124.707 363.529 124.74C363.539 124.757 363.547 124.772 363.554 124.784C363.558 124.79 363.56 124.797 363.563 124.802C363.564 124.805 363.566 124.807 363.567 124.809L363.568 124.813L363.57 124.814C363.57 124.814 363.57 124.816 362.235 125.5L363.571 124.816C363.948 125.553 363.657 126.457 362.92 126.835C362.183 127.212 361.28 126.921 360.902 126.185V126.187L360.904 126.19C360.905 126.192 360.907 126.196 360.907 126.196C360.908 126.199 360.91 126.202 360.911 126.204C360.914 126.209 360.916 126.214 360.916 126.214C360.916 126.214 360.913 126.208 360.91 126.203C360.899 126.184 360.872 126.145 360.831 126.09C360.746 125.98 360.6 125.814 360.382 125.643C359.964 125.317 359.22 124.923 357.978 124.923C356.736 124.923 355.991 125.317 355.573 125.643C355.355 125.814 355.21 125.98 355.125 126.09C355.083 126.145 355.056 126.184 355.045 126.203C355.042 126.208 355.039 126.214 355.039 126.214C355.039 126.214 355.041 126.209 355.044 126.204C355.045 126.202 355.047 126.199 355.048 126.196C355.048 126.196 355.05 126.192 355.051 126.19L355.053 126.187V126.186L355.052 126.185C354.674 126.921 353.772 127.212 353.035 126.835C352.298 126.457 352.007 125.553 352.384 124.816L353.72 125.5C352.385 124.816 352.385 124.814 352.385 124.814L352.387 124.813L352.388 124.809C352.389 124.807 352.391 124.805 352.393 124.802C352.395 124.797 352.397 124.79 352.401 124.784C352.408 124.772 352.416 124.757 352.426 124.74C352.444 124.707 352.468 124.666 352.498 124.618C352.557 124.523 352.639 124.401 352.747 124.262C352.961 123.983 353.281 123.628 353.728 123.279C354.641 122.567 356.027 121.923 357.978 121.923ZM361.8 115.116C361.8 113.112 360.124 111.423 357.978 111.423C355.832 111.423 354.155 113.112 354.155 115.116C354.155 117.12 355.832 118.808 357.978 118.808C360.124 118.807 361.8 117.12 361.8 115.116ZM345.203 111.539C346.032 111.539 346.704 112.21 346.704 113.038C346.704 113.867 346.032 114.539 345.203 114.539H336.687C335.859 114.539 335.188 113.867 335.188 113.038C335.188 112.21 335.859 111.539 336.687 111.539H345.203ZM358.606 106.808V105.147C358.606 103.958 358.606 103.158 358.554 102.543C358.504 101.947 358.415 101.657 358.313 101.463C358.054 100.967 357.636 100.555 357.114 100.296C356.902 100.191 356.591 100.101 355.972 100.052C355.335 100.001 354.51 100.001 353.293 100.001H337.114C335.897 100.001 335.072 100.001 334.435 100.052C333.815 100.101 333.505 100.191 333.293 100.296C332.771 100.555 332.353 100.967 332.093 101.463C331.992 101.657 331.903 101.947 331.853 102.543C331.801 103.158 331.801 103.958 331.801 105.147V112.624C331.801 113.812 331.801 114.611 331.853 115.226C331.903 115.823 331.992 116.113 332.093 116.307C332.353 116.803 332.771 117.214 333.293 117.473C333.505 117.579 333.815 117.668 334.435 117.717C335.072 117.768 335.897 117.769 337.114 117.769H349.462C350.29 117.77 350.961 118.441 350.961 119.27C350.961 120.098 350.29 120.769 349.462 120.769H337.114C335.945 120.769 334.98 120.77 334.197 120.707C333.397 120.644 332.656 120.507 331.957 120.16C330.877 119.623 329.992 118.762 329.435 117.696C329.072 117.002 328.93 116.265 328.864 115.476C328.799 114.707 328.8 113.761 328.8 112.624V105.147C328.8 104.009 328.799 103.063 328.864 102.293C328.93 101.505 329.073 100.768 329.435 100.074C329.992 99.0077 330.877 98.1473 331.957 97.6103C332.656 97.263 333.397 97.1254 334.197 97.0616C334.98 96.9992 335.945 97 337.114 97H353.293C354.461 97 355.426 96.9992 356.21 97.0616C357.01 97.1254 357.751 97.263 358.45 97.6103C359.53 98.1473 360.415 99.0077 360.972 100.074C361.334 100.768 361.477 101.505 361.543 102.293C361.607 103.063 361.607 104.009 361.607 105.147V106.808C361.607 107.636 360.935 108.307 360.107 108.307C359.278 108.307 358.606 107.636 358.606 106.808ZM351.59 103.231C352.418 103.231 353.09 103.902 353.091 104.731C353.091 105.559 352.419 106.231 351.59 106.231H336.687C335.859 106.231 335.188 105.559 335.188 104.731C335.188 103.903 335.859 103.232 336.687 103.231H351.59ZM364.8 115.116C364.8 118.846 361.71 121.807 357.978 121.807C354.245 121.807 351.155 118.847 351.155 115.116C351.155 111.385 354.245 108.424 357.978 108.424C361.711 108.424 364.8 111.385 364.8 115.116Z" fill="white"/>
<path opacity="0.5" d="M245.297 33H244.281L247.219 25H248.219L251.156 33H250.141L247.75 26.2656H247.688L245.297 33ZM245.672 29.875H249.766V30.7344H245.672V29.875ZM252.277 33V27H253.168V27.9062H253.23C253.34 27.6094 253.538 27.3685 253.824 27.1836C254.111 26.9987 254.434 26.9062 254.793 26.9062C254.861 26.9062 254.945 26.9076 255.047 26.9102C255.148 26.9128 255.225 26.9167 255.277 26.9219V27.8594C255.246 27.8516 255.174 27.8398 255.063 27.8242C254.953 27.806 254.837 27.7969 254.715 27.7969C254.423 27.7969 254.163 27.8581 253.934 27.9805C253.707 28.1003 253.527 28.2669 253.395 28.4805C253.264 28.6914 253.199 28.9323 253.199 29.2031V33H252.277ZM259.355 27V27.7812H256.246V27H259.355ZM257.152 25.5625H258.074V31.2812C258.074 31.5417 258.112 31.737 258.188 31.8672C258.266 31.9948 258.365 32.0807 258.484 32.125C258.607 32.1667 258.736 32.1875 258.871 32.1875C258.973 32.1875 259.056 32.1823 259.121 32.1719C259.186 32.1589 259.238 32.1484 259.277 32.1406L259.465 32.9687C259.402 32.9922 259.315 33.0156 259.203 33.0391C259.091 33.0651 258.949 33.0781 258.777 33.0781C258.517 33.0781 258.262 33.0221 258.012 32.9102C257.764 32.7982 257.559 32.6276 257.395 32.3984C257.233 32.1693 257.152 31.8802 257.152 31.5312V25.5625ZM260.742 33V27H261.664V33H260.742ZM261.211 26C261.031 26 260.876 25.9388 260.746 25.8164C260.618 25.694 260.555 25.5469 260.555 25.375C260.555 25.2031 260.618 25.056 260.746 24.9336C260.876 24.8112 261.031 24.75 261.211 24.75C261.391 24.75 261.544 24.8112 261.672 24.9336C261.802 25.056 261.867 25.2031 261.867 25.375C261.867 25.5469 261.802 25.694 261.672 25.8164C261.544 25.9388 261.391 26 261.211 26ZM266.024 27V27.7812H262.79V27H266.024ZM263.759 33V26.1719C263.759 25.8281 263.84 25.5417 264.001 25.3125C264.162 25.0833 264.372 24.9115 264.63 24.7969C264.888 24.6823 265.16 24.625 265.446 24.625C265.673 24.625 265.858 24.6432 266.001 24.6797C266.144 24.7161 266.251 24.75 266.321 24.7812L266.056 25.5781C266.009 25.5625 265.944 25.543 265.86 25.5195C265.78 25.4961 265.673 25.4844 265.54 25.4844C265.235 25.4844 265.015 25.5612 264.88 25.7148C264.747 25.8685 264.681 26.0937 264.681 26.3906V33H263.759ZM268.91 33.1406C268.53 33.1406 268.185 33.069 267.875 32.9258C267.565 32.7799 267.319 32.5703 267.137 32.2969C266.954 32.0208 266.863 31.6875 266.863 31.2969C266.863 30.9531 266.931 30.6745 267.066 30.4609C267.202 30.2448 267.383 30.0755 267.609 29.9531C267.836 29.8307 268.086 29.7396 268.359 29.6797C268.635 29.6172 268.913 29.5677 269.191 29.5313C269.556 29.4844 269.852 29.4492 270.078 29.4258C270.307 29.3997 270.474 29.3568 270.578 29.2969C270.685 29.237 270.738 29.1328 270.738 28.9844V28.9531C270.738 28.5677 270.633 28.2682 270.422 28.0547C270.214 27.8411 269.897 27.7344 269.473 27.7344C269.033 27.7344 268.688 27.8307 268.438 28.0234C268.188 28.2161 268.012 28.4219 267.91 28.6406L267.035 28.3281C267.191 27.9635 267.4 27.6797 267.66 27.4766C267.923 27.2708 268.21 27.1276 268.52 27.0469C268.832 26.9635 269.139 26.9219 269.441 26.9219C269.634 26.9219 269.855 26.9453 270.105 26.9922C270.358 27.0365 270.602 27.1289 270.836 27.2695C271.073 27.4102 271.27 27.6224 271.426 27.9062C271.582 28.1901 271.66 28.5703 271.66 29.0469V33H270.738V32.1875H270.691C270.629 32.3177 270.525 32.457 270.379 32.6055C270.233 32.7539 270.039 32.8802 269.797 32.9844C269.555 33.0885 269.259 33.1406 268.91 33.1406ZM269.051 32.3125C269.415 32.3125 269.723 32.2409 269.973 32.0977C270.225 31.9544 270.415 31.7695 270.543 31.543C270.673 31.3164 270.738 31.0781 270.738 30.8281V29.9844C270.699 30.0312 270.613 30.0742 270.48 30.1133C270.35 30.1497 270.199 30.1823 270.027 30.2109C269.858 30.237 269.693 30.2604 269.531 30.2812C269.372 30.2995 269.243 30.3151 269.145 30.3281C268.905 30.3594 268.681 30.4102 268.473 30.4805C268.267 30.5482 268.1 30.651 267.973 30.7891C267.848 30.9245 267.785 31.1094 267.785 31.3437C267.785 31.6641 267.904 31.9062 268.141 32.0703C268.38 32.2318 268.684 32.3125 269.051 32.3125ZM275.78 33.125C275.218 33.125 274.733 32.9922 274.327 32.7266C273.921 32.4609 273.608 32.0951 273.39 31.6289C273.171 31.1628 273.062 30.6302 273.062 30.0312C273.062 29.4219 273.174 28.8841 273.397 28.418C273.624 27.9492 273.939 27.5833 274.343 27.3203C274.749 27.0547 275.223 26.9219 275.765 26.9219C276.187 26.9219 276.567 27 276.905 27.1562C277.244 27.3125 277.521 27.5312 277.737 27.8125C277.953 28.0937 278.088 28.4219 278.14 28.7969H277.218C277.147 28.5234 276.991 28.2812 276.749 28.0703C276.509 27.8568 276.187 27.75 275.78 27.75C275.421 27.75 275.106 27.8437 274.835 28.0312C274.567 28.2161 274.357 28.4779 274.206 28.8164C274.058 29.1523 273.983 29.5469 273.983 30C273.983 30.4635 274.056 30.8672 274.202 31.2109C274.351 31.5547 274.559 31.8216 274.827 32.0117C275.098 32.2018 275.416 32.2969 275.78 32.2969C276.02 32.2969 276.237 32.2552 276.433 32.1719C276.628 32.0885 276.793 31.9687 276.929 31.8125C277.064 31.6562 277.16 31.4687 277.218 31.25H278.14C278.088 31.6042 277.959 31.9232 277.753 32.207C277.55 32.4883 277.28 32.7122 276.944 32.8789C276.611 33.043 276.223 33.125 275.78 33.125ZM282.097 27V27.7812H278.987V27H282.097ZM279.894 25.5625H280.815V31.2812C280.815 31.5417 280.853 31.737 280.929 31.8672C281.007 31.9948 281.106 32.0807 281.226 32.125C281.348 32.1667 281.477 32.1875 281.612 32.1875C281.714 32.1875 281.797 32.1823 281.862 32.1719C281.927 32.1589 281.979 32.1484 282.019 32.1406L282.206 32.9687C282.144 32.9922 282.056 33.0156 281.944 33.0391C281.832 33.0651 281.69 33.0781 281.519 33.0781C281.258 33.0781 281.003 33.0221 280.753 32.9102C280.506 32.7982 280.3 32.6276 280.136 32.3984C279.974 32.1693 279.894 31.8802 279.894 31.5312V25.5625Z" fill="white"/>
<line x1="98.5498" y1="69" x2="98.5498" y2="88" stroke="white" stroke-width="1.5"/>
<line x1="345.66" y1="70.0046" x2="345.55" y2="88.0048" stroke="white" stroke-width="1.5"/>
<line x1="306.55" y1="181" x2="306.55" y2="203" stroke="white" stroke-width="1.5"/>
<line x1="388.55" y1="181" x2="388.55" y2="200.776" stroke="white" stroke-width="1.5"/>
<path d="M310.056 229.361H301.931C299.795 229.361 298.726 229.361 298.063 228.697C297.399 228.033 297.399 226.965 297.399 224.829V213.499C297.399 211.362 297.399 210.294 298.063 209.631C298.726 208.967 299.795 208.967 301.931 208.967H313.261C315.397 208.967 316.466 208.967 317.129 209.631C317.793 210.294 317.793 211.362 317.793 213.499V221.624C317.793 222.087 317.793 222.319 317.707 222.527C317.62 222.735 317.457 222.899 317.129 223.227L311.659 228.697C311.331 229.025 311.167 229.188 310.959 229.275C310.751 229.361 310.519 229.361 310.056 229.361Z" stroke="white" stroke-width="2.472"/>
<path d="M309.862 229.361V224.074C309.862 222.827 309.862 222.204 310.249 221.817C310.636 221.43 311.259 221.43 312.506 221.43H317.793" stroke="white" stroke-width="2.472"/>
<path d="M391.632 229.361H383.507C381.37 229.361 380.302 229.361 379.638 228.697C378.975 228.033 378.975 226.965 378.975 224.829V213.499C378.975 211.362 378.975 210.294 379.638 209.631C380.302 208.967 381.37 208.967 383.507 208.967H394.837C396.973 208.967 398.041 208.967 398.705 209.631C399.369 210.294 399.369 211.362 399.369 213.499V221.624C399.369 222.087 399.369 222.319 399.282 222.527C399.196 222.735 399.032 222.899 398.705 223.227L393.234 228.697C392.907 229.025 392.743 229.188 392.535 229.275C392.327 229.361 392.095 229.361 391.632 229.361Z" stroke="white" stroke-width="2.472"/>
<path d="M391.438 229.361V224.074C391.438 222.827 391.438 222.204 391.825 221.817C392.212 221.43 392.835 221.43 394.081 221.43H399.369" stroke="white" stroke-width="2.472"/>
<path d="M119.238 127.115L122.101 125.395H123.302L121.374 136.296H120.172L121.848 126.833L119.861 128.035L119.238 127.115Z" fill="white"/>
<path d="M317.108 230.815V230.103H319.244L318.631 233.564C318.578 233.881 318.591 234.138 318.67 234.335C318.723 234.467 318.799 234.563 318.898 234.622C318.99 234.681 319.102 234.711 319.234 234.711C319.339 234.711 319.438 234.688 319.531 234.642C319.643 234.583 319.751 234.487 319.857 234.355C319.962 234.217 320.048 234.052 320.114 233.861L320.826 234.157C320.74 234.375 320.631 234.569 320.5 234.741C320.328 234.972 320.13 235.146 319.906 235.265C319.702 235.37 319.478 235.423 319.234 235.423C318.898 235.423 318.621 235.351 318.403 235.206C318.186 235.067 318.024 234.873 317.919 234.622C317.787 234.299 317.764 233.904 317.85 233.436L318.314 230.815H317.108ZM318.68 228.907C318.628 228.815 318.601 228.703 318.601 228.571C318.601 228.439 318.628 228.327 318.68 228.235C318.726 228.149 318.792 228.083 318.878 228.037C318.97 227.977 319.082 227.948 319.214 227.948C319.465 227.948 319.646 228.043 319.758 228.235C319.811 228.327 319.837 228.439 319.837 228.571C319.837 228.703 319.811 228.815 319.758 228.907C319.712 228.993 319.646 229.059 319.56 229.105C319.461 229.164 319.346 229.194 319.214 229.194C318.964 229.194 318.786 229.098 318.68 228.907ZM322.359 229.223L324.267 228.076H325.068L323.782 235.344H322.982L324.099 229.035L322.774 229.836L322.359 229.223Z" fill="white"/>
<path d="M216.089 225.733C216.023 225.614 215.99 225.473 215.99 225.308C215.99 225.143 216.023 225.001 216.089 224.883C216.148 224.777 216.23 224.695 216.336 224.635C216.454 224.57 216.596 224.537 216.761 224.537C216.926 224.537 217.067 224.57 217.186 224.635C217.292 224.695 217.374 224.777 217.433 224.883C217.499 225.001 217.532 225.143 217.532 225.308C217.532 225.473 217.499 225.614 217.433 225.733C217.374 225.838 217.292 225.921 217.186 225.98C217.067 226.046 216.926 226.079 216.761 226.079C216.596 226.079 216.454 226.046 216.336 225.98C216.23 225.921 216.148 225.838 216.089 225.733ZM221.033 225.733C220.967 225.614 220.934 225.473 220.934 225.308C220.934 225.143 220.967 225.001 221.033 224.883C221.092 224.777 221.174 224.695 221.28 224.635C221.398 224.57 221.54 224.537 221.705 224.537C221.87 224.537 222.011 224.57 222.13 224.635C222.236 224.695 222.318 224.777 222.377 224.883C222.443 225.001 222.476 225.143 222.476 225.308C222.476 225.473 222.443 225.614 222.377 225.733C222.318 225.838 222.236 225.921 222.13 225.98C222.011 226.046 221.87 226.079 221.705 226.079C221.54 226.079 221.398 226.046 221.28 225.98C221.174 225.921 221.092 225.838 221.033 225.733ZM225.977 225.733C225.911 225.614 225.878 225.473 225.878 225.308C225.878 225.143 225.911 225.001 225.977 224.883C226.036 224.777 226.118 224.695 226.224 224.635C226.342 224.57 226.484 224.537 226.649 224.537C226.814 224.537 226.955 224.57 227.074 224.635C227.18 224.695 227.262 224.777 227.321 224.883C227.387 225.001 227.42 225.143 227.42 225.308C227.42 225.473 227.387 225.614 227.321 225.733C227.262 225.838 227.18 225.921 227.074 225.98C226.955 226.046 226.814 226.079 226.649 226.079C226.484 226.079 226.342 226.046 226.224 225.98C226.118 225.921 226.036 225.838 225.977 225.733Z" fill="white"/>
<path d="M244.089 127.733C244.023 127.614 243.99 127.473 243.99 127.308C243.99 127.143 244.023 127.001 244.089 126.883C244.148 126.777 244.23 126.695 244.336 126.635C244.454 126.57 244.596 126.537 244.761 126.537C244.926 126.537 245.067 126.57 245.186 126.635C245.292 126.695 245.374 126.777 245.433 126.883C245.499 127.001 245.532 127.143 245.532 127.308C245.532 127.473 245.499 127.614 245.433 127.733C245.374 127.838 245.292 127.921 245.186 127.98C245.067 128.046 244.926 128.079 244.761 128.079C244.596 128.079 244.454 128.046 244.336 127.98C244.23 127.921 244.148 127.838 244.089 127.733ZM249.033 127.733C248.967 127.614 248.934 127.473 248.934 127.308C248.934 127.143 248.967 127.001 249.033 126.883C249.092 126.777 249.174 126.695 249.28 126.635C249.398 126.57 249.54 126.537 249.705 126.537C249.87 126.537 250.011 126.57 250.13 126.635C250.236 126.695 250.318 126.777 250.377 126.883C250.443 127.001 250.476 127.143 250.476 127.308C250.476 127.473 250.443 127.614 250.377 127.733C250.318 127.838 250.236 127.921 250.13 127.98C250.011 128.046 249.87 128.079 249.705 128.079C249.54 128.079 249.398 128.046 249.28 127.98C249.174 127.921 249.092 127.838 249.033 127.733ZM253.977 127.733C253.911 127.614 253.878 127.473 253.878 127.308C253.878 127.143 253.911 127.001 253.977 126.883C254.036 126.777 254.118 126.695 254.224 126.635C254.342 126.57 254.484 126.537 254.649 126.537C254.814 126.537 254.955 126.57 255.074 126.635C255.18 126.695 255.262 126.777 255.321 126.883C255.387 127.001 255.42 127.143 255.42 127.308C255.42 127.473 255.387 127.614 255.321 127.733C255.262 127.838 255.18 127.921 255.074 127.98C254.955 128.046 254.814 128.079 254.649 128.079C254.484 128.079 254.342 128.046 254.224 127.98C254.118 127.921 254.036 127.838 253.977 127.733Z" fill="white"/>
<path d="M342.313 225.189C342.247 225.07 342.214 224.929 342.214 224.764C342.214 224.599 342.247 224.457 342.313 224.339C342.372 224.233 342.454 224.151 342.56 224.092C342.679 224.026 342.82 223.993 342.985 223.993C343.15 223.993 343.292 224.026 343.41 224.092C343.516 224.151 343.598 224.233 343.657 224.339C343.723 224.457 343.756 224.599 343.756 224.764C343.756 224.929 343.723 225.07 343.657 225.189C343.598 225.295 343.516 225.377 343.41 225.436C343.292 225.502 343.15 225.535 342.985 225.535C342.82 225.535 342.679 225.502 342.56 225.436C342.454 225.377 342.372 225.295 342.313 225.189ZM347.257 225.189C347.191 225.07 347.158 224.929 347.158 224.764C347.158 224.599 347.191 224.457 347.257 224.339C347.316 224.233 347.398 224.151 347.504 224.092C347.623 224.026 347.764 223.993 347.929 223.993C348.094 223.993 348.236 224.026 348.354 224.092C348.46 224.151 348.542 224.233 348.601 224.339C348.667 224.457 348.7 224.599 348.7 224.764C348.7 224.929 348.667 225.07 348.601 225.189C348.542 225.295 348.46 225.377 348.354 225.436C348.236 225.502 348.094 225.535 347.929 225.535C347.764 225.535 347.623 225.502 347.504 225.436C347.398 225.377 347.316 225.295 347.257 225.189ZM352.201 225.189C352.135 225.07 352.102 224.929 352.102 224.764C352.102 224.599 352.135 224.457 352.201 224.339C352.26 224.233 352.342 224.151 352.448 224.092C352.567 224.026 352.708 223.993 352.873 223.993C353.038 223.993 353.18 224.026 353.298 224.092C353.404 224.151 353.486 224.233 353.545 224.339C353.611 224.457 353.644 224.599 353.644 224.764C353.644 224.929 353.611 225.07 353.545 225.189C353.486 225.295 353.404 225.377 353.298 225.436C353.18 225.502 353.038 225.535 352.873 225.535C352.708 225.535 352.567 225.502 352.448 225.436C352.342 225.377 352.26 225.295 352.201 225.189Z" fill="white"/>
<path d="M398.684 230.815V230.103H400.82L400.207 233.564C400.154 233.881 400.167 234.138 400.246 234.335C400.299 234.467 400.375 234.563 400.474 234.622C400.566 234.681 400.678 234.711 400.81 234.711C400.915 234.711 401.014 234.688 401.107 234.642C401.219 234.583 401.327 234.487 401.433 234.355C401.538 234.217 401.624 234.052 401.69 233.861L402.402 234.157C402.316 234.375 402.208 234.569 402.076 234.741C401.904 234.972 401.707 235.146 401.482 235.265C401.278 235.37 401.054 235.423 400.81 235.423C400.474 235.423 400.197 235.351 399.979 235.206C399.762 235.067 399.6 234.873 399.495 234.622C399.363 234.299 399.34 233.904 399.426 233.436L399.89 230.815H398.684ZM400.256 228.907C400.204 228.815 400.177 228.703 400.177 228.571C400.177 228.439 400.204 228.327 400.256 228.235C400.302 228.149 400.368 228.083 400.454 228.037C400.546 227.977 400.658 227.948 400.79 227.948C401.041 227.948 401.222 228.043 401.334 228.235C401.387 228.327 401.413 228.439 401.413 228.571C401.413 228.703 401.387 228.815 401.334 228.907C401.288 228.993 401.222 229.059 401.136 229.105C401.037 229.164 400.922 229.194 400.79 229.194C400.54 229.194 400.362 229.098 400.256 228.907Z" fill="white"/>
<path d="M402.165 236.184L402.926 235.977C402.933 236.089 402.952 236.191 402.985 236.283C403.104 236.587 403.355 236.738 403.737 236.738C403.888 236.738 404.03 236.705 404.162 236.639C404.3 236.567 404.426 236.458 404.538 236.313C404.696 236.109 404.801 235.848 404.854 235.532L405.685 230.815H404.399V230.103H406.614L406.486 230.815L405.635 235.651C405.563 236.072 405.415 236.428 405.19 236.718C405.019 236.949 404.811 237.127 404.567 237.252C404.317 237.384 404.04 237.45 403.737 237.45C403.328 237.45 402.999 237.368 402.748 237.203C402.524 237.058 402.362 236.863 402.264 236.62C402.211 236.481 402.178 236.336 402.165 236.184ZM405.813 228.907C405.761 228.815 405.734 228.703 405.734 228.571C405.734 228.439 405.761 228.327 405.813 228.235C405.859 228.149 405.925 228.083 406.011 228.037C406.103 227.977 406.215 227.948 406.347 227.948C406.598 227.948 406.779 228.043 406.891 228.235C406.944 228.327 406.97 228.439 406.97 228.571C406.97 228.703 406.944 228.815 406.891 228.907C406.845 228.993 406.779 229.059 406.693 229.105C406.594 229.164 406.479 229.194 406.347 229.194C406.097 229.194 405.919 229.098 405.813 228.907Z" fill="white"/>
<path d="M365.819 129.342V128.406H368.627L367.821 132.956C367.751 133.372 367.769 133.71 367.873 133.97C367.942 134.143 368.042 134.269 368.172 134.347C368.293 134.425 368.44 134.464 368.614 134.464C368.752 134.464 368.882 134.434 369.004 134.373C369.151 134.295 369.294 134.169 369.433 133.996C369.571 133.814 369.684 133.597 369.771 133.346L370.707 133.736C370.594 134.022 370.451 134.278 370.278 134.503C370.052 134.806 369.792 135.036 369.498 135.192C369.229 135.331 368.934 135.4 368.614 135.4C368.172 135.4 367.808 135.305 367.522 135.114C367.236 134.932 367.023 134.676 366.885 134.347C366.711 133.922 366.681 133.402 366.794 132.787L367.405 129.342H365.819ZM367.886 126.833C367.816 126.712 367.782 126.564 367.782 126.391C367.782 126.218 367.816 126.07 367.886 125.949C367.946 125.836 368.033 125.75 368.146 125.689C368.267 125.611 368.414 125.572 368.588 125.572C368.917 125.572 369.155 125.698 369.303 125.949C369.372 126.07 369.407 126.218 369.407 126.391C369.407 126.564 369.372 126.712 369.303 126.833C369.242 126.946 369.155 127.032 369.043 127.093C368.913 127.171 368.761 127.21 368.588 127.21C368.258 127.21 368.024 127.084 367.886 126.833Z" fill="white"/>
<path d="M331.8 175.75H361.8C364.147 175.75 366.05 177.653 366.05 180V183C366.05 185.347 364.147 187.25 361.8 187.25H331.8C329.453 187.25 327.55 185.347 327.55 183V180C327.55 177.653 329.453 175.75 331.8 175.75Z" stroke="white" stroke-width="1.5"/>
<path d="M325.33 182.53C325.623 182.237 325.623 181.763 325.33 181.47L320.557 176.697C320.264 176.404 319.789 176.404 319.497 176.697C319.204 176.99 319.204 177.464 319.497 177.757L323.739 182L319.497 186.243C319.204 186.536 319.204 187.01 319.497 187.303C319.789 187.596 320.264 187.596 320.557 187.303L325.33 182.53ZM306.8 182V182.75H324.8V182V181.25H306.8V182Z" fill="white"/>
<path d="M368.269 181.47C367.977 181.763 367.977 182.237 368.269 182.53L373.042 187.303C373.335 187.596 373.81 187.596 374.103 187.303C374.396 187.01 374.396 186.536 374.103 186.243L369.86 182L374.103 177.757C374.396 177.464 374.396 176.99 374.103 176.697C373.81 176.404 373.335 176.404 373.042 176.697L368.269 181.47ZM388.8 182V181.25H368.8V182V182.75H388.8V182Z" fill="white"/>
<path d="M347.33 190.47C347.037 190.177 346.562 190.177 346.269 190.47L341.497 195.243C341.204 195.536 341.204 196.01 341.497 196.303C341.789 196.596 342.264 196.596 342.557 196.303L346.8 192.061L351.042 196.303C351.335 196.596 351.81 196.596 352.103 196.303C352.396 196.01 352.396 195.536 352.103 195.243L347.33 190.47ZM346.8 203H347.55V191H346.8H346.05V203H346.8Z" fill="white"/>
<path d="M340.568 184V178.909H341.644V183.113H343.827V184H340.568ZM344.54 184V178.909H345.616V183.113H347.799V184H344.54ZM348.511 178.909H349.839L351.241 182.33H351.3L352.702 178.909H354.03V184H352.986V180.686H352.943L351.626 183.975H350.915L349.598 180.674H349.555V184H348.511V178.909Z" fill="white"/>
<path d="M347.33 155.47C347.037 155.177 346.562 155.177 346.269 155.47L341.497 160.243C341.204 160.536 341.204 161.01 341.497 161.303C341.789 161.596 342.264 161.596 342.557 161.303L346.8 157.061L351.042 161.303C351.335 161.596 351.81 161.596 352.103 161.303C352.396 161.01 352.396 160.536 352.103 160.243L347.33 155.47ZM346.8 175H347.55V156H346.8H346.05V175H346.8Z" fill="white"/>
<path d="M232.978 121.923C234.929 121.923 236.314 122.567 237.227 123.279C237.674 123.628 237.994 123.983 238.208 124.262C238.316 124.401 238.398 124.523 238.457 124.618C238.487 124.666 238.511 124.707 238.529 124.74C238.539 124.757 238.547 124.772 238.554 124.784C238.558 124.79 238.56 124.797 238.563 124.802C238.564 124.805 238.566 124.807 238.567 124.809L238.568 124.813L238.57 124.814C238.57 124.814 238.57 124.816 237.235 125.5L238.571 124.816C238.948 125.553 238.657 126.457 237.92 126.835C237.183 127.212 236.28 126.921 235.902 126.185V126.187L235.904 126.19C235.905 126.192 235.907 126.196 235.907 126.196C235.908 126.199 235.91 126.202 235.911 126.204C235.914 126.209 235.916 126.214 235.916 126.214C235.916 126.214 235.913 126.208 235.91 126.203C235.899 126.184 235.872 126.145 235.831 126.09C235.746 125.98 235.6 125.814 235.382 125.643C234.964 125.317 234.22 124.923 232.978 124.923C231.736 124.923 230.991 125.317 230.573 125.643C230.355 125.814 230.21 125.98 230.125 126.09C230.083 126.145 230.056 126.184 230.045 126.203C230.042 126.208 230.039 126.214 230.039 126.214C230.039 126.214 230.041 126.209 230.044 126.204C230.045 126.202 230.047 126.199 230.048 126.196C230.048 126.196 230.05 126.192 230.051 126.19L230.053 126.187V126.186L230.052 126.185C229.674 126.921 228.772 127.212 228.035 126.835C227.298 126.457 227.007 125.553 227.384 124.816L228.72 125.5C227.385 124.816 227.385 124.814 227.385 124.814L227.387 124.813L227.388 124.809C227.389 124.807 227.391 124.805 227.393 124.802C227.395 124.797 227.397 124.79 227.401 124.784C227.408 124.772 227.416 124.757 227.426 124.74C227.444 124.707 227.468 124.666 227.498 124.618C227.557 124.523 227.639 124.401 227.747 124.262C227.961 123.983 228.281 123.628 228.728 123.279C229.641 122.567 231.027 121.923 232.978 121.923ZM236.8 115.116C236.8 113.112 235.124 111.423 232.978 111.423C230.832 111.423 229.155 113.112 229.155 115.116C229.155 117.12 230.832 118.808 232.978 118.808C235.124 118.807 236.8 117.12 236.8 115.116ZM220.203 111.539C221.032 111.539 221.704 112.21 221.704 113.038C221.704 113.867 221.032 114.539 220.203 114.539H211.687C210.859 114.539 210.188 113.867 210.188 113.038C210.188 112.21 210.859 111.539 211.687 111.539H220.203ZM233.606 106.808V105.147C233.606 103.958 233.606 103.158 233.554 102.543C233.504 101.947 233.415 101.657 233.313 101.463C233.054 100.967 232.636 100.555 232.114 100.296C231.902 100.191 231.591 100.101 230.972 100.052C230.335 100.001 229.51 100.001 228.293 100.001H212.114C210.897 100.001 210.072 100.001 209.435 100.052C208.815 100.101 208.505 100.191 208.293 100.296C207.771 100.555 207.353 100.967 207.093 101.463C206.992 101.657 206.903 101.947 206.853 102.543C206.801 103.158 206.801 103.958 206.801 105.147V112.624C206.801 113.812 206.801 114.611 206.853 115.226C206.903 115.823 206.992 116.113 207.093 116.307C207.353 116.803 207.771 117.214 208.293 117.473C208.505 117.579 208.815 117.668 209.435 117.717C210.072 117.768 210.897 117.769 212.114 117.769H224.462C225.29 117.77 225.961 118.441 225.961 119.27C225.961 120.098 225.29 120.769 224.462 120.769H212.114C210.945 120.769 209.98 120.77 209.197 120.707C208.397 120.644 207.656 120.507 206.957 120.16C205.877 119.623 204.992 118.762 204.435 117.696C204.072 117.002 203.93 116.265 203.864 115.476C203.799 114.707 203.8 113.761 203.8 112.624V105.147C203.8 104.009 203.799 103.063 203.864 102.293C203.93 101.505 204.073 100.768 204.435 100.074C204.992 99.0077 205.877 98.1473 206.957 97.6103C207.656 97.263 208.397 97.1254 209.197 97.0616C209.98 96.9992 210.945 97 212.114 97H228.293C229.461 97 230.426 96.9992 231.21 97.0616C232.01 97.1254 232.751 97.263 233.45 97.6103C234.53 98.1473 235.415 99.0077 235.972 100.074C236.334 100.768 236.477 101.505 236.543 102.293C236.607 103.063 236.607 104.009 236.607 105.147V106.808C236.607 107.636 235.935 108.307 235.107 108.307C234.278 108.307 233.606 107.636 233.606 106.808ZM226.59 103.231C227.418 103.231 228.09 103.902 228.091 104.731C228.091 105.559 227.419 106.231 226.59 106.231H211.687C210.859 106.231 210.188 105.559 210.188 104.731C210.188 103.903 210.859 103.232 211.687 103.231H226.59ZM239.8 115.116C239.8 118.846 236.71 121.807 232.978 121.807C229.245 121.807 226.155 118.847 226.155 115.116C226.155 111.385 229.245 108.424 232.978 108.424C236.711 108.424 239.8 111.385 239.8 115.116Z" fill="white"/>
<path d="M232.978 38.9234C234.929 38.9235 236.314 39.5669 237.227 40.2791C237.674 40.6281 237.994 40.9826 238.208 41.2616C238.316 41.4014 238.398 41.5233 238.457 41.6183C238.487 41.6659 238.511 41.7072 238.529 41.7404C238.539 41.757 238.547 41.7716 238.554 41.7843C238.558 41.7905 238.56 41.7968 238.563 41.802C238.564 41.8046 238.566 41.8068 238.567 41.8092L238.568 41.8127L238.57 41.8139C238.57 41.8139 238.57 41.8159 237.235 42.5001L238.571 41.8163C238.948 42.5533 238.657 43.4566 237.92 43.8345C237.183 44.2122 236.28 43.9215 235.902 43.1851V43.1875L235.904 43.1898C235.905 43.1917 235.907 43.1958 235.907 43.1958C235.908 43.199 235.91 43.2017 235.911 43.2041C235.914 43.2088 235.916 43.2135 235.916 43.2135C235.916 43.2135 235.913 43.208 235.91 43.2029C235.899 43.1842 235.872 43.1446 235.831 43.0903C235.746 42.9799 235.6 42.8138 235.382 42.6435C234.964 42.3175 234.22 41.923 232.978 41.9229C231.736 41.9229 230.991 42.3174 230.573 42.6435C230.355 42.8138 230.21 42.9799 230.125 43.0903C230.083 43.1449 230.056 43.1842 230.045 43.2029C230.042 43.2081 230.039 43.2135 230.039 43.2135C230.039 43.2135 230.041 43.2088 230.044 43.2041C230.045 43.2017 230.047 43.199 230.048 43.1958C230.048 43.1958 230.05 43.1917 230.051 43.1898L230.053 43.1875V43.1863L230.052 43.1851C229.674 43.9211 228.772 44.2121 228.035 43.8345C227.298 43.4566 227.007 42.5532 227.384 41.8163L228.72 42.5001C227.385 41.8159 227.385 41.8139 227.385 41.8139L227.387 41.8127L227.388 41.8092C227.389 41.8068 227.391 41.8046 227.393 41.802C227.395 41.7968 227.397 41.7905 227.401 41.7843C227.408 41.7717 227.416 41.757 227.426 41.7404C227.444 41.7072 227.468 41.6659 227.498 41.6183C227.557 41.5233 227.639 41.4014 227.747 41.2616C227.961 40.9826 228.281 40.6281 228.728 40.2791C229.641 39.5668 231.027 38.9234 232.978 38.9234ZM236.8 32.1159C236.8 30.1118 235.124 28.4234 232.978 28.4231C230.832 28.4231 229.155 30.1116 229.155 32.1159C229.155 34.1201 230.832 35.8076 232.978 35.8076C235.124 35.8074 236.8 34.12 236.8 32.1159ZM220.203 28.5392C221.032 28.5392 221.704 29.2101 221.704 30.0384C221.704 30.8668 221.032 31.5388 220.203 31.5388H211.687C210.859 31.5386 210.188 30.8667 210.188 30.0384C210.188 29.2102 210.859 28.5394 211.687 28.5392H220.203ZM233.606 23.8082V22.1466C233.606 20.9581 233.606 20.1584 233.554 19.5429C233.504 18.9469 233.415 18.6575 233.313 18.4632C233.054 17.9667 232.636 17.5554 232.114 17.2959C231.902 17.1905 231.591 17.1011 230.972 17.0517C230.335 17.001 229.51 17.0008 228.293 17.0008H212.114C210.897 17.0008 210.072 17.001 209.435 17.0517C208.815 17.1011 208.505 17.1905 208.293 17.2959C207.771 17.5554 207.353 17.9667 207.093 18.4632C206.992 18.6575 206.903 18.9469 206.853 19.5429C206.801 20.1584 206.801 20.9581 206.801 22.1466V29.6236C206.801 30.8119 206.801 31.6107 206.853 32.2262C206.903 32.8229 206.992 33.1127 207.093 33.307C207.353 33.8034 207.771 34.2137 208.293 34.4732C208.505 34.5786 208.815 34.6679 209.435 34.7173C210.072 34.7681 210.897 34.7695 212.114 34.7695H224.462C225.29 34.7696 225.961 35.4415 225.961 36.2698C225.961 37.098 225.29 37.7689 224.462 37.769H212.114C210.945 37.769 209.98 37.7699 209.197 37.7074C208.397 37.6436 207.656 37.5072 206.957 37.1599C205.877 36.6229 204.992 35.7624 204.435 34.696C204.072 34.0018 203.93 33.2646 203.864 32.4762C203.799 31.7066 203.8 30.7611 203.8 29.6236V22.1466C203.8 21.0088 203.799 20.0626 203.864 19.2928C203.93 18.5045 204.073 17.7683 204.435 17.0742C204.992 16.0077 205.877 15.1473 206.957 14.6103C207.656 14.263 208.397 14.1254 209.197 14.0616C209.98 13.9992 210.945 14 212.114 14H228.293C229.461 14 230.426 13.9992 231.21 14.0616C232.01 14.1254 232.751 14.263 233.45 14.6103C234.53 15.1473 235.415 16.0077 235.972 17.0742C236.334 17.7683 236.477 18.5045 236.543 19.2928C236.607 20.0626 236.607 21.0088 236.607 22.1466V23.8082C236.607 24.6365 235.935 25.3073 235.107 25.3074C234.278 25.3074 233.606 24.6365 233.606 23.8082ZM226.59 20.2314C227.418 20.2314 228.09 20.9024 228.091 21.7306C228.091 22.559 227.419 23.231 226.59 23.231H211.687C210.859 23.2308 210.188 22.5589 210.188 21.7306C210.188 20.9025 210.859 20.2316 211.687 20.2314H226.59ZM239.8 32.1159C239.8 35.8464 236.71 38.8069 232.978 38.8072C229.245 38.8072 226.155 35.8466 226.155 32.1159C226.155 28.3851 229.245 25.4235 232.978 25.4235C236.711 25.4238 239.8 28.3853 239.8 32.1159Z" fill="white"/>
<path d="M109.978 121.923C111.929 121.923 113.314 122.567 114.227 123.279C114.674 123.628 114.994 123.983 115.208 124.262C115.316 124.401 115.398 124.523 115.457 124.618C115.487 124.666 115.511 124.707 115.529 124.74C115.539 124.757 115.547 124.772 115.554 124.784C115.558 124.79 115.56 124.797 115.563 124.802C115.564 124.805 115.566 124.807 115.567 124.809L115.568 124.813L115.57 124.814C115.57 124.814 115.57 124.816 114.235 125.5L115.571 124.816C115.948 125.553 115.657 126.457 114.92 126.835C114.183 127.212 113.28 126.921 112.902 126.185V126.187L112.904 126.19C112.905 126.192 112.907 126.196 112.907 126.196C112.908 126.199 112.91 126.202 112.911 126.204C112.914 126.209 112.916 126.214 112.916 126.214C112.916 126.214 112.913 126.208 112.91 126.203C112.899 126.184 112.872 126.145 112.831 126.09C112.746 125.98 112.6 125.814 112.382 125.643C111.964 125.317 111.22 124.923 109.978 124.923C108.736 124.923 107.991 125.317 107.573 125.643C107.355 125.814 107.21 125.98 107.125 126.09C107.083 126.145 107.056 126.184 107.045 126.203C107.042 126.208 107.039 126.214 107.039 126.214C107.039 126.214 107.041 126.209 107.044 126.204C107.045 126.202 107.047 126.199 107.048 126.196C107.048 126.196 107.05 126.192 107.051 126.19L107.053 126.187V126.186L107.052 126.185C106.674 126.921 105.772 127.212 105.035 126.835C104.298 126.457 104.007 125.553 104.384 124.816L105.72 125.5C104.385 124.816 104.385 124.814 104.385 124.814L104.387 124.813L104.388 124.809C104.389 124.807 104.391 124.805 104.393 124.802C104.395 124.797 104.397 124.79 104.401 124.784C104.408 124.772 104.416 124.757 104.426 124.74C104.444 124.707 104.468 124.666 104.498 124.618C104.557 124.523 104.639 124.401 104.747 124.262C104.961 123.983 105.281 123.628 105.728 123.279C106.641 122.567 108.027 121.923 109.978 121.923ZM113.8 115.116C113.8 113.112 112.124 111.423 109.978 111.423C107.832 111.423 106.155 113.112 106.155 115.116C106.155 117.12 107.832 118.808 109.978 118.808C112.124 118.807 113.8 117.12 113.8 115.116ZM97.2034 111.539C98.0317 111.539 98.7037 112.21 98.7038 113.038C98.7038 113.867 98.0318 114.539 97.2034 114.539H88.687C87.8587 114.539 87.1877 113.867 87.1877 113.038C87.1879 112.21 87.8588 111.539 88.687 111.539H97.2034ZM110.606 106.808V105.147C110.606 103.958 110.606 103.158 110.554 102.543C110.504 101.947 110.415 101.657 110.313 101.463C110.054 100.967 109.636 100.555 109.114 100.296C108.902 100.191 108.591 100.101 107.972 100.052C107.335 100.001 106.51 100.001 105.293 100.001H89.1136C87.8971 100.001 87.0718 100.001 86.4352 100.052C85.8154 100.101 85.5047 100.191 85.2927 100.296C84.7706 100.555 84.3526 100.967 84.0933 101.463C83.992 101.657 83.9027 101.947 83.8527 102.543C83.8012 103.158 83.8006 103.958 83.8006 105.147V112.624C83.8006 113.812 83.8012 114.611 83.8527 115.226C83.9027 115.823 83.9919 116.113 84.0933 116.307C84.3526 116.803 84.7707 117.214 85.2927 117.473C85.5047 117.579 85.8153 117.668 86.4352 117.717C87.0718 117.768 87.8971 117.769 89.1136 117.769H101.462C102.29 117.77 102.961 118.441 102.961 119.27C102.961 120.098 102.29 120.769 101.462 120.769H89.1136C87.9454 120.769 86.9804 120.77 86.197 120.707C85.3972 120.644 84.6558 120.507 83.957 120.16C82.877 119.623 81.9921 118.762 81.435 117.696C81.0724 117.002 80.9298 116.265 80.8638 115.476C80.7994 114.707 80.7998 113.761 80.7998 112.624V105.147C80.7998 104.009 80.7993 103.063 80.8638 102.293C80.9298 101.505 81.0725 100.768 81.435 100.074C81.9921 99.0077 82.8769 98.1473 83.957 97.6103C84.6558 97.263 85.3971 97.1254 86.197 97.0616C86.9804 96.9992 87.9454 97 89.1136 97H105.293C106.461 97 107.426 96.9992 108.21 97.0616C109.01 97.1254 109.751 97.263 110.45 97.6103C111.53 98.1473 112.415 99.0077 112.972 100.074C113.334 100.768 113.477 101.505 113.543 102.293C113.607 103.063 113.607 104.009 113.607 105.147V106.808C113.607 107.636 112.935 108.307 112.107 108.307C111.278 108.307 110.606 107.636 110.606 106.808ZM103.59 103.231C104.418 103.231 105.09 103.902 105.091 104.731C105.091 105.559 104.419 106.231 103.59 106.231H88.687C87.8587 106.231 87.1877 105.559 87.1877 104.731C87.188 103.903 87.8588 103.232 88.687 103.231H103.59ZM116.8 115.116C116.8 118.846 113.71 121.807 109.978 121.807C106.245 121.807 103.155 118.847 103.155 115.116C103.155 111.385 106.245 108.424 109.978 108.424C113.711 108.424 116.8 111.385 116.8 115.116Z" fill="white"/>
<line x1="181.55" y1="181" x2="181.55" y2="203" stroke="white" stroke-width="1.5"/>
<line x1="263.55" y1="181" x2="263.55" y2="200.776" stroke="white" stroke-width="1.5"/>
<path d="M206.8 175.75H236.8C239.147 175.75 241.05 177.653 241.05 180V183C241.05 185.347 239.147 187.25 236.8 187.25H206.8C204.453 187.25 202.55 185.347 202.55 183V180C202.55 177.653 204.453 175.75 206.8 175.75Z" stroke="white" stroke-width="1.5"/>
<path d="M206.8 64.75H236.8C239.147 64.75 241.05 66.6528 241.05 69V72C241.05 74.3472 239.147 76.25 236.8 76.25H206.8C204.453 76.25 202.55 74.3472 202.55 72V69C202.55 66.6528 204.453 64.75 206.8 64.75Z" stroke="white" stroke-width="1.5"/>
<path d="M200.33 182.53C200.623 182.237 200.623 181.763 200.33 181.47L195.557 176.697C195.264 176.404 194.789 176.404 194.497 176.697C194.204 176.99 194.204 177.464 194.497 177.757L198.739 182L194.497 186.243C194.204 186.536 194.204 187.01 194.497 187.303C194.789 187.596 195.264 187.596 195.557 187.303L200.33 182.53ZM181.8 182V182.75H199.8V182V181.25H181.8V182Z" fill="white"/>
<path d="M243.269 181.47C242.977 181.763 242.977 182.237 243.269 182.53L248.042 187.303C248.335 187.596 248.81 187.596 249.103 187.303C249.396 187.01 249.396 186.536 249.103 186.243L244.86 182L249.103 177.757C249.396 177.464 249.396 176.99 249.103 176.697C248.81 176.404 248.335 176.404 248.042 176.697L243.269 181.47ZM263.8 182V181.25H243.8V182V182.75H263.8V182Z" fill="white"/>
<path d="M222.33 190.47C222.037 190.177 221.562 190.177 221.269 190.47L216.497 195.243C216.204 195.536 216.204 196.01 216.497 196.303C216.789 196.596 217.264 196.596 217.557 196.303L221.8 192.061L226.042 196.303C226.335 196.596 226.81 196.596 227.103 196.303C227.396 196.01 227.396 195.536 227.103 195.243L222.33 190.47ZM221.8 203H222.55V191H221.8H221.05V203H221.8Z" fill="white"/>
<path d="M215.568 184V178.909H216.644V183.113H218.827V184H215.568ZM219.54 184V178.909H220.616V183.113H222.799V184H219.54ZM223.511 178.909H224.839L226.241 182.33H226.3L227.702 178.909H229.03V184H227.986V180.686H227.943L226.626 183.975H225.915L224.598 180.674H224.555V184H223.511V178.909Z" fill="white"/>
<path d="M214.8 73.0909V68H215.876V72.2035H218.059V73.0909H214.8Z" fill="white"/>
<path d="M218.771 73.0909V68H219.848V72.2035H222.03V73.0909H218.771Z" fill="white"/>
<path d="M222.743 68H224.071L225.473 71.4205H225.532L226.934 68H228.262V73.0909H227.218V69.7773H227.175L225.858 73.0661H225.147L223.829 69.7649H223.787V73.0909H222.743V68Z" fill="white"/>
<path d="M222.33 155.47C222.037 155.177 221.562 155.177 221.269 155.47L216.497 160.243C216.204 160.536 216.204 161.01 216.497 161.303C216.789 161.596 217.264 161.596 217.557 161.303L221.8 157.061L226.042 161.303C226.335 161.596 226.81 161.596 227.103 161.303C227.396 161.01 227.396 160.536 227.103 160.243L222.33 155.47ZM221.8 176H222.55V156H221.8H221.05V176H221.8Z" fill="white"/>
<line x1="58.5498" y1="183.704" x2="58.5498" y2="205.704" stroke="white" stroke-width="1.5"/>
<line x1="140.55" y1="183.704" x2="140.55" y2="203.48" stroke="white" stroke-width="1.5"/>
<path d="M62.0563 232.065H53.9309C51.7945 232.065 50.7263 232.065 50.0626 231.401C49.3989 230.737 49.3989 229.669 49.3989 227.533V216.203C49.3989 214.066 49.3989 212.998 50.0626 212.335C50.7263 211.671 51.7945 211.671 53.9309 211.671H65.2609C67.3973 211.671 68.4655 211.671 69.1292 212.335C69.7929 212.998 69.7929 214.066 69.7929 216.203V224.328C69.7929 224.791 69.7929 225.023 69.7067 225.231C69.6204 225.439 69.4567 225.603 69.1292 225.931L63.6586 231.401C63.3311 231.729 63.1674 231.892 62.9592 231.979C62.751 232.065 62.5194 232.065 62.0563 232.065Z" stroke="white" stroke-width="2.472"/>
<path d="M61.8621 232.065V226.778C61.8621 225.531 61.8621 224.908 62.2492 224.521C62.6364 224.134 63.2595 224.134 64.5057 224.134H69.7931" stroke="white" stroke-width="2.472"/>
<path d="M143.632 232.065H135.507C133.37 232.065 132.302 232.065 131.638 231.401C130.975 230.737 130.975 229.669 130.975 227.533V216.203C130.975 214.066 130.975 212.998 131.638 212.335C132.302 211.671 133.37 211.671 135.507 211.671H146.837C148.973 211.671 150.041 211.671 150.705 212.335C151.369 212.998 151.369 214.066 151.369 216.203V224.328C151.369 224.791 151.369 225.023 151.282 225.231C151.196 225.439 151.032 225.603 150.705 225.931L145.234 231.401C144.907 231.729 144.743 231.892 144.535 231.979C144.327 232.065 144.095 232.065 143.632 232.065Z" stroke="white" stroke-width="2.472"/>
<path d="M143.438 232.065V226.778C143.438 225.531 143.438 224.908 143.825 224.521C144.212 224.134 144.835 224.134 146.081 224.134H151.369" stroke="white" stroke-width="2.472"/>
<path d="M69.4146 231.927L71.323 230.78H72.1239L70.8385 238.048H70.0375L71.1549 231.739L69.8299 232.54L69.4146 231.927ZM74.3586 231.927L76.267 230.78H77.0679L75.7825 238.048H74.9815L76.0989 231.739L74.7739 232.54L74.3586 231.927Z" fill="white"/>
<path d="M94.3127 227.893C94.2468 227.774 94.2138 227.633 94.2138 227.468C94.2138 227.303 94.2468 227.161 94.3127 227.043C94.372 226.937 94.4544 226.855 94.5599 226.795C94.6785 226.73 94.8203 226.697 94.9851 226.697C95.1499 226.697 95.2916 226.73 95.4103 226.795C95.5157 226.855 95.5981 226.937 95.6575 227.043C95.7234 227.161 95.7563 227.303 95.7563 227.468C95.7563 227.633 95.7234 227.774 95.6575 227.893C95.5981 227.999 95.5157 228.081 95.4103 228.14C95.2916 228.206 95.1499 228.239 94.9851 228.239C94.8203 228.239 94.6785 228.206 94.5599 228.14C94.4544 228.081 94.372 227.999 94.3127 227.893ZM99.2567 227.893C99.1908 227.774 99.1578 227.633 99.1578 227.468C99.1578 227.303 99.1908 227.161 99.2567 227.043C99.316 226.937 99.3984 226.855 99.5039 226.795C99.6225 226.73 99.7643 226.697 99.9291 226.697C100.094 226.697 100.236 226.73 100.354 226.795C100.46 226.855 100.542 226.937 100.601 227.043C100.667 227.161 100.7 227.303 100.7 227.468C100.7 227.633 100.667 227.774 100.601 227.893C100.542 227.999 100.46 228.081 100.354 228.14C100.236 228.206 100.094 228.239 99.9291 228.239C99.7643 228.239 99.6225 228.206 99.5039 228.14C99.3984 228.081 99.316 227.999 99.2567 227.893ZM104.201 227.893C104.135 227.774 104.102 227.633 104.102 227.468C104.102 227.303 104.135 227.161 104.201 227.043C104.26 226.937 104.342 226.855 104.448 226.795C104.567 226.73 104.708 226.697 104.873 226.697C105.038 226.697 105.18 226.73 105.298 226.795C105.404 226.855 105.486 226.937 105.545 227.043C105.611 227.161 105.644 227.303 105.644 227.468C105.644 227.633 105.611 227.774 105.545 227.893C105.486 227.999 105.404 228.081 105.298 228.14C105.18 228.206 105.038 228.239 104.873 228.239C104.708 228.239 104.567 228.206 104.448 228.14C104.342 228.081 104.26 227.999 104.201 227.893Z" fill="white"/>
<path d="M150.991 231.927L152.899 230.78H153.7L152.414 238.048H151.613L152.731 231.739L151.406 232.54L150.991 231.927ZM154.165 238.888L154.926 238.681C154.933 238.793 154.952 238.895 154.985 238.987C155.104 239.291 155.354 239.442 155.737 239.442C155.888 239.442 156.03 239.409 156.162 239.343C156.3 239.271 156.426 239.162 156.538 239.017C156.696 238.813 156.801 238.552 156.854 238.236L157.685 233.519H156.399V232.807H158.614L158.486 233.519L157.635 238.355C157.563 238.776 157.414 239.132 157.19 239.422C157.019 239.653 156.811 239.831 156.567 239.956C156.317 240.088 156.04 240.154 155.737 240.154C155.328 240.154 154.998 240.072 154.748 239.907C154.524 239.762 154.362 239.567 154.263 239.324C154.211 239.185 154.178 239.04 154.165 238.888ZM157.813 231.611C157.76 231.519 157.734 231.407 157.734 231.275C157.734 231.143 157.76 231.031 157.813 230.939C157.859 230.853 157.925 230.787 158.011 230.741C158.103 230.681 158.215 230.652 158.347 230.652C158.598 230.652 158.779 230.747 158.891 230.939C158.944 231.031 158.97 231.143 158.97 231.275C158.97 231.407 158.944 231.519 158.891 231.611C158.845 231.697 158.779 231.763 158.693 231.809C158.594 231.868 158.479 231.898 158.347 231.898C158.097 231.898 157.919 231.802 157.813 231.611Z" fill="white"/>
<path d="M83.7998 178.454H113.8C116.147 178.454 118.05 180.357 118.05 182.704V185.704C118.05 188.051 116.147 189.954 113.8 189.954H83.7998C81.4526 189.954 79.5498 188.051 79.5498 185.704V182.704C79.5498 180.357 81.4526 178.454 83.7998 178.454Z" stroke="white" stroke-width="1.5"/>
<path d="M77.3301 185.234C77.623 184.941 77.623 184.467 77.3301 184.174L72.5572 179.401C72.2643 179.108 71.7894 179.108 71.4965 179.401C71.2036 179.694 71.2036 180.168 71.4965 180.461L75.7391 184.704L71.4965 188.947C71.2036 189.24 71.2036 189.714 71.4965 190.007C71.7894 190.3 72.2643 190.3 72.5572 190.007L77.3301 185.234ZM58.7998 184.704V185.454H76.7998V184.704V183.954H58.7998V184.704Z" fill="white"/>
<path d="M120.269 184.174C119.977 184.467 119.977 184.941 120.269 185.234L125.042 190.007C125.335 190.3 125.81 190.3 126.103 190.007C126.396 189.714 126.396 189.24 126.103 188.947L121.86 184.704L126.103 180.461C126.396 180.168 126.396 179.694 126.103 179.401C125.81 179.108 125.335 179.108 125.042 179.401L120.269 184.174ZM140.8 184.704V183.954H120.8V184.704V185.454H140.8V184.704Z" fill="white"/>
<path d="M99.3301 193.174C99.0372 192.881 98.5624 192.881 98.2695 193.174L93.4965 197.947C93.2036 198.24 93.2036 198.714 93.4965 199.007C93.7894 199.3 94.2643 199.3 94.5572 199.007L98.7998 194.765L103.042 199.007C103.335 199.3 103.81 199.3 104.103 199.007C104.396 198.714 104.396 198.24 104.103 197.947L99.3301 193.174ZM98.7998 205.704H99.5498V193.704H98.7998H98.0498V205.704H98.7998Z" fill="white"/>
<path d="M92.568 186.704V181.613H93.6443V185.817H95.8268V186.704H92.568ZM96.5396 186.704V181.613H97.616V185.817H99.7985V186.704H96.5396ZM100.511 181.613H101.839L103.241 185.034H103.3L104.702 181.613H106.03V186.704H104.986V183.39H104.943L103.626 186.679H102.915L101.598 183.378H101.555V186.704H100.511V181.613Z" fill="white"/>
<path d="M99.3301 158.47C99.0372 158.177 98.5624 158.177 98.2695 158.47L93.4965 163.243C93.2036 163.536 93.2036 164.01 93.4965 164.303C93.7894 164.596 94.2643 164.596 94.5572 164.303L98.7998 160.061L103.042 164.303C103.335 164.596 103.81 164.596 104.103 164.303C104.396 164.01 104.396 163.536 104.103 163.243L99.3301 158.47ZM98.7998 178H99.5498V159H98.7998H98.0498V178H98.7998Z" fill="white"/>
<path d="M200.325 71.5257C200.621 71.2357 200.625 70.7608 200.335 70.4651L195.609 65.6456C195.319 65.3498 194.845 65.3452 194.549 65.6352C194.253 65.9252 194.248 66.4 194.538 66.6958L198.739 70.9798L194.455 75.1806C194.16 75.4707 194.155 75.9455 194.445 76.2413C194.735 76.537 195.21 76.5417 195.505 76.2517L200.325 71.5257ZM98.7998 70L98.7925 70.75L199.793 71.7402L199.8 70.9902L199.807 70.2402L98.8072 69.25L98.7998 70Z" fill="white"/>
<path d="M243.269 70.4697C242.977 70.7626 242.977 71.2374 243.269 71.5303L248.042 76.3033C248.335 76.5962 248.81 76.5962 249.103 76.3033C249.396 76.0104 249.396 75.5355 249.103 75.2426L244.86 71L249.103 66.7574C249.396 66.4645 249.396 65.9896 249.103 65.6967C248.81 65.4038 248.335 65.4038 248.042 65.6967L243.269 70.4697ZM345.8 71V70.25L243.8 70.25V71V71.75L345.8 71.75V71Z" fill="white"/>
<path d="M222.33 79.4697C222.037 79.1768 221.562 79.1768 221.269 79.4697L216.497 84.2426C216.204 84.5355 216.204 85.0104 216.497 85.3033C216.789 85.5962 217.264 85.5962 217.557 85.3033L221.8 81.0607L226.042 85.3033C226.335 85.5962 226.81 85.5962 227.103 85.3033C227.396 85.0104 227.396 84.5355 227.103 84.2426L222.33 79.4697ZM221.8 94H222.55V80H221.8H221.05V94H221.8Z" fill="white"/>
<path d="M222.43 47.469C222.137 47.1761 221.662 47.1761 221.37 47.469L216.597 52.242C216.304 52.5349 216.304 53.0098 216.597 53.3027C216.889 53.5956 217.364 53.5956 217.657 53.3027L221.9 49.06L226.143 53.3027C226.435 53.5956 226.91 53.5956 227.203 53.3027C227.496 53.0098 227.496 52.5349 227.203 52.242L222.43 47.469ZM221.9 64.0006H222.65V47.9994H221.9H221.15V64.0006H221.9Z" fill="white"/>
<g opacity="0.5">
<path d="M204 256V248H204.969V255.141H208.688V256H204Z" fill="white"/>
<path d="M212.578 256.125C212 256.125 211.501 255.997 211.082 255.742C210.665 255.484 210.344 255.125 210.117 254.664C209.893 254.201 209.781 253.661 209.781 253.047C209.781 252.432 209.893 251.891 210.117 251.422C210.344 250.951 210.659 250.583 211.062 250.32C211.469 250.055 211.943 249.922 212.484 249.922C212.797 249.922 213.105 249.974 213.41 250.078C213.715 250.182 213.992 250.352 214.242 250.586C214.492 250.818 214.691 251.125 214.84 251.508C214.988 251.891 215.062 252.362 215.062 252.922V253.312H210.438V252.516H214.125C214.125 252.177 214.057 251.875 213.922 251.609C213.789 251.344 213.599 251.134 213.352 250.98C213.107 250.827 212.818 250.75 212.484 250.75C212.117 250.75 211.799 250.841 211.531 251.023C211.266 251.203 211.061 251.438 210.918 251.727C210.775 252.016 210.703 252.326 210.703 252.656V253.188C210.703 253.641 210.781 254.025 210.938 254.34C211.096 254.652 211.316 254.891 211.598 255.055C211.879 255.216 212.206 255.297 212.578 255.297C212.82 255.297 213.039 255.263 213.234 255.195C213.432 255.125 213.603 255.021 213.746 254.883C213.889 254.742 214 254.568 214.078 254.359L214.969 254.609C214.875 254.911 214.717 255.177 214.496 255.406C214.275 255.633 214.001 255.81 213.676 255.938C213.35 256.062 212.984 256.125 212.578 256.125Z" fill="white"/>
<path d="M218.23 256.141C217.85 256.141 217.505 256.069 217.195 255.926C216.885 255.78 216.639 255.57 216.457 255.297C216.275 255.021 216.184 254.688 216.184 254.297C216.184 253.953 216.251 253.674 216.387 253.461C216.522 253.245 216.703 253.076 216.93 252.953C217.156 252.831 217.406 252.74 217.68 252.68C217.956 252.617 218.233 252.568 218.512 252.531C218.876 252.484 219.172 252.449 219.398 252.426C219.628 252.4 219.794 252.357 219.898 252.297C220.005 252.237 220.059 252.133 220.059 251.984V251.953C220.059 251.568 219.953 251.268 219.742 251.055C219.534 250.841 219.217 250.734 218.793 250.734C218.353 250.734 218.008 250.831 217.758 251.023C217.508 251.216 217.332 251.422 217.23 251.641L216.355 251.328C216.512 250.964 216.72 250.68 216.98 250.477C217.243 250.271 217.53 250.128 217.84 250.047C218.152 249.964 218.46 249.922 218.762 249.922C218.954 249.922 219.176 249.945 219.426 249.992C219.678 250.036 219.922 250.129 220.156 250.27C220.393 250.41 220.59 250.622 220.746 250.906C220.902 251.19 220.98 251.57 220.98 252.047V256H220.059V255.188H220.012C219.949 255.318 219.845 255.457 219.699 255.605C219.553 255.754 219.359 255.88 219.117 255.984C218.875 256.089 218.579 256.141 218.23 256.141ZM218.371 255.312C218.736 255.312 219.043 255.241 219.293 255.098C219.546 254.954 219.736 254.77 219.863 254.543C219.993 254.316 220.059 254.078 220.059 253.828V252.984C220.02 253.031 219.934 253.074 219.801 253.113C219.671 253.15 219.52 253.182 219.348 253.211C219.178 253.237 219.013 253.26 218.852 253.281C218.693 253.299 218.564 253.315 218.465 253.328C218.225 253.359 218.001 253.41 217.793 253.48C217.587 253.548 217.421 253.651 217.293 253.789C217.168 253.924 217.105 254.109 217.105 254.344C217.105 254.664 217.224 254.906 217.461 255.07C217.701 255.232 218.004 255.312 218.371 255.312Z" fill="white"/>
<path d="M227.354 250L225.136 256H224.198L221.979 250H222.979L224.636 254.781H224.698L226.354 250H227.354Z" fill="white"/>
<path d="M230.872 256.125C230.294 256.125 229.795 255.997 229.376 255.742C228.959 255.484 228.638 255.125 228.411 254.664C228.187 254.201 228.075 253.661 228.075 253.047C228.075 252.432 228.187 251.891 228.411 251.422C228.638 250.951 228.953 250.583 229.356 250.32C229.763 250.055 230.237 249.922 230.778 249.922C231.091 249.922 231.399 249.974 231.704 250.078C232.009 250.182 232.286 250.352 232.536 250.586C232.786 250.818 232.985 251.125 233.134 251.508C233.282 251.891 233.356 252.362 233.356 252.922V253.312H228.731V252.516H232.419C232.419 252.177 232.351 251.875 232.216 251.609C232.083 251.344 231.893 251.134 231.646 250.98C231.401 250.827 231.112 250.75 230.778 250.75C230.411 250.75 230.093 250.841 229.825 251.023C229.56 251.203 229.355 251.438 229.212 251.727C229.069 252.016 228.997 252.326 228.997 252.656V253.188C228.997 253.641 229.075 254.025 229.231 254.34C229.39 254.652 229.61 254.891 229.892 255.055C230.173 255.216 230.5 255.297 230.872 255.297C231.114 255.297 231.333 255.263 231.528 255.195C231.726 255.125 231.897 255.021 232.04 254.883C232.183 254.742 232.294 254.568 232.372 254.359L233.263 254.609C233.169 254.911 233.011 255.177 232.79 255.406C232.569 255.633 232.295 255.81 231.97 255.938C231.644 256.062 231.278 256.125 230.872 256.125Z" fill="white"/>
<path d="M239.009 251.344L238.181 251.578C238.129 251.44 238.052 251.306 237.95 251.176C237.851 251.043 237.716 250.934 237.544 250.848C237.372 250.762 237.152 250.719 236.884 250.719C236.517 250.719 236.211 250.803 235.966 250.973C235.724 251.139 235.603 251.352 235.603 251.609C235.603 251.839 235.686 252.02 235.853 252.152C236.019 252.285 236.28 252.396 236.634 252.484L237.524 252.703C238.061 252.833 238.461 253.033 238.724 253.301C238.987 253.566 239.118 253.909 239.118 254.328C239.118 254.672 239.019 254.979 238.821 255.25C238.626 255.521 238.353 255.734 238.001 255.891C237.649 256.047 237.241 256.125 236.774 256.125C236.162 256.125 235.656 255.992 235.255 255.727C234.854 255.461 234.6 255.073 234.493 254.562L235.368 254.344C235.451 254.667 235.609 254.909 235.841 255.07C236.075 255.232 236.381 255.312 236.759 255.312C237.188 255.312 237.53 255.221 237.782 255.039C238.037 254.854 238.165 254.633 238.165 254.375C238.165 254.167 238.092 253.992 237.946 253.852C237.8 253.708 237.576 253.602 237.274 253.531L236.274 253.297C235.725 253.167 235.321 252.965 235.063 252.691C234.808 252.415 234.681 252.07 234.681 251.656C234.681 251.318 234.776 251.018 234.966 250.758C235.159 250.497 235.42 250.293 235.751 250.145C236.084 249.996 236.462 249.922 236.884 249.922C237.478 249.922 237.944 250.052 238.282 250.312C238.623 250.573 238.866 250.917 239.009 251.344Z" fill="white"/>
</g>
<g opacity="0.5">
<path d="M197 146V138H199.797C200.354 138 200.814 138.096 201.176 138.289C201.538 138.479 201.807 138.736 201.984 139.059C202.161 139.379 202.25 139.734 202.25 140.125C202.25 140.469 202.189 140.753 202.066 140.977C201.947 141.201 201.788 141.378 201.59 141.508C201.395 141.638 201.182 141.734 200.953 141.797V141.875C201.198 141.891 201.444 141.977 201.691 142.133C201.939 142.289 202.146 142.513 202.312 142.805C202.479 143.096 202.562 143.453 202.562 143.875C202.562 144.276 202.471 144.637 202.289 144.957C202.107 145.277 201.819 145.531 201.426 145.719C201.033 145.906 200.521 146 199.891 146H197ZM197.969 145.141H199.891C200.523 145.141 200.973 145.018 201.238 144.773C201.507 144.526 201.641 144.227 201.641 143.875C201.641 143.604 201.572 143.354 201.434 143.125C201.296 142.893 201.099 142.708 200.844 142.57C200.589 142.43 200.286 142.359 199.938 142.359H197.969V145.141ZM197.969 141.516H199.766C200.057 141.516 200.32 141.458 200.555 141.344C200.792 141.229 200.979 141.068 201.117 140.859C201.258 140.651 201.328 140.406 201.328 140.125C201.328 139.773 201.206 139.475 200.961 139.23C200.716 138.983 200.328 138.859 199.797 138.859H197.969V141.516Z" fill="white"/>
<path d="M204.029 146V140H204.92V140.906H204.982C205.092 140.609 205.29 140.368 205.576 140.184C205.863 139.999 206.186 139.906 206.545 139.906C206.613 139.906 206.697 139.908 206.799 139.91C206.9 139.913 206.977 139.917 207.029 139.922V140.859C206.998 140.852 206.926 140.84 206.814 140.824C206.705 140.806 206.589 140.797 206.467 140.797C206.175 140.797 205.915 140.858 205.686 140.98C205.459 141.1 205.279 141.267 205.146 141.48C205.016 141.691 204.951 141.932 204.951 142.203V146H204.029Z" fill="white"/>
<path d="M209.888 146.141C209.507 146.141 209.162 146.069 208.853 145.926C208.543 145.78 208.297 145.57 208.114 145.297C207.932 145.021 207.841 144.688 207.841 144.297C207.841 143.953 207.909 143.674 208.044 143.461C208.179 143.245 208.36 143.076 208.587 142.953C208.813 142.831 209.063 142.74 209.337 142.68C209.613 142.617 209.89 142.568 210.169 142.531C210.534 142.484 210.829 142.449 211.056 142.426C211.285 142.4 211.451 142.357 211.556 142.297C211.662 142.237 211.716 142.133 211.716 141.984V141.953C211.716 141.568 211.61 141.268 211.399 141.055C211.191 140.841 210.875 140.734 210.45 140.734C210.01 140.734 209.665 140.831 209.415 141.023C209.165 141.216 208.989 141.422 208.888 141.641L208.013 141.328C208.169 140.964 208.377 140.68 208.638 140.477C208.901 140.271 209.187 140.128 209.497 140.047C209.81 139.964 210.117 139.922 210.419 139.922C210.612 139.922 210.833 139.945 211.083 139.992C211.336 140.036 211.579 140.129 211.813 140.27C212.05 140.41 212.247 140.622 212.403 140.906C212.56 141.19 212.638 141.57 212.638 142.047V146H211.716V145.188H211.669C211.606 145.318 211.502 145.457 211.356 145.605C211.211 145.754 211.017 145.88 210.774 145.984C210.532 146.089 210.237 146.141 209.888 146.141ZM210.028 145.312C210.393 145.312 210.7 145.241 210.95 145.098C211.203 144.954 211.393 144.77 211.521 144.543C211.651 144.316 211.716 144.078 211.716 143.828V142.984C211.677 143.031 211.591 143.074 211.458 143.113C211.328 143.15 211.177 143.182 211.005 143.211C210.836 143.237 210.67 143.26 210.509 143.281C210.35 143.299 210.221 143.315 210.122 143.328C209.882 143.359 209.659 143.41 209.45 143.48C209.244 143.548 209.078 143.651 208.95 143.789C208.825 143.924 208.763 144.109 208.763 144.344C208.763 144.664 208.881 144.906 209.118 145.07C209.358 145.232 209.661 145.312 210.028 145.312Z" fill="white"/>
<path d="M215.242 142.391V146H214.32V140H215.211V140.938H215.289C215.43 140.633 215.643 140.388 215.93 140.203C216.216 140.016 216.586 139.922 217.039 139.922C217.445 139.922 217.801 140.005 218.105 140.172C218.41 140.336 218.647 140.586 218.816 140.922C218.986 141.255 219.07 141.677 219.07 142.188V146H218.148V142.25C218.148 141.779 218.026 141.411 217.781 141.148C217.536 140.883 217.201 140.75 216.773 140.75C216.479 140.75 216.216 140.814 215.984 140.941C215.755 141.069 215.574 141.255 215.441 141.5C215.309 141.745 215.242 142.042 215.242 142.391Z" fill="white"/>
<path d="M223.192 146.125C222.63 146.125 222.146 145.992 221.739 145.727C221.333 145.461 221.021 145.095 220.802 144.629C220.583 144.163 220.474 143.63 220.474 143.031C220.474 142.422 220.586 141.884 220.81 141.418C221.036 140.949 221.351 140.583 221.755 140.32C222.161 140.055 222.635 139.922 223.177 139.922C223.599 139.922 223.979 140 224.317 140.156C224.656 140.313 224.933 140.531 225.149 140.812C225.366 141.094 225.5 141.422 225.552 141.797H224.63C224.56 141.523 224.403 141.281 224.161 141.07C223.922 140.857 223.599 140.75 223.192 140.75C222.833 140.75 222.518 140.844 222.247 141.031C221.979 141.216 221.769 141.478 221.618 141.816C221.47 142.152 221.396 142.547 221.396 143C221.396 143.464 221.468 143.867 221.614 144.211C221.763 144.555 221.971 144.822 222.239 145.012C222.51 145.202 222.828 145.297 223.192 145.297C223.432 145.297 223.649 145.255 223.845 145.172C224.04 145.089 224.205 144.969 224.341 144.812C224.476 144.656 224.573 144.469 224.63 144.25H225.552C225.5 144.604 225.371 144.923 225.165 145.207C224.962 145.488 224.692 145.712 224.356 145.879C224.023 146.043 223.635 146.125 223.192 146.125Z" fill="white"/>
<path d="M227.821 142.391V146H226.899V138H227.821V140.938H227.899C228.04 140.628 228.251 140.382 228.532 140.199C228.816 140.014 229.194 139.922 229.665 139.922C230.074 139.922 230.432 140.004 230.739 140.168C231.047 140.329 231.285 140.578 231.454 140.914C231.626 141.247 231.712 141.672 231.712 142.188V146H230.79V142.25C230.79 141.773 230.666 141.405 230.419 141.145C230.174 140.882 229.834 140.75 229.399 140.75C229.097 140.75 228.826 140.814 228.587 140.941C228.35 141.069 228.162 141.255 228.024 141.5C227.889 141.745 227.821 142.042 227.821 142.391Z" fill="white"/>
<path d="M235.914 146.125C235.336 146.125 234.837 145.997 234.418 145.742C234.001 145.484 233.68 145.125 233.453 144.664C233.229 144.201 233.117 143.661 233.117 143.047C233.117 142.432 233.229 141.891 233.453 141.422C233.68 140.951 233.995 140.583 234.398 140.32C234.805 140.055 235.279 139.922 235.82 139.922C236.133 139.922 236.441 139.974 236.746 140.078C237.051 140.182 237.328 140.352 237.578 140.586C237.828 140.818 238.027 141.125 238.176 141.508C238.324 141.891 238.398 142.362 238.398 142.922V143.312H233.773V142.516H237.461C237.461 142.177 237.393 141.875 237.258 141.609C237.125 141.344 236.935 141.134 236.688 140.98C236.443 140.827 236.154 140.75 235.82 140.75C235.453 140.75 235.135 140.841 234.867 141.023C234.602 141.203 234.397 141.438 234.254 141.727C234.111 142.016 234.039 142.326 234.039 142.656V143.188C234.039 143.641 234.117 144.025 234.273 144.34C234.432 144.652 234.652 144.891 234.934 145.055C235.215 145.216 235.542 145.297 235.914 145.297C236.156 145.297 236.375 145.263 236.57 145.195C236.768 145.125 236.939 145.021 237.082 144.883C237.225 144.742 237.336 144.568 237.414 144.359L238.305 144.609C238.211 144.911 238.053 145.177 237.832 145.406C237.611 145.633 237.337 145.81 237.012 145.938C236.686 146.062 236.32 146.125 235.914 146.125Z" fill="white"/>
<path d="M244.051 141.344L243.223 141.578C243.171 141.44 243.094 141.306 242.992 141.176C242.893 141.043 242.758 140.934 242.586 140.848C242.414 140.762 242.194 140.719 241.926 140.719C241.559 140.719 241.253 140.803 241.008 140.973C240.766 141.139 240.645 141.352 240.645 141.609C240.645 141.839 240.728 142.02 240.895 142.152C241.061 142.285 241.322 142.396 241.676 142.484L242.566 142.703C243.103 142.833 243.503 143.033 243.766 143.301C244.029 143.566 244.16 143.909 244.16 144.328C244.16 144.672 244.061 144.979 243.863 145.25C243.668 145.521 243.395 145.734 243.043 145.891C242.691 146.047 242.283 146.125 241.816 146.125C241.204 146.125 240.698 145.992 240.297 145.727C239.896 145.461 239.642 145.073 239.535 144.562L240.41 144.344C240.493 144.667 240.651 144.909 240.883 145.07C241.117 145.232 241.423 145.312 241.801 145.312C242.23 145.312 242.572 145.221 242.824 145.039C243.079 144.854 243.207 144.633 243.207 144.375C243.207 144.167 243.134 143.992 242.988 143.852C242.842 143.708 242.618 143.602 242.316 143.531L241.316 143.297C240.767 143.167 240.363 142.965 240.105 142.691C239.85 142.415 239.723 142.07 239.723 141.656C239.723 141.318 239.818 141.018 240.008 140.758C240.201 140.497 240.462 140.293 240.793 140.145C241.126 139.996 241.504 139.922 241.926 139.922C242.52 139.922 242.986 140.052 243.324 140.312C243.665 140.573 243.908 140.917 244.051 141.344Z" fill="white"/>
</g>
<path opacity="0.5" d="M36.276 108.091C36.2376 107.767 36.0821 107.516 35.8093 107.337C35.5366 107.158 35.2021 107.068 34.8058 107.068C34.516 107.068 34.2625 107.115 34.0451 107.209C33.8299 107.303 33.6616 107.431 33.5402 107.596C33.4209 107.76 33.3612 107.946 33.3612 108.155C33.3612 108.33 33.4027 108.48 33.4858 108.605C33.5711 108.729 33.6797 108.832 33.8118 108.915C33.9439 108.996 34.0824 109.064 34.2273 109.117C34.3722 109.168 34.5054 109.21 34.6268 109.241L35.2916 109.42C35.462 109.465 35.6517 109.527 35.8605 109.606C36.0714 109.685 36.2728 109.792 36.4645 109.929C36.6584 110.063 36.8182 110.235 36.9439 110.446C37.0696 110.657 37.1325 110.916 37.1325 111.223C37.1325 111.577 37.0398 111.896 36.8544 112.182C36.6712 112.467 36.4027 112.694 36.0491 112.863C35.6975 113.031 35.2703 113.115 34.7674 113.115C34.2987 113.115 33.8928 113.039 33.5498 112.888C33.2089 112.737 32.9404 112.526 32.7444 112.255C32.5505 111.985 32.4407 111.67 32.4152 111.312H33.2334C33.2547 111.56 33.3378 111.764 33.4826 111.926C33.6297 112.086 33.815 112.205 34.0388 112.284C34.2646 112.361 34.5075 112.399 34.7674 112.399C35.07 112.399 35.3417 112.35 35.5824 112.252C35.8232 112.152 36.0139 112.013 36.1545 111.837C36.2951 111.658 36.3655 111.449 36.3655 111.21C36.3655 110.993 36.3047 110.816 36.1833 110.68C36.0618 110.543 35.902 110.433 35.7039 110.347C35.5057 110.262 35.2916 110.187 35.0615 110.124L34.2561 109.893C33.7447 109.746 33.3399 109.537 33.0416 109.264C32.7433 108.991 32.5941 108.634 32.5941 108.193C32.5941 107.827 32.6932 107.507 32.8914 107.234C33.0917 106.96 33.3601 106.746 33.6968 106.595C34.0356 106.442 34.4138 106.365 34.8314 106.365C35.2532 106.365 35.6282 106.441 35.9564 106.592C36.2845 106.741 36.5444 106.946 36.7362 107.206C36.9301 107.466 37.0324 107.761 37.043 108.091H36.276ZM41.4272 110.993V108.091H42.1814V113H41.4272V112.169H41.376C41.261 112.418 41.082 112.63 40.8391 112.805C40.5962 112.978 40.2894 113.064 39.9186 113.064C39.6118 113.064 39.3391 112.997 39.1005 112.863C38.8618 112.726 38.6743 112.522 38.538 112.249C38.4016 111.974 38.3334 111.628 38.3334 111.21V108.091H39.0877V111.159C39.0877 111.517 39.1878 111.803 39.3881 112.016C39.5905 112.229 39.8483 112.335 40.1615 112.335C40.349 112.335 40.5397 112.287 40.7336 112.191C40.9296 112.096 41.0937 111.949 41.2258 111.75C41.36 111.552 41.4272 111.3 41.4272 110.993ZM43.5629 113V108.091H44.2916V108.858H44.3555C44.4578 108.596 44.6229 108.392 44.8509 108.248C45.0789 108.1 45.3527 108.027 45.6723 108.027C45.9961 108.027 46.2657 108.1 46.4809 108.248C46.6982 108.392 46.8676 108.596 46.989 108.858H47.0402C47.1659 108.604 47.3544 108.403 47.6059 108.254C47.8573 108.103 48.1588 108.027 48.5103 108.027C48.9493 108.027 49.3083 108.164 49.5874 108.439C49.8665 108.712 50.0061 109.137 50.0061 109.714V113H49.2518V109.714C49.2518 109.352 49.1527 109.093 48.9546 108.938C48.7564 108.782 48.5231 108.705 48.2547 108.705C47.9095 108.705 47.6421 108.809 47.4525 109.018C47.2628 109.224 47.168 109.487 47.168 109.804V113H46.401V109.638C46.401 109.359 46.3104 109.134 46.1293 108.963C45.9482 108.791 45.7149 108.705 45.4294 108.705C45.2334 108.705 45.0501 108.757 44.8797 108.861C44.7113 108.966 44.575 109.11 44.4706 109.296C44.3683 109.479 44.3172 109.691 44.3172 109.932V113H43.5629ZM51.3852 113V108.091H52.1139V108.858H52.1778C52.2801 108.596 52.4452 108.392 52.6732 108.248C52.9011 108.1 53.1749 108.027 53.4945 108.027C53.8184 108.027 54.0879 108.1 54.3031 108.248C54.5205 108.392 54.6899 108.596 54.8113 108.858H54.8624C54.9881 108.604 55.1767 108.403 55.4281 108.254C55.6796 108.103 55.981 108.027 56.3326 108.027C56.7715 108.027 57.1305 108.164 57.4097 108.439C57.6888 108.712 57.8283 109.137 57.8283 109.714V113H57.0741V109.714C57.0741 109.352 56.975 109.093 56.7769 108.938C56.5787 108.782 56.3454 108.705 56.0769 108.705C55.7318 108.705 55.4644 108.809 55.2747 109.018C55.0851 109.224 54.9903 109.487 54.9903 109.804V113H54.2232V109.638C54.2232 109.359 54.1327 109.134 53.9516 108.963C53.7705 108.791 53.5372 108.705 53.2516 108.705C53.0556 108.705 52.8724 108.757 52.7019 108.861C52.5336 108.966 52.3972 109.11 52.2928 109.296C52.1906 109.479 52.1394 109.691 52.1394 109.932V113H51.3852ZM60.652 113.115C60.341 113.115 60.0586 113.056 59.8051 112.939C59.5515 112.82 59.3502 112.648 59.201 112.425C59.0519 112.199 58.9773 111.926 58.9773 111.607C58.9773 111.325 59.0327 111.097 59.1435 110.923C59.2543 110.746 59.4024 110.607 59.5878 110.507C59.7731 110.407 59.9777 110.332 60.2014 110.283C60.4272 110.232 60.6542 110.192 60.8821 110.162C61.1804 110.124 61.4223 110.095 61.6076 110.076C61.7951 110.054 61.9315 110.019 62.0167 109.97C62.1041 109.921 62.1478 109.836 62.1478 109.714V109.689C62.1478 109.374 62.0615 109.129 61.8889 108.954C61.7184 108.779 61.4596 108.692 61.1123 108.692C60.7522 108.692 60.4699 108.771 60.2653 108.928C60.0608 109.086 59.9169 109.254 59.8339 109.433L59.1179 109.178C59.2458 108.879 59.4162 108.647 59.6293 108.481C59.8445 108.312 60.0789 108.195 60.3324 108.129C60.5881 108.061 60.8395 108.027 61.0867 108.027C61.2444 108.027 61.4255 108.046 61.63 108.085C61.8367 108.121 62.0359 108.196 62.2277 108.311C62.4216 108.426 62.5824 108.6 62.7103 108.832C62.8381 109.065 62.902 109.376 62.902 109.766V113H62.1478V112.335H62.1094C62.0583 112.442 61.9731 112.556 61.8537 112.677C61.7344 112.799 61.5757 112.902 61.3775 112.987C61.1794 113.072 60.9375 113.115 60.652 113.115ZM60.7671 112.438C61.0654 112.438 61.3168 112.379 61.5214 112.262C61.728 112.145 61.8836 111.993 61.988 111.808C62.0945 111.623 62.1478 111.428 62.1478 111.223V110.533C62.1158 110.571 62.0455 110.606 61.9368 110.638C61.8303 110.668 61.7067 110.695 61.5661 110.718C61.4276 110.739 61.2923 110.759 61.1602 110.776C61.0302 110.79 60.9248 110.803 60.8438 110.814C60.6478 110.839 60.4645 110.881 60.2941 110.939C60.1258 110.994 59.9894 111.078 59.885 111.191C59.7827 111.302 59.7316 111.453 59.7316 111.645C59.7316 111.907 59.8285 112.105 60.0224 112.239C60.2184 112.371 60.4667 112.438 60.7671 112.438ZM64.2787 113V108.091H65.0074V108.832H65.0585C65.148 108.589 65.31 108.392 65.5443 108.241C65.7787 108.09 66.0429 108.014 66.337 108.014C66.3924 108.014 66.4616 108.015 66.5447 108.017C66.6278 108.02 66.6907 108.023 66.7333 108.027V108.794C66.7077 108.788 66.6491 108.778 66.5575 108.765C66.468 108.75 66.3732 108.743 66.273 108.743C66.0344 108.743 65.8213 108.793 65.6338 108.893C65.4485 108.991 65.3014 109.127 65.1928 109.302C65.0862 109.475 65.033 109.672 65.033 109.893V113H64.2787ZM68.2626 114.841C68.1347 114.841 68.0207 114.83 67.9206 114.809C67.8204 114.79 67.7512 114.771 67.7128 114.751L67.9046 114.087C68.0878 114.134 68.2498 114.151 68.3904 114.138C68.531 114.125 68.6557 114.062 68.7643 113.949C68.8751 113.838 68.9763 113.658 69.068 113.409L69.2086 113.026L67.3932 108.091H68.2114L69.5665 112.003H69.6177L70.9728 108.091H71.791L69.7072 113.716C69.6134 113.969 69.4973 114.179 69.3588 114.346C69.2203 114.514 69.0594 114.638 68.8762 114.719C68.6951 114.8 68.4905 114.841 68.2626 114.841Z" fill="white"/>
<path opacity="0.5" d="M19.4322 221.5H18.6396C18.5927 221.272 18.5107 221.072 18.3935 220.899C18.2785 220.727 18.1378 220.582 17.9716 220.464C17.8076 220.345 17.6254 220.256 17.4251 220.196C17.2248 220.136 17.016 220.107 16.7987 220.107C16.4024 220.107 16.0434 220.207 15.7216 220.407C15.402 220.607 15.1474 220.902 14.9578 221.292C14.7703 221.682 14.6765 222.161 14.6765 222.727C14.6765 223.294 14.7703 223.772 14.9578 224.162C15.1474 224.552 15.402 224.847 15.7216 225.048C16.0434 225.248 16.4024 225.348 16.7987 225.348C17.016 225.348 17.2248 225.318 17.4251 225.259C17.6254 225.199 17.8076 225.11 17.9716 224.993C18.1378 224.874 18.2785 224.728 18.3935 224.555C18.5107 224.381 18.5927 224.18 18.6396 223.955H19.4322C19.3726 224.289 19.2639 224.588 19.1062 224.853C18.9486 225.117 18.7525 225.342 18.5182 225.527C18.2838 225.71 18.0206 225.85 17.7287 225.946C17.439 226.042 17.129 226.089 16.7987 226.089C16.2405 226.089 15.744 225.953 15.3093 225.68C14.8747 225.408 14.5327 225.02 14.2834 224.517C14.0341 224.014 13.9095 223.418 13.9095 222.727C13.9095 222.037 14.0341 221.44 14.2834 220.938C14.5327 220.435 14.8747 220.047 15.3093 219.774C15.744 219.501 16.2405 219.365 16.7987 219.365C17.129 219.365 17.439 219.413 17.7287 219.509C18.0206 219.605 18.2838 219.745 18.5182 219.931C18.7525 220.114 18.9486 220.338 19.1062 220.602C19.2639 220.864 19.3726 221.163 19.4322 221.5ZM21.365 223.047V226H20.6108V219.455H21.365V221.858H21.4289C21.544 221.604 21.7166 221.403 21.9467 221.254C22.1789 221.103 22.4879 221.027 22.8735 221.027C23.2081 221.027 23.501 221.094 23.7524 221.228C24.0039 221.36 24.1988 221.564 24.3373 221.839C24.4779 222.112 24.5483 222.459 24.5483 222.881V226H23.794V222.932C23.794 222.542 23.6928 222.24 23.4904 222.027C23.2901 221.812 23.012 221.705 22.6562 221.705C22.409 221.705 22.1875 221.757 21.9914 221.861C21.7975 221.966 21.6441 222.118 21.5312 222.318C21.4204 222.518 21.365 222.761 21.365 223.047ZM29.0219 223.993V221.091H29.7761V226H29.0219V225.169H28.9707C28.8557 225.418 28.6767 225.63 28.4338 225.805C28.1909 225.978 27.8841 226.064 27.5134 226.064C27.2065 226.064 26.9338 225.997 26.6952 225.863C26.4565 225.726 26.269 225.522 26.1327 225.249C25.9963 224.974 25.9281 224.628 25.9281 224.21V221.091H26.6824V224.159C26.6824 224.517 26.7825 224.803 26.9828 225.016C27.1852 225.229 27.443 225.335 27.7563 225.335C27.9438 225.335 28.1345 225.287 28.3283 225.191C28.5244 225.096 28.6884 224.949 28.8205 224.75C28.9548 224.552 29.0219 224.3 29.0219 223.993ZM31.9119 223.047V226H31.1576V221.091H31.8863V221.858H31.9502C32.0653 221.609 32.24 221.408 32.4744 221.257C32.7088 221.104 33.0113 221.027 33.3821 221.027C33.7144 221.027 34.0053 221.095 34.2546 221.232C34.5039 221.366 34.6978 221.57 34.8362 221.845C34.9747 222.118 35.044 222.463 35.044 222.881V226H34.2897V222.932C34.2897 222.546 34.1896 222.246 33.9893 222.031C33.789 221.813 33.5142 221.705 33.1647 221.705C32.924 221.705 32.7088 221.757 32.5191 221.861C32.3316 221.966 32.1835 222.118 32.0749 222.318C31.9662 222.518 31.9119 222.761 31.9119 223.047ZM37.1254 224.21L37.1126 223.277H37.266L39.4138 221.091H40.347L38.0586 223.405H37.9947L37.1254 224.21ZM36.4223 226V219.455H37.1765V226H36.4223ZM39.5416 226L37.624 223.571L38.1609 223.047L40.5004 226H39.5416Z" fill="white"/>
<path opacity="0.5" d="M159.276 23.0909C159.238 22.767 159.082 22.5156 158.809 22.3366C158.537 22.1577 158.202 22.0682 157.806 22.0682C157.516 22.0682 157.262 22.1151 157.045 22.2088C156.83 22.3026 156.662 22.4315 156.54 22.5955C156.421 22.7596 156.361 22.946 156.361 23.1548C156.361 23.3295 156.403 23.4798 156.486 23.6055C156.571 23.729 156.68 23.8324 156.812 23.9155C156.944 23.9964 157.082 24.0636 157.227 24.1168C157.372 24.168 157.505 24.2095 157.627 24.2415L158.292 24.4205C158.462 24.4652 158.652 24.527 158.86 24.6058C159.071 24.6847 159.273 24.7923 159.465 24.9286C159.658 25.0629 159.818 25.2354 159.944 25.4464C160.07 25.6573 160.133 25.9162 160.133 26.223C160.133 26.5767 160.04 26.8963 159.854 27.1818C159.671 27.4673 159.403 27.6942 159.049 27.8626C158.697 28.0309 158.27 28.1151 157.767 28.1151C157.299 28.1151 156.893 28.0394 156.55 27.8881C156.209 27.7369 155.94 27.5259 155.744 27.2553C155.55 26.9847 155.441 26.6705 155.415 26.3125H156.233C156.255 26.5597 156.338 26.7642 156.483 26.9261C156.63 27.0859 156.815 27.2053 157.039 27.2841C157.265 27.3608 157.508 27.3991 157.767 27.3991C158.07 27.3991 158.342 27.3501 158.582 27.2521C158.823 27.152 159.014 27.0135 159.155 26.8366C159.295 26.6577 159.365 26.4489 159.365 26.2102C159.365 25.9929 159.305 25.8161 159.183 25.6797C159.062 25.5433 158.902 25.4325 158.704 25.3473C158.506 25.2621 158.292 25.1875 158.061 25.1236L157.256 24.8935C156.745 24.7464 156.34 24.5366 156.042 24.2638C155.743 23.9911 155.594 23.6342 155.594 23.1932C155.594 22.8267 155.693 22.5071 155.891 22.2344C156.092 21.9595 156.36 21.7464 156.697 21.5952C157.036 21.4418 157.414 21.3651 157.831 21.3651C158.253 21.3651 158.628 21.4407 158.956 21.592C159.284 21.7411 159.544 21.9457 159.736 22.2056C159.93 22.4656 160.032 22.7607 160.043 23.0909H159.276ZM164.427 25.9929V23.0909H165.181V28H164.427V27.169H164.376C164.261 27.4183 164.082 27.6303 163.839 27.805C163.596 27.9776 163.289 28.0639 162.919 28.0639C162.612 28.0639 162.339 27.9968 162.1 27.8626C161.862 27.7262 161.674 27.5217 161.538 27.2489C161.402 26.9741 161.333 26.6278 161.333 26.2102V23.0909H162.088V26.1591C162.088 26.517 162.188 26.8026 162.388 27.0156C162.591 27.2287 162.848 27.3352 163.162 27.3352C163.349 27.3352 163.54 27.2873 163.734 27.1914C163.93 27.0955 164.094 26.9485 164.226 26.7504C164.36 26.5522 164.427 26.2997 164.427 25.9929ZM166.563 28V23.0909H167.292V23.858H167.356C167.458 23.5959 167.623 23.3924 167.851 23.2475C168.079 23.1005 168.353 23.027 168.672 23.027C168.996 23.027 169.266 23.1005 169.481 23.2475C169.698 23.3924 169.868 23.5959 169.989 23.858H170.04C170.166 23.6044 170.354 23.4031 170.606 23.2539C170.857 23.1026 171.159 23.027 171.51 23.027C171.949 23.027 172.308 23.1644 172.587 23.4393C172.867 23.712 173.006 24.1371 173.006 24.7145V28H172.252V24.7145C172.252 24.3523 172.153 24.0934 171.955 23.9379C171.756 23.7823 171.523 23.7045 171.255 23.7045C170.909 23.7045 170.642 23.8089 170.452 24.0178C170.263 24.2244 170.168 24.4865 170.168 24.804V28H169.401V24.6378C169.401 24.3587 169.31 24.1339 169.129 23.9634C168.948 23.7908 168.715 23.7045 168.429 23.7045C168.233 23.7045 168.05 23.7567 167.88 23.8612C167.711 23.9656 167.575 24.1104 167.471 24.2958C167.368 24.479 167.317 24.6911 167.317 24.9318V28H166.563ZM174.385 28V23.0909H175.114V23.858H175.178C175.28 23.5959 175.445 23.3924 175.673 23.2475C175.901 23.1005 176.175 23.027 176.495 23.027C176.818 23.027 177.088 23.1005 177.303 23.2475C177.52 23.3924 177.69 23.5959 177.811 23.858H177.862C177.988 23.6044 178.177 23.4031 178.428 23.2539C178.68 23.1026 178.981 23.027 179.333 23.027C179.772 23.027 180.131 23.1644 180.41 23.4393C180.689 23.712 180.828 24.1371 180.828 24.7145V28H180.074V24.7145C180.074 24.3523 179.975 24.0934 179.777 23.9379C179.579 23.7823 179.345 23.7045 179.077 23.7045C178.732 23.7045 178.464 23.8089 178.275 24.0178C178.085 24.2244 177.99 24.4865 177.99 24.804V28H177.223V24.6378C177.223 24.3587 177.133 24.1339 176.952 23.9634C176.77 23.7908 176.537 23.7045 176.252 23.7045C176.056 23.7045 175.872 23.7567 175.702 23.8612C175.534 23.9656 175.397 24.1104 175.293 24.2958C175.191 24.479 175.139 24.6911 175.139 24.9318V28H174.385ZM183.652 28.1151C183.341 28.1151 183.059 28.0565 182.805 27.9393C182.552 27.82 182.35 27.6484 182.201 27.4247C182.052 27.1989 181.977 26.9261 181.977 26.6065C181.977 26.3253 182.033 26.0973 182.144 25.9226C182.254 25.7457 182.402 25.6072 182.588 25.5071C182.773 25.407 182.978 25.3324 183.201 25.2834C183.427 25.2322 183.654 25.1918 183.882 25.1619C184.18 25.1236 184.422 25.0948 184.608 25.0756C184.795 25.0543 184.932 25.0192 185.017 24.9702C185.104 24.9212 185.148 24.8359 185.148 24.7145V24.6889C185.148 24.3736 185.061 24.1286 184.889 23.9538C184.718 23.7791 184.46 23.6918 184.112 23.6918C183.752 23.6918 183.47 23.7706 183.265 23.9283C183.061 24.0859 182.917 24.2543 182.834 24.4332L182.118 24.1776C182.246 23.8793 182.416 23.647 182.629 23.4808C182.845 23.3125 183.079 23.1953 183.332 23.1293C183.588 23.0611 183.84 23.027 184.087 23.027C184.244 23.027 184.425 23.0462 184.63 23.0845C184.837 23.1207 185.036 23.1964 185.228 23.3114C185.422 23.4265 185.582 23.6001 185.71 23.8324C185.838 24.0646 185.902 24.3757 185.902 24.7656V28H185.148V27.3352H185.109C185.058 27.4418 184.973 27.5558 184.854 27.6772C184.734 27.7987 184.576 27.902 184.378 27.9872C184.179 28.0724 183.938 28.1151 183.652 28.1151ZM183.767 27.4375C184.065 27.4375 184.317 27.3789 184.521 27.2617C184.728 27.1445 184.884 26.9933 184.988 26.8079C185.095 26.6225 185.148 26.4276 185.148 26.223V25.5327C185.116 25.571 185.045 25.6062 184.937 25.6381C184.83 25.668 184.707 25.6946 184.566 25.718C184.428 25.7393 184.292 25.7585 184.16 25.7756C184.03 25.7905 183.925 25.8033 183.844 25.8139C183.648 25.8395 183.465 25.881 183.294 25.9386C183.126 25.994 182.989 26.0781 182.885 26.1911C182.783 26.3018 182.732 26.4531 182.732 26.6449C182.732 26.907 182.829 27.1051 183.022 27.2393C183.218 27.3714 183.467 27.4375 183.767 27.4375ZM187.279 28V23.0909H188.007V23.8324H188.059C188.148 23.5895 188.31 23.3924 188.544 23.2411C188.779 23.0898 189.043 23.0142 189.337 23.0142C189.392 23.0142 189.462 23.0153 189.545 23.0174C189.628 23.0195 189.691 23.0227 189.733 23.027V23.794C189.708 23.7876 189.649 23.7781 189.557 23.7653C189.468 23.7504 189.373 23.7429 189.273 23.7429C189.034 23.7429 188.821 23.793 188.634 23.8931C188.448 23.9911 188.301 24.1275 188.193 24.3022C188.086 24.4748 188.033 24.6719 188.033 24.8935V28H187.279ZM191.263 29.8409C191.135 29.8409 191.021 29.8303 190.921 29.8089C190.82 29.7898 190.751 29.7706 190.713 29.7514L190.905 29.0866C191.088 29.1335 191.25 29.1506 191.39 29.1378C191.531 29.125 191.656 29.0621 191.764 28.9492C191.875 28.8384 191.976 28.6584 192.068 28.4091L192.209 28.0256L190.393 23.0909H191.211L192.567 27.0028H192.618L193.973 23.0909H194.791L192.707 28.7159C192.613 28.9695 192.497 29.1793 192.359 29.3455C192.22 29.5138 192.059 29.6385 191.876 29.7195C191.695 29.8004 191.491 29.8409 191.263 29.8409Z" fill="white"/>
</svg>
